%TF.GenerationSoftware,KiCad,Pcbnew,9.0.3*%
%TF.CreationDate,2025-07-13T04:30:13+05:30*%
%TF.ProjectId,Smart_Env_Monitoring_Node,536d6172-745f-4456-9e76-5f4d6f6e6974,rev?*%
%TF.SameCoordinates,Original*%
%TF.FileFunction,Legend,Top*%
%TF.FilePolarity,Positive*%
%FSLAX46Y46*%
G04 Gerber Fmt 4.6, Leading zero omitted, Abs format (unit mm)*
G04 Created by KiCad (PCBNEW 9.0.3) date 2025-07-13 04:30:13*
%MOMM*%
%LPD*%
G01*
G04 APERTURE LIST*
%ADD10C,0.100000*%
%ADD11C,0.500000*%
%ADD12C,0.250000*%
%ADD13C,0.150000*%
%ADD14C,0.120000*%
%ADD15C,0.127000*%
%ADD16C,0.200000*%
G04 APERTURE END LIST*
D10*
X117417433Y-111740000D02*
X117462566Y-120920000D01*
X114860000Y-128150000D02*
X114860000Y-115360000D01*
X111570000Y-128150000D02*
X114860000Y-128150000D01*
X111595000Y-105780000D02*
X111570000Y-128150000D01*
X117462566Y-120920000D02*
X114845000Y-120890000D01*
X114812500Y-105780000D02*
X114787500Y-113250000D01*
X114940000Y-111710000D02*
X117417286Y-111710000D01*
X114812500Y-105780000D02*
X111595000Y-105780000D01*
D11*
G36*
X113197310Y-125443550D02*
G01*
X113359723Y-125469338D01*
X113480265Y-125506992D01*
X113593269Y-125562900D01*
X113691478Y-125630448D01*
X113776409Y-125709836D01*
X113848675Y-125800730D01*
X113901050Y-125893317D01*
X113935411Y-125988517D01*
X113977204Y-126188374D01*
X113990000Y-126357445D01*
X113990000Y-127276898D01*
X111989162Y-127276898D01*
X111989162Y-126503625D01*
X112442477Y-126503625D01*
X112442477Y-126657986D01*
X113536685Y-126657986D01*
X113536685Y-126506311D01*
X113530554Y-126375734D01*
X113515046Y-126287388D01*
X113493698Y-126230317D01*
X113459350Y-126181299D01*
X113410239Y-126138577D01*
X113343367Y-126101967D01*
X113269471Y-126078781D01*
X113157671Y-126062017D01*
X112995687Y-126055439D01*
X112829123Y-126064048D01*
X112707243Y-126086631D01*
X112620252Y-126119228D01*
X112559958Y-126159364D01*
X112511851Y-126214762D01*
X112475329Y-126287526D01*
X112451322Y-126381957D01*
X112442477Y-126503625D01*
X111989162Y-126503625D01*
X111989162Y-126357445D01*
X111998572Y-126176521D01*
X112024211Y-126032231D01*
X112062923Y-125918175D01*
X112119684Y-125812258D01*
X112189978Y-125720528D01*
X112274438Y-125641570D01*
X112370289Y-125576007D01*
X112476786Y-125523168D01*
X112595251Y-125483056D01*
X112781692Y-125446380D01*
X112982742Y-125433841D01*
X113197310Y-125443550D01*
G37*
G36*
X111989162Y-125109731D02*
G01*
X111989162Y-123451078D01*
X112419030Y-123451078D01*
X112419030Y-124489476D01*
X112739476Y-124489476D01*
X112739476Y-123526304D01*
X113145896Y-123526304D01*
X113145896Y-124489476D01*
X113536685Y-124489476D01*
X113536685Y-123421036D01*
X113990000Y-123421036D01*
X113990000Y-125109731D01*
X111989162Y-125109731D01*
G37*
G36*
X113323583Y-123195966D02*
G01*
X113286580Y-122607096D01*
X113380971Y-122588250D01*
X113452518Y-122561785D01*
X113505788Y-122529183D01*
X113558536Y-122477044D01*
X113596175Y-122415538D01*
X113619540Y-122342795D01*
X113627787Y-122255997D01*
X113620021Y-122169691D01*
X113598827Y-122103082D01*
X113565994Y-122051810D01*
X113521086Y-122010858D01*
X113473894Y-121987675D01*
X113422745Y-121980003D01*
X113374028Y-121987246D01*
X113328339Y-122009256D01*
X113284138Y-122048269D01*
X113251039Y-122099559D01*
X113212479Y-122197722D01*
X113168733Y-122365296D01*
X113112917Y-122575471D01*
X113053027Y-122736696D01*
X112990626Y-122857630D01*
X112926688Y-122945861D01*
X112845179Y-123022976D01*
X112755208Y-123076877D01*
X112654952Y-123109499D01*
X112541639Y-123120739D01*
X112441725Y-123110934D01*
X112345437Y-123081478D01*
X112251113Y-123031224D01*
X112168579Y-122963701D01*
X112096993Y-122875155D01*
X112036179Y-122762069D01*
X111995565Y-122639506D01*
X111968128Y-122478342D01*
X111957899Y-122269553D01*
X111968591Y-122073361D01*
X111997965Y-121914435D01*
X112042782Y-121786509D01*
X112101025Y-121684225D01*
X112179823Y-121596551D01*
X112279259Y-121527311D01*
X112403058Y-121476051D01*
X112556538Y-121444378D01*
X112590976Y-122027752D01*
X112503434Y-122050747D01*
X112439030Y-122083696D01*
X112392773Y-122125450D01*
X112359709Y-122178443D01*
X112338546Y-122245703D01*
X112330858Y-122331102D01*
X112343535Y-122430186D01*
X112376409Y-122493768D01*
X112427407Y-122535014D01*
X112487051Y-122548356D01*
X112530951Y-122537726D01*
X112572536Y-122503293D01*
X112605596Y-122443057D01*
X112645931Y-122295565D01*
X112711549Y-122023249D01*
X112770247Y-121836137D01*
X112822030Y-121714267D01*
X112889225Y-121603600D01*
X112962861Y-121519823D01*
X113043070Y-121458789D01*
X113133928Y-121414580D01*
X113231724Y-121387898D01*
X113338237Y-121378799D01*
X113462977Y-121390677D01*
X113580192Y-121425955D01*
X113692023Y-121485411D01*
X113790433Y-121564996D01*
X113872012Y-121663445D01*
X113937609Y-121783265D01*
X113981970Y-121913491D01*
X114010829Y-122072412D01*
X114021263Y-122265523D01*
X114010961Y-122482788D01*
X113982993Y-122654909D01*
X113941048Y-122789686D01*
X113887715Y-122893924D01*
X113824281Y-122973217D01*
X113720190Y-123060176D01*
X113603498Y-123125983D01*
X113472204Y-123171431D01*
X113323583Y-123195966D01*
G37*
G36*
X111989162Y-121042965D02*
G01*
X111989162Y-120422711D01*
X113990000Y-120422711D01*
X113990000Y-121042965D01*
X111989162Y-121042965D01*
G37*
G36*
X113263133Y-118972397D02*
G01*
X112848897Y-118972397D01*
X112848897Y-118015942D01*
X113699473Y-118015942D01*
X113817798Y-118204166D01*
X113900557Y-118364818D01*
X113953852Y-118501741D01*
X113989923Y-118643969D01*
X114013044Y-118809691D01*
X114021263Y-119002316D01*
X114012611Y-119183501D01*
X113988292Y-119338518D01*
X113950330Y-119470890D01*
X113900118Y-119583736D01*
X113832498Y-119689316D01*
X113750612Y-119782008D01*
X113653479Y-119862815D01*
X113539494Y-119932149D01*
X113375617Y-119999638D01*
X113193447Y-120041298D01*
X112989581Y-120055736D01*
X112826206Y-120046682D01*
X112678300Y-120020522D01*
X112543912Y-119978321D01*
X112421350Y-119920547D01*
X112308110Y-119845251D01*
X112209881Y-119754924D01*
X112125500Y-119648511D01*
X112054497Y-119524263D01*
X112004004Y-119384950D01*
X111970339Y-119205392D01*
X111957899Y-118976427D01*
X111966153Y-118753086D01*
X111987581Y-118592063D01*
X112017861Y-118479759D01*
X112065700Y-118375188D01*
X112127488Y-118284661D01*
X112203729Y-118206573D01*
X112292221Y-118141937D01*
X112397810Y-118087329D01*
X112523077Y-118043297D01*
X112630055Y-118640348D01*
X112558649Y-118671467D01*
X112501289Y-118713034D01*
X112455910Y-118765401D01*
X112423441Y-118826822D01*
X112402910Y-118900755D01*
X112395582Y-118990104D01*
X112404923Y-119089446D01*
X112431671Y-119174970D01*
X112475181Y-119249400D01*
X112536510Y-119314581D01*
X112609033Y-119363316D01*
X112703728Y-119401116D01*
X112825946Y-119426217D01*
X112982131Y-119435481D01*
X113149116Y-119425881D01*
X113276898Y-119400146D01*
X113373307Y-119361897D01*
X113444849Y-119313237D01*
X113504434Y-119247647D01*
X113547352Y-119170648D01*
X113574124Y-119079968D01*
X113583579Y-118972397D01*
X113576008Y-118870308D01*
X113553660Y-118774316D01*
X113515452Y-118678292D01*
X113451322Y-118558405D01*
X113263133Y-118558405D01*
X113263133Y-118972397D01*
G37*
G36*
X111989162Y-117644082D02*
G01*
X111989162Y-117066203D01*
X113095826Y-116311981D01*
X111989162Y-116311981D01*
X111989162Y-115728607D01*
X113990000Y-115728607D01*
X113990000Y-116311981D01*
X112889563Y-117062051D01*
X113990000Y-117062051D01*
X113990000Y-117644082D01*
X111989162Y-117644082D01*
G37*
G36*
X111989162Y-115318524D02*
G01*
X111989162Y-113659870D01*
X112419030Y-113659870D01*
X112419030Y-114698269D01*
X112739476Y-114698269D01*
X112739476Y-113735097D01*
X113145896Y-113735097D01*
X113145896Y-114698269D01*
X113536685Y-114698269D01*
X113536685Y-113629829D01*
X113990000Y-113629829D01*
X113990000Y-115318524D01*
X111989162Y-115318524D01*
G37*
G36*
X113197310Y-111455273D02*
G01*
X113359723Y-111481062D01*
X113480265Y-111518715D01*
X113593269Y-111574624D01*
X113691478Y-111642172D01*
X113776409Y-111721559D01*
X113848675Y-111812454D01*
X113901050Y-111905040D01*
X113935411Y-112000240D01*
X113977204Y-112200098D01*
X113990000Y-112369169D01*
X113990000Y-113288621D01*
X111989162Y-113288621D01*
X111989162Y-112515348D01*
X112442477Y-112515348D01*
X112442477Y-112669710D01*
X113536685Y-112669710D01*
X113536685Y-112518035D01*
X113530554Y-112387458D01*
X113515046Y-112299111D01*
X113493698Y-112242041D01*
X113459350Y-112193022D01*
X113410239Y-112150301D01*
X113343367Y-112113691D01*
X113269471Y-112090504D01*
X113157671Y-112073740D01*
X112995687Y-112067163D01*
X112829123Y-112075772D01*
X112707243Y-112098354D01*
X112620252Y-112130952D01*
X112559958Y-112171088D01*
X112511851Y-112226486D01*
X112475329Y-112299250D01*
X112451322Y-112393681D01*
X112442477Y-112515348D01*
X111989162Y-112515348D01*
X111989162Y-112369169D01*
X111998572Y-112188244D01*
X112024211Y-112043954D01*
X112062923Y-111929898D01*
X112119684Y-111823981D01*
X112189978Y-111732252D01*
X112274438Y-111653293D01*
X112370289Y-111587731D01*
X112476786Y-111534891D01*
X112595251Y-111494780D01*
X112781692Y-111458103D01*
X112982742Y-111445565D01*
X113197310Y-111455273D01*
G37*
G36*
X113521598Y-108343795D02*
G01*
X113614501Y-108368019D01*
X113700083Y-108407916D01*
X113777353Y-108462186D01*
X113842666Y-108527876D01*
X113896943Y-108605997D01*
X113933465Y-108695003D01*
X113962644Y-108840959D01*
X113990000Y-109118297D01*
X113990000Y-110186737D01*
X111989162Y-110186737D01*
X111989162Y-109289145D01*
X112395582Y-109289145D01*
X112395582Y-109562330D01*
X112770739Y-109562330D01*
X112770739Y-109293175D01*
X112767504Y-109248112D01*
X113153712Y-109248112D01*
X113153712Y-109562330D01*
X113560132Y-109562330D01*
X113560132Y-109246769D01*
X113552294Y-109141002D01*
X113532189Y-109068887D01*
X113503346Y-109021332D01*
X113461637Y-108985200D01*
X113411646Y-108963396D01*
X113350816Y-108955753D01*
X113294510Y-108963212D01*
X113247607Y-108984684D01*
X113207812Y-109020722D01*
X113180539Y-109067635D01*
X113161281Y-109140183D01*
X113153712Y-109248112D01*
X112767504Y-109248112D01*
X112763842Y-109197093D01*
X112746326Y-109132894D01*
X112721524Y-109091674D01*
X112685074Y-109060971D01*
X112638632Y-109041879D01*
X112579131Y-109035010D01*
X112524170Y-109041722D01*
X112480033Y-109060660D01*
X112444187Y-109091674D01*
X112419597Y-109132768D01*
X112402341Y-109195830D01*
X112395582Y-109289145D01*
X111989162Y-109289145D01*
X111989162Y-109028171D01*
X111999415Y-108882692D01*
X112027951Y-108762945D01*
X112072469Y-108664385D01*
X112132166Y-108583405D01*
X112208717Y-108514934D01*
X112292068Y-108467091D01*
X112383763Y-108438217D01*
X112486074Y-108428311D01*
X112599960Y-108440941D01*
X112700094Y-108477685D01*
X112789668Y-108538953D01*
X112839744Y-108592680D01*
X112884395Y-108663508D01*
X112923147Y-108754863D01*
X112969121Y-108616813D01*
X113029026Y-108513219D01*
X113101688Y-108437348D01*
X113190920Y-108381842D01*
X113295612Y-108347556D01*
X113419692Y-108335498D01*
X113521598Y-108343795D01*
G37*
G36*
X111989162Y-108213621D02*
G01*
X111989162Y-107526322D01*
X112663394Y-107121978D01*
X111989162Y-106717512D01*
X111989162Y-106034487D01*
X113152002Y-106813133D01*
X113990000Y-106813133D01*
X113990000Y-107433510D01*
X113152002Y-107433510D01*
X111989162Y-108213621D01*
G37*
D12*
G36*
X116390000Y-118752161D02*
G01*
X116225868Y-118801376D01*
X116225868Y-119153818D01*
X116390000Y-119202362D01*
X116390000Y-119518656D01*
X115389581Y-119142217D01*
X115389581Y-118976926D01*
X115649883Y-118976926D01*
X116010935Y-119086896D01*
X116010935Y-118866284D01*
X115649883Y-118976926D01*
X115389581Y-118976926D01*
X115389581Y-118804795D01*
X116390000Y-118428356D01*
X116390000Y-118752161D01*
G37*
G36*
X115389581Y-118327789D02*
G01*
X115389581Y-118018394D01*
X115767608Y-118018394D01*
X115389581Y-117693857D01*
X115389581Y-117282674D01*
X115766936Y-117647451D01*
X116390000Y-117266249D01*
X116390000Y-117647451D01*
X115978511Y-117858538D01*
X116145696Y-118018394D01*
X116390000Y-118018394D01*
X116390000Y-118327789D01*
X115389581Y-118327789D01*
G37*
G36*
X116056791Y-117217644D02*
G01*
X116038290Y-116923210D01*
X116085485Y-116913787D01*
X116121259Y-116900554D01*
X116147894Y-116884253D01*
X116174268Y-116858183D01*
X116193087Y-116827430D01*
X116204770Y-116791059D01*
X116208893Y-116747660D01*
X116205010Y-116704507D01*
X116194413Y-116671202D01*
X116177997Y-116645566D01*
X116155543Y-116625090D01*
X116131947Y-116613499D01*
X116106372Y-116609663D01*
X116082014Y-116613284D01*
X116059169Y-116624289D01*
X116037069Y-116643796D01*
X116020519Y-116669441D01*
X116001239Y-116718522D01*
X115979366Y-116802309D01*
X115951458Y-116907397D01*
X115921513Y-116988009D01*
X115890313Y-117048476D01*
X115858344Y-117092592D01*
X115817589Y-117131149D01*
X115772604Y-117158100D01*
X115722476Y-117174411D01*
X115665819Y-117180031D01*
X115615862Y-117175128D01*
X115567718Y-117160400D01*
X115520556Y-117135273D01*
X115479289Y-117101512D01*
X115443496Y-117057239D01*
X115413089Y-117000696D01*
X115392782Y-116939414D01*
X115379064Y-116858832D01*
X115373949Y-116754438D01*
X115379295Y-116656342D01*
X115393982Y-116576879D01*
X115416391Y-116512916D01*
X115445512Y-116461774D01*
X115484911Y-116417937D01*
X115534629Y-116383317D01*
X115596529Y-116357687D01*
X115673269Y-116341851D01*
X115690488Y-116633538D01*
X115646717Y-116645035D01*
X115614515Y-116661509D01*
X115591386Y-116682386D01*
X115574854Y-116708883D01*
X115564273Y-116742513D01*
X115560429Y-116785212D01*
X115566767Y-116834754D01*
X115583204Y-116866545D01*
X115608703Y-116887168D01*
X115638525Y-116893839D01*
X115660475Y-116888524D01*
X115681268Y-116871308D01*
X115697798Y-116841190D01*
X115717965Y-116767444D01*
X115750774Y-116631286D01*
X115780123Y-116537730D01*
X115806015Y-116476795D01*
X115839612Y-116421461D01*
X115876430Y-116379573D01*
X115916535Y-116349056D01*
X115961964Y-116326951D01*
X116010862Y-116313610D01*
X116064118Y-116309061D01*
X116126488Y-116315000D01*
X116185096Y-116332639D01*
X116241011Y-116362367D01*
X116290216Y-116402159D01*
X116331006Y-116451384D01*
X116363804Y-116511294D01*
X116385985Y-116576407D01*
X116400414Y-116655867D01*
X116405631Y-116752423D01*
X116400480Y-116861056D01*
X116386496Y-116947116D01*
X116365524Y-117014505D01*
X116338857Y-117066623D01*
X116307140Y-117106270D01*
X116255095Y-117149749D01*
X116196749Y-117182653D01*
X116131102Y-117205377D01*
X116056791Y-117217644D01*
G37*
G36*
X115389581Y-116152074D02*
G01*
X115389581Y-115842679D01*
X115737383Y-115842679D01*
X115737383Y-115504525D01*
X115389581Y-115504525D01*
X115389581Y-115193665D01*
X116390000Y-115193665D01*
X116390000Y-115504525D01*
X115983579Y-115504525D01*
X115983579Y-115842679D01*
X116390000Y-115842679D01*
X116390000Y-116152074D01*
X115389581Y-116152074D01*
G37*
G36*
X116390000Y-114322573D02*
G01*
X116225868Y-114371788D01*
X116225868Y-114724230D01*
X116390000Y-114772773D01*
X116390000Y-115089068D01*
X115389581Y-114712629D01*
X115389581Y-114547337D01*
X115649883Y-114547337D01*
X116010935Y-114657308D01*
X116010935Y-114436695D01*
X115649883Y-114547337D01*
X115389581Y-114547337D01*
X115389581Y-114375207D01*
X116390000Y-113998768D01*
X116390000Y-114322573D01*
G37*
G36*
X115389581Y-114119912D02*
G01*
X115389581Y-113776263D01*
X115726697Y-113574091D01*
X115389581Y-113371857D01*
X115389581Y-113030345D01*
X115971001Y-113419668D01*
X116390000Y-113419668D01*
X116390000Y-113729856D01*
X115971001Y-113729856D01*
X115389581Y-114119912D01*
G37*
D13*
X158686666Y-102234819D02*
X158686666Y-102949104D01*
X158686666Y-102949104D02*
X158639047Y-103091961D01*
X158639047Y-103091961D02*
X158543809Y-103187200D01*
X158543809Y-103187200D02*
X158400952Y-103234819D01*
X158400952Y-103234819D02*
X158305714Y-103234819D01*
X159115238Y-102330057D02*
X159162857Y-102282438D01*
X159162857Y-102282438D02*
X159258095Y-102234819D01*
X159258095Y-102234819D02*
X159496190Y-102234819D01*
X159496190Y-102234819D02*
X159591428Y-102282438D01*
X159591428Y-102282438D02*
X159639047Y-102330057D01*
X159639047Y-102330057D02*
X159686666Y-102425295D01*
X159686666Y-102425295D02*
X159686666Y-102520533D01*
X159686666Y-102520533D02*
X159639047Y-102663390D01*
X159639047Y-102663390D02*
X159067619Y-103234819D01*
X159067619Y-103234819D02*
X159686666Y-103234819D01*
X112851666Y-87524819D02*
X112851666Y-88239104D01*
X112851666Y-88239104D02*
X112804047Y-88381961D01*
X112804047Y-88381961D02*
X112708809Y-88477200D01*
X112708809Y-88477200D02*
X112565952Y-88524819D01*
X112565952Y-88524819D02*
X112470714Y-88524819D01*
X113232619Y-87524819D02*
X113851666Y-87524819D01*
X113851666Y-87524819D02*
X113518333Y-87905771D01*
X113518333Y-87905771D02*
X113661190Y-87905771D01*
X113661190Y-87905771D02*
X113756428Y-87953390D01*
X113756428Y-87953390D02*
X113804047Y-88001009D01*
X113804047Y-88001009D02*
X113851666Y-88096247D01*
X113851666Y-88096247D02*
X113851666Y-88334342D01*
X113851666Y-88334342D02*
X113804047Y-88429580D01*
X113804047Y-88429580D02*
X113756428Y-88477200D01*
X113756428Y-88477200D02*
X113661190Y-88524819D01*
X113661190Y-88524819D02*
X113375476Y-88524819D01*
X113375476Y-88524819D02*
X113280238Y-88477200D01*
X113280238Y-88477200D02*
X113232619Y-88429580D01*
X157411666Y-78609819D02*
X157411666Y-79324104D01*
X157411666Y-79324104D02*
X157364047Y-79466961D01*
X157364047Y-79466961D02*
X157268809Y-79562200D01*
X157268809Y-79562200D02*
X157125952Y-79609819D01*
X157125952Y-79609819D02*
X157030714Y-79609819D01*
X158316428Y-78943152D02*
X158316428Y-79609819D01*
X158078333Y-78562200D02*
X157840238Y-79276485D01*
X157840238Y-79276485D02*
X158459285Y-79276485D01*
X118774819Y-103586666D02*
X118298628Y-103919999D01*
X118774819Y-104158094D02*
X117774819Y-104158094D01*
X117774819Y-104158094D02*
X117774819Y-103777142D01*
X117774819Y-103777142D02*
X117822438Y-103681904D01*
X117822438Y-103681904D02*
X117870057Y-103634285D01*
X117870057Y-103634285D02*
X117965295Y-103586666D01*
X117965295Y-103586666D02*
X118108152Y-103586666D01*
X118108152Y-103586666D02*
X118203390Y-103634285D01*
X118203390Y-103634285D02*
X118251009Y-103681904D01*
X118251009Y-103681904D02*
X118298628Y-103777142D01*
X118298628Y-103777142D02*
X118298628Y-104158094D01*
X117774819Y-103253332D02*
X117774819Y-102634285D01*
X117774819Y-102634285D02*
X118155771Y-102967618D01*
X118155771Y-102967618D02*
X118155771Y-102824761D01*
X118155771Y-102824761D02*
X118203390Y-102729523D01*
X118203390Y-102729523D02*
X118251009Y-102681904D01*
X118251009Y-102681904D02*
X118346247Y-102634285D01*
X118346247Y-102634285D02*
X118584342Y-102634285D01*
X118584342Y-102634285D02*
X118679580Y-102681904D01*
X118679580Y-102681904D02*
X118727200Y-102729523D01*
X118727200Y-102729523D02*
X118774819Y-102824761D01*
X118774819Y-102824761D02*
X118774819Y-103110475D01*
X118774819Y-103110475D02*
X118727200Y-103205713D01*
X118727200Y-103205713D02*
X118679580Y-103253332D01*
X126483095Y-98754819D02*
X126483095Y-99564342D01*
X126483095Y-99564342D02*
X126530714Y-99659580D01*
X126530714Y-99659580D02*
X126578333Y-99707200D01*
X126578333Y-99707200D02*
X126673571Y-99754819D01*
X126673571Y-99754819D02*
X126864047Y-99754819D01*
X126864047Y-99754819D02*
X126959285Y-99707200D01*
X126959285Y-99707200D02*
X127006904Y-99659580D01*
X127006904Y-99659580D02*
X127054523Y-99564342D01*
X127054523Y-99564342D02*
X127054523Y-98754819D01*
X128006904Y-98754819D02*
X127530714Y-98754819D01*
X127530714Y-98754819D02*
X127483095Y-99231009D01*
X127483095Y-99231009D02*
X127530714Y-99183390D01*
X127530714Y-99183390D02*
X127625952Y-99135771D01*
X127625952Y-99135771D02*
X127864047Y-99135771D01*
X127864047Y-99135771D02*
X127959285Y-99183390D01*
X127959285Y-99183390D02*
X128006904Y-99231009D01*
X128006904Y-99231009D02*
X128054523Y-99326247D01*
X128054523Y-99326247D02*
X128054523Y-99564342D01*
X128054523Y-99564342D02*
X128006904Y-99659580D01*
X128006904Y-99659580D02*
X127959285Y-99707200D01*
X127959285Y-99707200D02*
X127864047Y-99754819D01*
X127864047Y-99754819D02*
X127625952Y-99754819D01*
X127625952Y-99754819D02*
X127530714Y-99707200D01*
X127530714Y-99707200D02*
X127483095Y-99659580D01*
X125434819Y-95366904D02*
X126244342Y-95366904D01*
X126244342Y-95366904D02*
X126339580Y-95319285D01*
X126339580Y-95319285D02*
X126387200Y-95271666D01*
X126387200Y-95271666D02*
X126434819Y-95176428D01*
X126434819Y-95176428D02*
X126434819Y-94985952D01*
X126434819Y-94985952D02*
X126387200Y-94890714D01*
X126387200Y-94890714D02*
X126339580Y-94843095D01*
X126339580Y-94843095D02*
X126244342Y-94795476D01*
X126244342Y-94795476D02*
X125434819Y-94795476D01*
X126434819Y-93795476D02*
X126434819Y-94366904D01*
X126434819Y-94081190D02*
X125434819Y-94081190D01*
X125434819Y-94081190D02*
X125577676Y-94176428D01*
X125577676Y-94176428D02*
X125672914Y-94271666D01*
X125672914Y-94271666D02*
X125720533Y-94366904D01*
X132207261Y-129170057D02*
X132112023Y-129122438D01*
X132112023Y-129122438D02*
X132016785Y-129027200D01*
X132016785Y-129027200D02*
X131873928Y-128884342D01*
X131873928Y-128884342D02*
X131778690Y-128836723D01*
X131778690Y-128836723D02*
X131683452Y-128836723D01*
X131731071Y-129074819D02*
X131635833Y-129027200D01*
X131635833Y-129027200D02*
X131540595Y-128931961D01*
X131540595Y-128931961D02*
X131492976Y-128741485D01*
X131492976Y-128741485D02*
X131492976Y-128408152D01*
X131492976Y-128408152D02*
X131540595Y-128217676D01*
X131540595Y-128217676D02*
X131635833Y-128122438D01*
X131635833Y-128122438D02*
X131731071Y-128074819D01*
X131731071Y-128074819D02*
X131921547Y-128074819D01*
X131921547Y-128074819D02*
X132016785Y-128122438D01*
X132016785Y-128122438D02*
X132112023Y-128217676D01*
X132112023Y-128217676D02*
X132159642Y-128408152D01*
X132159642Y-128408152D02*
X132159642Y-128741485D01*
X132159642Y-128741485D02*
X132112023Y-128931961D01*
X132112023Y-128931961D02*
X132016785Y-129027200D01*
X132016785Y-129027200D02*
X131921547Y-129074819D01*
X131921547Y-129074819D02*
X131731071Y-129074819D01*
X133112023Y-129074819D02*
X132540595Y-129074819D01*
X132826309Y-129074819D02*
X132826309Y-128074819D01*
X132826309Y-128074819D02*
X132731071Y-128217676D01*
X132731071Y-128217676D02*
X132635833Y-128312914D01*
X132635833Y-128312914D02*
X132540595Y-128360533D01*
X111818095Y-139646819D02*
X112389523Y-139646819D01*
X112103809Y-140646819D02*
X112103809Y-139646819D01*
X112722857Y-140646819D02*
X112722857Y-139646819D01*
X112722857Y-139646819D02*
X113103809Y-139646819D01*
X113103809Y-139646819D02*
X113199047Y-139694438D01*
X113199047Y-139694438D02*
X113246666Y-139742057D01*
X113246666Y-139742057D02*
X113294285Y-139837295D01*
X113294285Y-139837295D02*
X113294285Y-139980152D01*
X113294285Y-139980152D02*
X113246666Y-140075390D01*
X113246666Y-140075390D02*
X113199047Y-140123009D01*
X113199047Y-140123009D02*
X113103809Y-140170628D01*
X113103809Y-140170628D02*
X112722857Y-140170628D01*
X113675238Y-139742057D02*
X113722857Y-139694438D01*
X113722857Y-139694438D02*
X113818095Y-139646819D01*
X113818095Y-139646819D02*
X114056190Y-139646819D01*
X114056190Y-139646819D02*
X114151428Y-139694438D01*
X114151428Y-139694438D02*
X114199047Y-139742057D01*
X114199047Y-139742057D02*
X114246666Y-139837295D01*
X114246666Y-139837295D02*
X114246666Y-139932533D01*
X114246666Y-139932533D02*
X114199047Y-140075390D01*
X114199047Y-140075390D02*
X113627619Y-140646819D01*
X113627619Y-140646819D02*
X114246666Y-140646819D01*
X162195595Y-92742319D02*
X162195595Y-93551842D01*
X162195595Y-93551842D02*
X162243214Y-93647080D01*
X162243214Y-93647080D02*
X162290833Y-93694700D01*
X162290833Y-93694700D02*
X162386071Y-93742319D01*
X162386071Y-93742319D02*
X162576547Y-93742319D01*
X162576547Y-93742319D02*
X162671785Y-93694700D01*
X162671785Y-93694700D02*
X162719404Y-93647080D01*
X162719404Y-93647080D02*
X162767023Y-93551842D01*
X162767023Y-93551842D02*
X162767023Y-92742319D01*
X163147976Y-92742319D02*
X163767023Y-92742319D01*
X163767023Y-92742319D02*
X163433690Y-93123271D01*
X163433690Y-93123271D02*
X163576547Y-93123271D01*
X163576547Y-93123271D02*
X163671785Y-93170890D01*
X163671785Y-93170890D02*
X163719404Y-93218509D01*
X163719404Y-93218509D02*
X163767023Y-93313747D01*
X163767023Y-93313747D02*
X163767023Y-93551842D01*
X163767023Y-93551842D02*
X163719404Y-93647080D01*
X163719404Y-93647080D02*
X163671785Y-93694700D01*
X163671785Y-93694700D02*
X163576547Y-93742319D01*
X163576547Y-93742319D02*
X163290833Y-93742319D01*
X163290833Y-93742319D02*
X163195595Y-93694700D01*
X163195595Y-93694700D02*
X163147976Y-93647080D01*
X157973095Y-140169819D02*
X157973095Y-140979342D01*
X157973095Y-140979342D02*
X158020714Y-141074580D01*
X158020714Y-141074580D02*
X158068333Y-141122200D01*
X158068333Y-141122200D02*
X158163571Y-141169819D01*
X158163571Y-141169819D02*
X158354047Y-141169819D01*
X158354047Y-141169819D02*
X158449285Y-141122200D01*
X158449285Y-141122200D02*
X158496904Y-141074580D01*
X158496904Y-141074580D02*
X158544523Y-140979342D01*
X158544523Y-140979342D02*
X158544523Y-140169819D01*
X159449285Y-140169819D02*
X159258809Y-140169819D01*
X159258809Y-140169819D02*
X159163571Y-140217438D01*
X159163571Y-140217438D02*
X159115952Y-140265057D01*
X159115952Y-140265057D02*
X159020714Y-140407914D01*
X159020714Y-140407914D02*
X158973095Y-140598390D01*
X158973095Y-140598390D02*
X158973095Y-140979342D01*
X158973095Y-140979342D02*
X159020714Y-141074580D01*
X159020714Y-141074580D02*
X159068333Y-141122200D01*
X159068333Y-141122200D02*
X159163571Y-141169819D01*
X159163571Y-141169819D02*
X159354047Y-141169819D01*
X159354047Y-141169819D02*
X159449285Y-141122200D01*
X159449285Y-141122200D02*
X159496904Y-141074580D01*
X159496904Y-141074580D02*
X159544523Y-140979342D01*
X159544523Y-140979342D02*
X159544523Y-140741247D01*
X159544523Y-140741247D02*
X159496904Y-140646009D01*
X159496904Y-140646009D02*
X159449285Y-140598390D01*
X159449285Y-140598390D02*
X159354047Y-140550771D01*
X159354047Y-140550771D02*
X159163571Y-140550771D01*
X159163571Y-140550771D02*
X159068333Y-140598390D01*
X159068333Y-140598390D02*
X159020714Y-140646009D01*
X159020714Y-140646009D02*
X158973095Y-140741247D01*
X118734819Y-107846666D02*
X118258628Y-108179999D01*
X118734819Y-108418094D02*
X117734819Y-108418094D01*
X117734819Y-108418094D02*
X117734819Y-108037142D01*
X117734819Y-108037142D02*
X117782438Y-107941904D01*
X117782438Y-107941904D02*
X117830057Y-107894285D01*
X117830057Y-107894285D02*
X117925295Y-107846666D01*
X117925295Y-107846666D02*
X118068152Y-107846666D01*
X118068152Y-107846666D02*
X118163390Y-107894285D01*
X118163390Y-107894285D02*
X118211009Y-107941904D01*
X118211009Y-107941904D02*
X118258628Y-108037142D01*
X118258628Y-108037142D02*
X118258628Y-108418094D01*
X117734819Y-107513332D02*
X117734819Y-106846666D01*
X117734819Y-106846666D02*
X118734819Y-107275237D01*
X138362261Y-129160057D02*
X138267023Y-129112438D01*
X138267023Y-129112438D02*
X138171785Y-129017200D01*
X138171785Y-129017200D02*
X138028928Y-128874342D01*
X138028928Y-128874342D02*
X137933690Y-128826723D01*
X137933690Y-128826723D02*
X137838452Y-128826723D01*
X137886071Y-129064819D02*
X137790833Y-129017200D01*
X137790833Y-129017200D02*
X137695595Y-128921961D01*
X137695595Y-128921961D02*
X137647976Y-128731485D01*
X137647976Y-128731485D02*
X137647976Y-128398152D01*
X137647976Y-128398152D02*
X137695595Y-128207676D01*
X137695595Y-128207676D02*
X137790833Y-128112438D01*
X137790833Y-128112438D02*
X137886071Y-128064819D01*
X137886071Y-128064819D02*
X138076547Y-128064819D01*
X138076547Y-128064819D02*
X138171785Y-128112438D01*
X138171785Y-128112438D02*
X138267023Y-128207676D01*
X138267023Y-128207676D02*
X138314642Y-128398152D01*
X138314642Y-128398152D02*
X138314642Y-128731485D01*
X138314642Y-128731485D02*
X138267023Y-128921961D01*
X138267023Y-128921961D02*
X138171785Y-129017200D01*
X138171785Y-129017200D02*
X138076547Y-129064819D01*
X138076547Y-129064819D02*
X137886071Y-129064819D01*
X138695595Y-128160057D02*
X138743214Y-128112438D01*
X138743214Y-128112438D02*
X138838452Y-128064819D01*
X138838452Y-128064819D02*
X139076547Y-128064819D01*
X139076547Y-128064819D02*
X139171785Y-128112438D01*
X139171785Y-128112438D02*
X139219404Y-128160057D01*
X139219404Y-128160057D02*
X139267023Y-128255295D01*
X139267023Y-128255295D02*
X139267023Y-128350533D01*
X139267023Y-128350533D02*
X139219404Y-128493390D01*
X139219404Y-128493390D02*
X138647976Y-129064819D01*
X138647976Y-129064819D02*
X139267023Y-129064819D01*
X126134819Y-86556666D02*
X125658628Y-86889999D01*
X126134819Y-87128094D02*
X125134819Y-87128094D01*
X125134819Y-87128094D02*
X125134819Y-86747142D01*
X125134819Y-86747142D02*
X125182438Y-86651904D01*
X125182438Y-86651904D02*
X125230057Y-86604285D01*
X125230057Y-86604285D02*
X125325295Y-86556666D01*
X125325295Y-86556666D02*
X125468152Y-86556666D01*
X125468152Y-86556666D02*
X125563390Y-86604285D01*
X125563390Y-86604285D02*
X125611009Y-86651904D01*
X125611009Y-86651904D02*
X125658628Y-86747142D01*
X125658628Y-86747142D02*
X125658628Y-87128094D01*
X125230057Y-86175713D02*
X125182438Y-86128094D01*
X125182438Y-86128094D02*
X125134819Y-86032856D01*
X125134819Y-86032856D02*
X125134819Y-85794761D01*
X125134819Y-85794761D02*
X125182438Y-85699523D01*
X125182438Y-85699523D02*
X125230057Y-85651904D01*
X125230057Y-85651904D02*
X125325295Y-85604285D01*
X125325295Y-85604285D02*
X125420533Y-85604285D01*
X125420533Y-85604285D02*
X125563390Y-85651904D01*
X125563390Y-85651904D02*
X126134819Y-86223332D01*
X126134819Y-86223332D02*
X126134819Y-85604285D01*
D14*
%TO.C,J1*%
X143782500Y-146735000D02*
X143782500Y-146995000D01*
X143762500Y-142935000D02*
X143762500Y-144705000D01*
X143762500Y-142935000D02*
X143522500Y-142935000D01*
X136142500Y-147055000D02*
X136142500Y-146795000D01*
X136142500Y-144705000D02*
X136142500Y-142935000D01*
X136142500Y-142935000D02*
X136292500Y-142935000D01*
%TO.C,SW2*%
X127310000Y-143310000D02*
X127310000Y-140810000D01*
X127760000Y-140360000D02*
X127310000Y-140810000D01*
X127760000Y-143760000D02*
X127310000Y-143310000D01*
X129060000Y-139310000D02*
X131060000Y-139310000D01*
X129060000Y-144810000D02*
X131060000Y-144810000D01*
X132360000Y-140360000D02*
X132810000Y-140810000D01*
X132360000Y-143760000D02*
X132810000Y-143310000D01*
X132810000Y-143310000D02*
X132810000Y-140810000D01*
%TO.C,J2*%
X157690000Y-106820000D02*
X157690000Y-124660000D01*
X157690000Y-106820000D02*
X160350000Y-106820000D01*
X157690000Y-124660000D02*
X160350000Y-124660000D01*
X159020000Y-104220000D02*
X160350000Y-104220000D01*
X160350000Y-104220000D02*
X160350000Y-105550000D01*
X160350000Y-106820000D02*
X160350000Y-124660000D01*
%TO.C,D1*%
X111220000Y-81435000D02*
X111220000Y-84525000D01*
X111220000Y-81435170D02*
G75*
G02*
X116770000Y-82980000I2560000J-1544830D01*
G01*
X116770000Y-82980000D02*
G75*
G02*
X111220000Y-84524830I-2990000J0D01*
G01*
X116280000Y-82980000D02*
G75*
G02*
X111280000Y-82980000I-2500000J0D01*
G01*
X111280000Y-82980000D02*
G75*
G02*
X116280000Y-82980000I2500000J0D01*
G01*
%TO.C,SW3*%
X146860000Y-143270000D02*
X146860000Y-140770000D01*
X147310000Y-140320000D02*
X146860000Y-140770000D01*
X147310000Y-143720000D02*
X146860000Y-143270000D01*
X148610000Y-139270000D02*
X150610000Y-139270000D01*
X148610000Y-144770000D02*
X150610000Y-144770000D01*
X151910000Y-140320000D02*
X152360000Y-140770000D01*
X151910000Y-143720000D02*
X152360000Y-143270000D01*
X152360000Y-143270000D02*
X152360000Y-140770000D01*
%TO.C,J3*%
X111855000Y-92110000D02*
X111855000Y-99790000D01*
X111855000Y-92110000D02*
X114515000Y-92110000D01*
X111855000Y-99790000D02*
X114515000Y-99790000D01*
X113185000Y-89510000D02*
X114515000Y-89510000D01*
X114515000Y-89510000D02*
X114515000Y-90840000D01*
X114515000Y-92110000D02*
X114515000Y-99790000D01*
%TO.C,R6*%
X144505000Y-132582936D02*
X144505000Y-133037064D01*
X145975000Y-132582936D02*
X145975000Y-133037064D01*
%TO.C,U2*%
X117290000Y-138270000D02*
X117290000Y-139530000D01*
X117290000Y-145090000D02*
X117290000Y-143830000D01*
X121050000Y-138270000D02*
X117290000Y-138270000D01*
X121050000Y-145090000D02*
X117290000Y-145090000D01*
X122570000Y-145320000D02*
X122090000Y-145320000D01*
X122330000Y-144990000D01*
X122570000Y-145320000D01*
G36*
X122570000Y-145320000D02*
G01*
X122090000Y-145320000D01*
X122330000Y-144990000D01*
X122570000Y-145320000D01*
G37*
%TO.C,C5*%
X149671233Y-78080000D02*
X149963767Y-78080000D01*
X149671233Y-79100000D02*
X149963767Y-79100000D01*
%TO.C,TP1*%
X119040000Y-78850000D02*
G75*
G02*
X117640000Y-78850000I-700000J0D01*
G01*
X117640000Y-78850000D02*
G75*
G02*
X119040000Y-78850000I700000J0D01*
G01*
D15*
%TO.C,J4*%
X154870000Y-84790000D02*
X154870000Y-82790000D01*
X157070000Y-80590000D02*
X159070000Y-80590000D01*
X159070000Y-86990000D02*
X157070000Y-86990000D01*
X161270000Y-82790000D02*
X161270000Y-84790000D01*
D14*
%TO.C,C6*%
X149843767Y-93990000D02*
X149551233Y-93990000D01*
X149843767Y-95010000D02*
X149551233Y-95010000D01*
%TO.C,R3*%
X119235000Y-103647064D02*
X119235000Y-103192936D01*
X120705000Y-103647064D02*
X120705000Y-103192936D01*
%TO.C,Y1*%
X147880000Y-89070000D02*
X147880000Y-92490000D01*
X147880000Y-92490000D02*
X152000000Y-92490000D01*
D15*
%TO.C,U5*%
X123770000Y-100270000D02*
X149770000Y-100270000D01*
X123770000Y-126270000D02*
X123770000Y-100270000D01*
X129770000Y-124270000D02*
X129770000Y-126270000D01*
X129770000Y-126270000D02*
X123770000Y-126270000D01*
X143770000Y-124270000D02*
X129770000Y-124270000D01*
X143770000Y-126270000D02*
X143770000Y-124270000D01*
X149770000Y-100270000D02*
X149770000Y-126270000D01*
X149770000Y-126270000D02*
X143770000Y-126270000D01*
D16*
X132870000Y-99770000D02*
G75*
G02*
X132670000Y-99770000I-100000J0D01*
G01*
X132670000Y-99770000D02*
G75*
G02*
X132870000Y-99770000I100000J0D01*
G01*
D14*
%TO.C,C1*%
X110970000Y-133203000D02*
X110970000Y-132637000D01*
X111010000Y-133437000D02*
X111010000Y-132403000D01*
X111050000Y-133597000D02*
X111050000Y-132243000D01*
X111090000Y-133725000D02*
X111090000Y-132115000D01*
X111130000Y-133834000D02*
X111130000Y-132006000D01*
X111170000Y-133931000D02*
X111170000Y-131909000D01*
X111210000Y-134018000D02*
X111210000Y-131822000D01*
X111250000Y-134097000D02*
X111250000Y-131743000D01*
X111290000Y-134171000D02*
X111290000Y-131669000D01*
X111330000Y-134239000D02*
X111330000Y-131601000D01*
X111370000Y-134303000D02*
X111370000Y-131537000D01*
X111410000Y-134363000D02*
X111410000Y-131477000D01*
X111450000Y-134419000D02*
X111450000Y-131421000D01*
X111490000Y-134473000D02*
X111490000Y-131367000D01*
X111530000Y-134524000D02*
X111530000Y-131316000D01*
X111570000Y-131880000D02*
X111570000Y-131268000D01*
X111570000Y-134572000D02*
X111570000Y-133960000D01*
X111610000Y-131880000D02*
X111610000Y-131221000D01*
X111610000Y-134619000D02*
X111610000Y-133960000D01*
X111650000Y-131880000D02*
X111650000Y-131177000D01*
X111650000Y-134663000D02*
X111650000Y-133960000D01*
X111690000Y-131880000D02*
X111690000Y-131135000D01*
X111690000Y-134705000D02*
X111690000Y-133960000D01*
X111730000Y-131880000D02*
X111730000Y-131095000D01*
X111730000Y-134745000D02*
X111730000Y-133960000D01*
X111770000Y-131880000D02*
X111770000Y-131056000D01*
X111770000Y-134784000D02*
X111770000Y-133960000D01*
X111810000Y-131880000D02*
X111810000Y-131019000D01*
X111810000Y-134821000D02*
X111810000Y-133960000D01*
X111850000Y-131880000D02*
X111850000Y-130984000D01*
X111850000Y-134856000D02*
X111850000Y-133960000D01*
X111890000Y-131880000D02*
X111890000Y-130950000D01*
X111890000Y-134890000D02*
X111890000Y-133960000D01*
X111930000Y-131880000D02*
X111930000Y-130917000D01*
X111930000Y-134923000D02*
X111930000Y-133960000D01*
X111970000Y-131880000D02*
X111970000Y-130885000D01*
X111970000Y-134955000D02*
X111970000Y-133960000D01*
X112010000Y-131880000D02*
X112010000Y-130855000D01*
X112010000Y-134985000D02*
X112010000Y-133960000D01*
X112050000Y-131880000D02*
X112050000Y-130826000D01*
X112050000Y-135014000D02*
X112050000Y-133960000D01*
X112090000Y-131880000D02*
X112090000Y-130798000D01*
X112090000Y-135042000D02*
X112090000Y-133960000D01*
X112130000Y-131880000D02*
X112130000Y-130771000D01*
X112130000Y-135069000D02*
X112130000Y-133960000D01*
X112170000Y-131880000D02*
X112170000Y-130745000D01*
X112170000Y-135095000D02*
X112170000Y-133960000D01*
X112210000Y-131880000D02*
X112210000Y-130721000D01*
X112210000Y-135119000D02*
X112210000Y-133960000D01*
X112250000Y-131880000D02*
X112250000Y-130697000D01*
X112250000Y-135143000D02*
X112250000Y-133960000D01*
X112290000Y-131880000D02*
X112290000Y-130674000D01*
X112290000Y-135166000D02*
X112290000Y-133960000D01*
X112330000Y-131880000D02*
X112330000Y-130652000D01*
X112330000Y-135188000D02*
X112330000Y-133960000D01*
X112370000Y-131880000D02*
X112370000Y-130631000D01*
X112370000Y-135209000D02*
X112370000Y-133960000D01*
X112410000Y-131880000D02*
X112410000Y-130611000D01*
X112410000Y-135229000D02*
X112410000Y-133960000D01*
X112450000Y-131880000D02*
X112450000Y-130591000D01*
X112450000Y-135249000D02*
X112450000Y-133960000D01*
X112490000Y-131880000D02*
X112490000Y-130573000D01*
X112490000Y-135267000D02*
X112490000Y-133960000D01*
X112530000Y-131880000D02*
X112530000Y-130555000D01*
X112530000Y-135285000D02*
X112530000Y-133960000D01*
X112570000Y-131880000D02*
X112570000Y-130538000D01*
X112570000Y-135302000D02*
X112570000Y-133960000D01*
X112610000Y-131880000D02*
X112610000Y-130522000D01*
X112610000Y-135318000D02*
X112610000Y-133960000D01*
X112650000Y-131880000D02*
X112650000Y-130507000D01*
X112650000Y-135333000D02*
X112650000Y-133960000D01*
X112690000Y-131880000D02*
X112690000Y-130492000D01*
X112690000Y-135348000D02*
X112690000Y-133960000D01*
X112730000Y-131880000D02*
X112730000Y-130478000D01*
X112730000Y-135362000D02*
X112730000Y-133960000D01*
X112770000Y-131880000D02*
X112770000Y-130465000D01*
X112770000Y-135375000D02*
X112770000Y-133960000D01*
X112810000Y-131880000D02*
X112810000Y-130453000D01*
X112810000Y-135387000D02*
X112810000Y-133960000D01*
X112850000Y-131880000D02*
X112850000Y-130441000D01*
X112850000Y-135399000D02*
X112850000Y-133960000D01*
X112890000Y-131880000D02*
X112890000Y-130430000D01*
X112890000Y-135410000D02*
X112890000Y-133960000D01*
X112930000Y-131880000D02*
X112930000Y-130419000D01*
X112930000Y-135421000D02*
X112930000Y-133960000D01*
X112970000Y-131880000D02*
X112970000Y-130410000D01*
X112970000Y-135430000D02*
X112970000Y-133960000D01*
X113010000Y-131880000D02*
X113010000Y-130401000D01*
X113010000Y-135439000D02*
X113010000Y-133960000D01*
X113050000Y-131880000D02*
X113050000Y-130392000D01*
X113050000Y-135448000D02*
X113050000Y-133960000D01*
X113090000Y-131880000D02*
X113090000Y-130384000D01*
X113090000Y-135456000D02*
X113090000Y-133960000D01*
X113130000Y-131880000D02*
X113130000Y-130377000D01*
X113130000Y-135463000D02*
X113130000Y-133960000D01*
X113170000Y-131880000D02*
X113170000Y-130371000D01*
X113170000Y-135469000D02*
X113170000Y-133960000D01*
X113210000Y-131880000D02*
X113210000Y-130365000D01*
X113210000Y-135475000D02*
X113210000Y-133960000D01*
X113250000Y-131880000D02*
X113250000Y-130360000D01*
X113250000Y-135480000D02*
X113250000Y-133960000D01*
X113290000Y-131880000D02*
X113290000Y-130355000D01*
X113290000Y-135485000D02*
X113290000Y-133960000D01*
X113330000Y-131880000D02*
X113330000Y-130351000D01*
X113330000Y-135489000D02*
X113330000Y-133960000D01*
X113370000Y-131880000D02*
X113370000Y-130348000D01*
X113370000Y-135492000D02*
X113370000Y-133960000D01*
X113410000Y-131880000D02*
X113410000Y-130345000D01*
X113410000Y-135495000D02*
X113410000Y-133960000D01*
X113450000Y-131880000D02*
X113450000Y-130343000D01*
X113450000Y-135497000D02*
X113450000Y-133960000D01*
X113490000Y-131880000D02*
X113490000Y-130341000D01*
X113490000Y-135499000D02*
X113490000Y-133960000D01*
X113530000Y-131880000D02*
X113530000Y-130340000D01*
X113530000Y-135500000D02*
X113530000Y-133960000D01*
X113570000Y-131880000D02*
X113570000Y-130340000D01*
X113570000Y-135500000D02*
X113570000Y-133960000D01*
X116124775Y-134645000D02*
X116124775Y-134145000D01*
X116374775Y-134395000D02*
X115874775Y-134395000D01*
X116190000Y-132920000D02*
G75*
G02*
X110950000Y-132920000I-2620000J0D01*
G01*
X110950000Y-132920000D02*
G75*
G02*
X116190000Y-132920000I2620000J0D01*
G01*
D15*
%TO.C,U4*%
X149660000Y-80630000D02*
X152260000Y-80630000D01*
X149660000Y-83400000D02*
X152260000Y-83400000D01*
D16*
X152610000Y-81015000D02*
G75*
G02*
X152510000Y-81015000I-50000J0D01*
G01*
X152510000Y-81015000D02*
G75*
G02*
X152610000Y-81015000I50000J0D01*
G01*
D14*
%TO.C,C7*%
X149863767Y-86430000D02*
X149571233Y-86430000D01*
X149863767Y-87450000D02*
X149571233Y-87450000D01*
%TO.C,C3*%
X123793733Y-81990000D02*
X124086267Y-81990000D01*
X123793733Y-83010000D02*
X124086267Y-83010000D01*
%TO.C,U1*%
X127470000Y-70315000D02*
X127470000Y-76085000D01*
X127470000Y-70315000D02*
X145710000Y-70315000D01*
X127470000Y-95275000D02*
X127470000Y-96055000D01*
X127470000Y-96055000D02*
X128470000Y-96055000D01*
X145710000Y-70315000D02*
X145710000Y-76085000D01*
X145710000Y-95275000D02*
X145710000Y-96055000D01*
X145710000Y-96055000D02*
X144710000Y-96055000D01*
X127465000Y-77200000D02*
X126965000Y-77200000D01*
X127465000Y-76700000D01*
X127465000Y-77200000D01*
G36*
X127465000Y-77200000D02*
G01*
X126965000Y-77200000D01*
X127465000Y-76700000D01*
X127465000Y-77200000D01*
G37*
%TO.C,R4*%
X118535000Y-83537064D02*
X118535000Y-83082936D01*
X120005000Y-83537064D02*
X120005000Y-83082936D01*
%TO.C,Q1*%
X132302500Y-129460000D02*
X131652500Y-129460000D01*
X132302500Y-129460000D02*
X132952500Y-129460000D01*
X132302500Y-132580000D02*
X131652500Y-132580000D01*
X132302500Y-132580000D02*
X132952500Y-132580000D01*
X131140000Y-129510000D02*
X130900000Y-129180000D01*
X131380000Y-129180000D01*
X131140000Y-129510000D01*
G36*
X131140000Y-129510000D02*
G01*
X130900000Y-129180000D01*
X131380000Y-129180000D01*
X131140000Y-129510000D01*
G37*
%TO.C,TP2*%
X113780000Y-141640000D02*
G75*
G02*
X112380000Y-141640000I-700000J0D01*
G01*
X112380000Y-141640000D02*
G75*
G02*
X113780000Y-141640000I700000J0D01*
G01*
%TO.C,U3*%
X156180000Y-91452500D02*
X156180000Y-91217500D01*
X156180000Y-95197500D02*
X156180000Y-94722500D01*
X156655000Y-90977500D02*
X156480000Y-90977500D01*
X156655000Y-95197500D02*
X156180000Y-95197500D01*
X159925000Y-90977500D02*
X160400000Y-90977500D01*
X159925000Y-95197500D02*
X160400000Y-95197500D01*
X160400000Y-90977500D02*
X160400000Y-91452500D01*
X160400000Y-95197500D02*
X160400000Y-94722500D01*
X156180000Y-90977500D02*
X155940000Y-90647500D01*
X156420000Y-90647500D01*
X156180000Y-90977500D01*
G36*
X156180000Y-90977500D02*
G01*
X155940000Y-90647500D01*
X156420000Y-90647500D01*
X156180000Y-90977500D01*
G37*
%TO.C,C4*%
X124076267Y-80190000D02*
X123783733Y-80190000D01*
X124076267Y-81210000D02*
X123783733Y-81210000D01*
%TO.C,U6*%
X158735000Y-129755000D02*
X156785000Y-129755000D01*
X158735000Y-129755000D02*
X160685000Y-129755000D01*
X158735000Y-139875000D02*
X156785000Y-139875000D01*
X158735000Y-139875000D02*
X160685000Y-139875000D01*
X161675000Y-140150000D02*
X161195000Y-140150000D01*
X161435000Y-139820000D01*
X161675000Y-140150000D01*
G36*
X161675000Y-140150000D02*
G01*
X161195000Y-140150000D01*
X161435000Y-139820000D01*
X161675000Y-140150000D01*
G37*
%TO.C,R1*%
X149512936Y-96085000D02*
X149967064Y-96085000D01*
X149512936Y-97555000D02*
X149967064Y-97555000D01*
%TO.C,R5*%
X141995000Y-135832936D02*
X141995000Y-136287064D01*
X143465000Y-135832936D02*
X143465000Y-136287064D01*
%TO.C,R7*%
X119195000Y-107907064D02*
X119195000Y-107452936D01*
X120665000Y-107907064D02*
X120665000Y-107452936D01*
%TO.C,Q2*%
X138457500Y-129450000D02*
X137807500Y-129450000D01*
X138457500Y-129450000D02*
X139107500Y-129450000D01*
X138457500Y-132570000D02*
X137807500Y-132570000D01*
X138457500Y-132570000D02*
X139107500Y-132570000D01*
X137295000Y-129500000D02*
X137055000Y-129170000D01*
X137535000Y-129170000D01*
X137295000Y-129500000D01*
G36*
X137295000Y-129500000D02*
G01*
X137055000Y-129170000D01*
X137535000Y-129170000D01*
X137295000Y-129500000D01*
G37*
%TO.C,R2*%
X123295000Y-86162936D02*
X123295000Y-86617064D01*
X124765000Y-86162936D02*
X124765000Y-86617064D01*
%TO.C,C2*%
X121375225Y-131525000D02*
X121875225Y-131525000D01*
X121625225Y-131275000D02*
X121625225Y-131775000D01*
X124180000Y-130420000D02*
X124180000Y-131960000D01*
X124180000Y-134040000D02*
X124180000Y-135580000D01*
X124220000Y-130420000D02*
X124220000Y-131960000D01*
X124220000Y-134040000D02*
X124220000Y-135580000D01*
X124260000Y-130421000D02*
X124260000Y-131960000D01*
X124260000Y-134040000D02*
X124260000Y-135579000D01*
X124300000Y-130423000D02*
X124300000Y-131960000D01*
X124300000Y-134040000D02*
X124300000Y-135577000D01*
X124340000Y-130425000D02*
X124340000Y-131960000D01*
X124340000Y-134040000D02*
X124340000Y-135575000D01*
X124380000Y-130428000D02*
X124380000Y-131960000D01*
X124380000Y-134040000D02*
X124380000Y-135572000D01*
X124420000Y-130431000D02*
X124420000Y-131960000D01*
X124420000Y-134040000D02*
X124420000Y-135569000D01*
X124460000Y-130435000D02*
X124460000Y-131960000D01*
X124460000Y-134040000D02*
X124460000Y-135565000D01*
X124500000Y-130440000D02*
X124500000Y-131960000D01*
X124500000Y-134040000D02*
X124500000Y-135560000D01*
X124540000Y-130445000D02*
X124540000Y-131960000D01*
X124540000Y-134040000D02*
X124540000Y-135555000D01*
X124580000Y-130451000D02*
X124580000Y-131960000D01*
X124580000Y-134040000D02*
X124580000Y-135549000D01*
X124620000Y-130457000D02*
X124620000Y-131960000D01*
X124620000Y-134040000D02*
X124620000Y-135543000D01*
X124660000Y-130464000D02*
X124660000Y-131960000D01*
X124660000Y-134040000D02*
X124660000Y-135536000D01*
X124700000Y-130472000D02*
X124700000Y-131960000D01*
X124700000Y-134040000D02*
X124700000Y-135528000D01*
X124740000Y-130481000D02*
X124740000Y-131960000D01*
X124740000Y-134040000D02*
X124740000Y-135519000D01*
X124780000Y-130490000D02*
X124780000Y-131960000D01*
X124780000Y-134040000D02*
X124780000Y-135510000D01*
X124820000Y-130499000D02*
X124820000Y-131960000D01*
X124820000Y-134040000D02*
X124820000Y-135501000D01*
X124860000Y-130510000D02*
X124860000Y-131960000D01*
X124860000Y-134040000D02*
X124860000Y-135490000D01*
X124900000Y-130521000D02*
X124900000Y-131960000D01*
X124900000Y-134040000D02*
X124900000Y-135479000D01*
X124940000Y-130533000D02*
X124940000Y-131960000D01*
X124940000Y-134040000D02*
X124940000Y-135467000D01*
X124980000Y-130545000D02*
X124980000Y-131960000D01*
X124980000Y-134040000D02*
X124980000Y-135455000D01*
X125020000Y-130558000D02*
X125020000Y-131960000D01*
X125020000Y-134040000D02*
X125020000Y-135442000D01*
X125060000Y-130572000D02*
X125060000Y-131960000D01*
X125060000Y-134040000D02*
X125060000Y-135428000D01*
X125100000Y-130587000D02*
X125100000Y-131960000D01*
X125100000Y-134040000D02*
X125100000Y-135413000D01*
X125140000Y-130602000D02*
X125140000Y-131960000D01*
X125140000Y-134040000D02*
X125140000Y-135398000D01*
X125180000Y-130618000D02*
X125180000Y-131960000D01*
X125180000Y-134040000D02*
X125180000Y-135382000D01*
X125220000Y-130635000D02*
X125220000Y-131960000D01*
X125220000Y-134040000D02*
X125220000Y-135365000D01*
X125260000Y-130653000D02*
X125260000Y-131960000D01*
X125260000Y-134040000D02*
X125260000Y-135347000D01*
X125300000Y-130671000D02*
X125300000Y-131960000D01*
X125300000Y-134040000D02*
X125300000Y-135329000D01*
X125340000Y-130691000D02*
X125340000Y-131960000D01*
X125340000Y-134040000D02*
X125340000Y-135309000D01*
X125380000Y-130711000D02*
X125380000Y-131960000D01*
X125380000Y-134040000D02*
X125380000Y-135289000D01*
X125420000Y-130732000D02*
X125420000Y-131960000D01*
X125420000Y-134040000D02*
X125420000Y-135268000D01*
X125460000Y-130754000D02*
X125460000Y-131960000D01*
X125460000Y-134040000D02*
X125460000Y-135246000D01*
X125500000Y-130777000D02*
X125500000Y-131960000D01*
X125500000Y-134040000D02*
X125500000Y-135223000D01*
X125540000Y-130801000D02*
X125540000Y-131960000D01*
X125540000Y-134040000D02*
X125540000Y-135199000D01*
X125580000Y-130825000D02*
X125580000Y-131960000D01*
X125580000Y-134040000D02*
X125580000Y-135175000D01*
X125620000Y-130851000D02*
X125620000Y-131960000D01*
X125620000Y-134040000D02*
X125620000Y-135149000D01*
X125660000Y-130878000D02*
X125660000Y-131960000D01*
X125660000Y-134040000D02*
X125660000Y-135122000D01*
X125700000Y-130906000D02*
X125700000Y-131960000D01*
X125700000Y-134040000D02*
X125700000Y-135094000D01*
X125740000Y-130935000D02*
X125740000Y-131960000D01*
X125740000Y-134040000D02*
X125740000Y-135065000D01*
X125780000Y-130965000D02*
X125780000Y-131960000D01*
X125780000Y-134040000D02*
X125780000Y-135035000D01*
X125820000Y-130997000D02*
X125820000Y-131960000D01*
X125820000Y-134040000D02*
X125820000Y-135003000D01*
X125860000Y-131030000D02*
X125860000Y-131960000D01*
X125860000Y-134040000D02*
X125860000Y-134970000D01*
X125900000Y-131064000D02*
X125900000Y-131960000D01*
X125900000Y-134040000D02*
X125900000Y-134936000D01*
X125940000Y-131099000D02*
X125940000Y-131960000D01*
X125940000Y-134040000D02*
X125940000Y-134901000D01*
X125980000Y-131136000D02*
X125980000Y-131960000D01*
X125980000Y-134040000D02*
X125980000Y-134864000D01*
X126020000Y-131175000D02*
X126020000Y-131960000D01*
X126020000Y-134040000D02*
X126020000Y-134825000D01*
X126060000Y-131215000D02*
X126060000Y-131960000D01*
X126060000Y-134040000D02*
X126060000Y-134785000D01*
X126100000Y-131257000D02*
X126100000Y-131960000D01*
X126100000Y-134040000D02*
X126100000Y-134743000D01*
X126140000Y-131301000D02*
X126140000Y-131960000D01*
X126140000Y-134040000D02*
X126140000Y-134699000D01*
X126180000Y-131348000D02*
X126180000Y-131960000D01*
X126180000Y-134040000D02*
X126180000Y-134652000D01*
X126220000Y-131396000D02*
X126220000Y-134604000D01*
X126260000Y-131447000D02*
X126260000Y-134553000D01*
X126300000Y-131501000D02*
X126300000Y-134499000D01*
X126340000Y-131557000D02*
X126340000Y-134443000D01*
X126380000Y-131617000D02*
X126380000Y-134383000D01*
X126420000Y-131681000D02*
X126420000Y-134319000D01*
X126460000Y-131749000D02*
X126460000Y-134251000D01*
X126500000Y-131823000D02*
X126500000Y-134177000D01*
X126540000Y-131902000D02*
X126540000Y-134098000D01*
X126580000Y-131989000D02*
X126580000Y-134011000D01*
X126620000Y-132086000D02*
X126620000Y-133914000D01*
X126660000Y-132195000D02*
X126660000Y-133805000D01*
X126700000Y-132323000D02*
X126700000Y-133677000D01*
X126740000Y-132483000D02*
X126740000Y-133517000D01*
X126780000Y-132717000D02*
X126780000Y-133283000D01*
X126800000Y-133000000D02*
G75*
G02*
X121560000Y-133000000I-2620000J0D01*
G01*
X121560000Y-133000000D02*
G75*
G02*
X126800000Y-133000000I2620000J0D01*
G01*
%TD*%
M02*
