%TF.GenerationSoftware,KiCad,Pcbnew,9.0.3*%
%TF.CreationDate,2025-07-13T04:30:12+05:30*%
%TF.ProjectId,Smart_Env_Monitoring_Node,536d6172-745f-4456-9e76-5f4d6f6e6974,rev?*%
%TF.SameCoordinates,Original*%
%TF.FileFunction,Copper,L2,Bot*%
%TF.FilePolarity,Positive*%
%FSLAX46Y46*%
G04 Gerber Fmt 4.6, Leading zero omitted, Abs format (unit mm)*
G04 Created by KiCad (PCBNEW 9.0.3) date 2025-07-13 04:30:12*
%MOMM*%
%LPD*%
G01*
G04 APERTURE LIST*
G04 Aperture macros list*
%AMRoundRect*
0 Rectangle with rounded corners*
0 $1 Rounding radius*
0 $2 $3 $4 $5 $6 $7 $8 $9 X,Y pos of 4 corners*
0 Add a 4 corners polygon primitive as box body*
4,1,4,$2,$3,$4,$5,$6,$7,$8,$9,$2,$3,0*
0 Add four circle primitives for the rounded corners*
1,1,$1+$1,$2,$3*
1,1,$1+$1,$4,$5*
1,1,$1+$1,$6,$7*
1,1,$1+$1,$8,$9*
0 Add four rect primitives between the rounded corners*
20,1,$1+$1,$2,$3,$4,$5,0*
20,1,$1+$1,$4,$5,$6,$7,0*
20,1,$1+$1,$6,$7,$8,$9,0*
20,1,$1+$1,$8,$9,$2,$3,0*%
G04 Aperture macros list end*
%TA.AperFunction,ComponentPad*%
%ADD10R,1.700000X1.700000*%
%TD*%
%TA.AperFunction,ComponentPad*%
%ADD11C,1.700000*%
%TD*%
%TA.AperFunction,ComponentPad*%
%ADD12R,1.800000X1.800000*%
%TD*%
%TA.AperFunction,ComponentPad*%
%ADD13C,1.800000*%
%TD*%
%TA.AperFunction,ComponentPad*%
%ADD14C,1.508000*%
%TD*%
%TA.AperFunction,ComponentPad*%
%ADD15C,1.920000*%
%TD*%
%TA.AperFunction,ComponentPad*%
%ADD16R,1.508000X1.508000*%
%TD*%
%TA.AperFunction,ComponentPad*%
%ADD17C,3.000000*%
%TD*%
%TA.AperFunction,ComponentPad*%
%ADD18RoundRect,0.250000X0.550000X0.550000X-0.550000X0.550000X-0.550000X-0.550000X0.550000X-0.550000X0*%
%TD*%
%TA.AperFunction,ComponentPad*%
%ADD19C,1.600000*%
%TD*%
%TA.AperFunction,HeatsinkPad*%
%ADD20C,0.640000*%
%TD*%
%TA.AperFunction,ComponentPad*%
%ADD21RoundRect,0.250000X-0.550000X-0.550000X0.550000X-0.550000X0.550000X0.550000X-0.550000X0.550000X0*%
%TD*%
%TA.AperFunction,ViaPad*%
%ADD22C,0.600000*%
%TD*%
%TA.AperFunction,Conductor*%
%ADD23C,0.800000*%
%TD*%
%TA.AperFunction,Conductor*%
%ADD24C,0.300000*%
%TD*%
G04 APERTURE END LIST*
D10*
%TO.P,J2,1,Pin_1*%
%TO.N,/GND*%
X159020000Y-105550000D03*
D11*
%TO.P,J2,2,Pin_2*%
%TO.N,/IO2*%
X159020000Y-108090000D03*
%TO.P,J2,3,Pin_3*%
%TO.N,/IO4*%
X159020000Y-110630000D03*
%TO.P,J2,4,Pin_4*%
%TO.N,/IO5*%
X159020000Y-113170000D03*
%TO.P,J2,5,Pin_5*%
%TO.N,/IO12*%
X159020000Y-115710000D03*
%TO.P,J2,6,Pin_6*%
%TO.N,/IO13*%
X159020000Y-118250000D03*
%TO.P,J2,7,Pin_7*%
%TO.N,/IO15*%
X159020000Y-120790000D03*
%TO.P,J2,8,Pin_8*%
%TO.N,/IO16*%
X159020000Y-123330000D03*
%TD*%
D12*
%TO.P,D1,1,K*%
%TO.N,/GND*%
X112650000Y-83000000D03*
D13*
%TO.P,D1,2,A*%
%TO.N,Net-(D1-A)*%
X115050000Y-82980000D03*
%TD*%
D10*
%TO.P,J3,1,Pin_1*%
%TO.N,/GND*%
X113185000Y-90840000D03*
D11*
%TO.P,J3,2,Pin_2*%
%TO.N,/3.3V*%
X113185000Y-93380000D03*
%TO.P,J3,3,Pin_3*%
%TO.N,/SDA*%
X113185000Y-95920000D03*
%TO.P,J3,4,Pin_4*%
%TO.N,/SCL*%
X113185000Y-98460000D03*
%TD*%
D14*
%TO.P,J4,1*%
%TO.N,/RFO*%
X158070000Y-83790000D03*
D15*
%TO.P,J4,G1*%
%TO.N,/GND*%
X155670000Y-81390000D03*
%TO.P,J4,G2*%
X155670000Y-86190000D03*
%TO.P,J4,G3*%
X160470000Y-86190000D03*
%TO.P,J4,G4*%
X160470000Y-81390000D03*
%TD*%
D16*
%TO.P,U5,1,GND*%
%TO.N,/GND*%
X132960000Y-101770000D03*
D14*
%TO.P,U5,2,VCC_IN*%
%TO.N,/3.3V*%
X135500000Y-101770000D03*
%TO.P,U5,3,SCL*%
%TO.N,/SCL*%
X138040000Y-101770000D03*
%TO.P,U5,4,SDA*%
%TO.N,/SDA*%
X140580000Y-101770000D03*
D17*
%TO.P,U5,S1*%
%TO.N,N/C*%
X125770000Y-102270000D03*
%TO.P,U5,S2*%
X147770000Y-102270000D03*
%TO.P,U5,S3*%
X147770000Y-124270000D03*
%TO.P,U5,S4*%
X125770000Y-124270000D03*
%TD*%
D18*
%TO.P,C1,1*%
%TO.N,/3.3V*%
X114570000Y-132920000D03*
D19*
%TO.P,C1,2*%
%TO.N,/GND*%
X112570000Y-132920000D03*
%TD*%
D20*
%TO.P,U1,39,GND*%
%TO.N,/GND*%
X134385000Y-84502500D03*
X134385000Y-86027500D03*
X135147500Y-83740000D03*
X135147500Y-85265000D03*
X135147500Y-86790000D03*
X135910000Y-84502500D03*
X135910000Y-86027500D03*
X136672500Y-83740000D03*
X136672500Y-85265000D03*
X136672500Y-86790000D03*
X137435000Y-84502500D03*
X137435000Y-86027500D03*
%TD*%
D21*
%TO.P,C2,1*%
%TO.N,/VIN*%
X123180000Y-133000000D03*
D19*
%TO.P,C2,2*%
%TO.N,/GND*%
X125180000Y-133000000D03*
%TD*%
D22*
%TO.N,/3.3V*%
X132690000Y-90530000D03*
X131550000Y-117460000D03*
X154440000Y-100530000D03*
X134940000Y-81560000D03*
X136070000Y-120370000D03*
X147050000Y-80970000D03*
X153090000Y-90530000D03*
X147450000Y-78960000D03*
%TO.N,/GND*%
X148890000Y-81690000D03*
X153650000Y-81230000D03*
X121420000Y-80940000D03*
X148800000Y-88410000D03*
X152134426Y-92086500D03*
X154320000Y-96450000D03*
X127391200Y-134443400D03*
%TO.N,/VIN*%
X136370000Y-137010000D03*
X153660000Y-141710000D03*
X125930000Y-137010000D03*
%TO.N,Net-(U3-XTB)*%
X154350000Y-91380000D03*
X154680000Y-93570000D03*
%TO.N,/D-*%
X159334400Y-137882300D03*
X139130000Y-139640000D03*
%TO.N,/D+*%
X139049200Y-137493800D03*
X159656500Y-134740200D03*
%TO.N,/IO12*%
X129620000Y-99404300D03*
%TO.N,/IO4*%
X144333500Y-105795200D03*
%TO.N,/IO13*%
X134230000Y-105290000D03*
%TO.N,/IO2*%
X141280400Y-98494900D03*
%TO.N,/IO15*%
X139450000Y-116450000D03*
%TO.N,/SCL*%
X121394400Y-98460000D03*
%TO.N,Net-(Q1-C)*%
X141342100Y-135256300D03*
X133247200Y-134443400D03*
%TO.N,/RXD*%
X162670000Y-98850000D03*
X143490000Y-82330000D03*
X141290000Y-86590000D03*
X141530000Y-94400000D03*
%TO.N,/MISO*%
X146833700Y-85473500D03*
X162880000Y-93880000D03*
X150490000Y-88380000D03*
X157000000Y-88410000D03*
%TO.N,/BUSY*%
X151560000Y-102000000D03*
X129690000Y-90333500D03*
%TO.N,/RESET*%
X151570000Y-104610000D03*
X129560000Y-92880000D03*
%TO.N,/TXD*%
X143287900Y-83621800D03*
X163609000Y-88659000D03*
%TO.N,/SCK*%
X160230000Y-89770000D03*
X148127600Y-85283800D03*
%TO.N,/DIO1*%
X161110000Y-95540000D03*
X137735000Y-92075000D03*
%TO.N,/NSS*%
X136040000Y-93650000D03*
X152360000Y-93920000D03*
X155140000Y-94360000D03*
X159060000Y-90130000D03*
%TO.N,/IO5*%
X154560000Y-120110000D03*
X146710000Y-89500000D03*
X131480000Y-111710000D03*
X122920000Y-94990000D03*
X152720000Y-121980000D03*
X156000000Y-118970000D03*
X127390000Y-111550000D03*
X134230000Y-112720000D03*
%TD*%
D23*
%TO.N,/3.3V*%
X158700000Y-100530000D02*
X163360000Y-105190000D01*
D24*
X146430000Y-81590000D02*
X134970000Y-81590000D01*
D23*
X143810000Y-128110000D02*
X136070000Y-120370000D01*
D24*
X147450000Y-80570000D02*
X147450000Y-78960000D01*
X146430000Y-81590000D02*
X147050000Y-80970000D01*
D23*
X114570000Y-123280000D02*
X114570000Y-132920000D01*
X163360000Y-105190000D02*
X163360000Y-123580000D01*
X158830000Y-128110000D02*
X143810000Y-128110000D01*
D24*
X147450000Y-78960000D02*
X147450000Y-78950000D01*
D23*
X163360000Y-123580000D02*
X158830000Y-128110000D01*
D24*
X147050000Y-80970000D02*
X147450000Y-80570000D01*
D23*
X131550000Y-117460000D02*
X120390000Y-117460000D01*
X154440000Y-100530000D02*
X158700000Y-100530000D01*
X153090000Y-90530000D02*
X132690000Y-90530000D01*
X120390000Y-117460000D02*
X114570000Y-123280000D01*
D24*
X134970000Y-81590000D02*
X134940000Y-81560000D01*
D23*
%TO.N,/GND*%
X132960000Y-128874600D02*
X132960000Y-101770000D01*
X153810000Y-81390000D02*
X153650000Y-81230000D01*
X127391200Y-134443400D02*
X132960000Y-128874600D01*
X155670000Y-81390000D02*
X153810000Y-81390000D01*
%TO.N,/VIN*%
X153660000Y-141710000D02*
X138260000Y-141710000D01*
X134830000Y-138280000D02*
X134830000Y-137010000D01*
X125930000Y-137010000D02*
X133560000Y-137010000D01*
X133560000Y-137010000D02*
X134830000Y-137010000D01*
X138260000Y-141710000D02*
X134830000Y-138280000D01*
X134830000Y-137010000D02*
X136370000Y-137010000D01*
D24*
%TO.N,Net-(U3-XTB)*%
X154680000Y-93570000D02*
X154680000Y-91710000D01*
X154680000Y-91710000D02*
X154350000Y-91380000D01*
%TO.N,/D-*%
X140371000Y-138399000D02*
X158817700Y-138399000D01*
X139130000Y-139640000D02*
X140371000Y-138399000D01*
X158817700Y-138399000D02*
X159334400Y-137882300D01*
%TO.N,/D+*%
X156902900Y-137493800D02*
X139049200Y-137493800D01*
X159656500Y-134740200D02*
X156902900Y-137493800D01*
%TO.N,/IO12*%
X129620000Y-99404300D02*
X134709800Y-99404300D01*
X136770100Y-101464600D02*
X136770100Y-102112700D01*
X134709800Y-99404300D02*
X136770100Y-101464600D01*
X150367400Y-115710000D02*
X159020000Y-115710000D01*
X136770100Y-102112700D02*
X150367400Y-115710000D01*
%TO.N,/IO4*%
X144333500Y-105795200D02*
X154185200Y-105795200D01*
X154185200Y-105795200D02*
X159020000Y-110630000D01*
%TO.N,/IO13*%
X134230000Y-105290000D02*
X134230000Y-109770000D01*
X134230000Y-109770000D02*
X142710000Y-118250000D01*
X142710000Y-118250000D02*
X159020000Y-118250000D01*
%TO.N,/IO2*%
X159020000Y-108090000D02*
X149424900Y-98494900D01*
X149424900Y-98494900D02*
X141280400Y-98494900D01*
%TO.N,/IO15*%
X145292100Y-120790000D02*
X143790000Y-120790000D01*
X143790000Y-120790000D02*
X139450000Y-116450000D01*
X145292100Y-120790000D02*
X159020000Y-120790000D01*
%TO.N,/SCL*%
X121394400Y-98460000D02*
X134730000Y-98460000D01*
X134730000Y-98460000D02*
X138040000Y-101770000D01*
X113185000Y-98460000D02*
X121394400Y-98460000D01*
%TO.N,/SDA*%
X134730000Y-95920000D02*
X140580000Y-101770000D01*
X113185000Y-95920000D02*
X134730000Y-95920000D01*
%TO.N,Net-(Q1-C)*%
X140529200Y-134443400D02*
X141342100Y-135256300D01*
X133247200Y-134443400D02*
X140529200Y-134443400D01*
%TO.N,/RXD*%
X141290000Y-86590000D02*
X140910000Y-86210000D01*
X142740000Y-82330000D02*
X143490000Y-82330000D01*
X140910000Y-86210000D02*
X140910000Y-84160000D01*
X142460000Y-95060000D02*
X145393900Y-97993900D01*
X142230000Y-82840000D02*
X142740000Y-82330000D01*
X145393900Y-97993900D02*
X161813900Y-97993900D01*
X140910000Y-84160000D02*
X142230000Y-82840000D01*
X161813900Y-97993900D02*
X162670000Y-98850000D01*
X141530000Y-94400000D02*
X142190000Y-95060000D01*
X142190000Y-95060000D02*
X142460000Y-95060000D01*
%TO.N,/MISO*%
X163609000Y-90169000D02*
X163609000Y-92960000D01*
X146833700Y-85473500D02*
X149310200Y-87950000D01*
X163609000Y-92960000D02*
X163609000Y-93151000D01*
X157000000Y-88410000D02*
X161380000Y-88410000D01*
X150060000Y-87950000D02*
X150490000Y-88380000D01*
X161380000Y-88410000D02*
X161850000Y-88410000D01*
X162860000Y-89420000D02*
X163609000Y-90169000D01*
X163609000Y-93151000D02*
X162880000Y-93880000D01*
X149310200Y-87950000D02*
X150060000Y-87950000D01*
X161850000Y-88410000D02*
X162860000Y-89420000D01*
%TO.N,/BUSY*%
X134520000Y-94620000D02*
X136320000Y-94620000D01*
X141740000Y-100040000D02*
X149600000Y-100040000D01*
X130233500Y-90333500D02*
X134520000Y-94620000D01*
X130233500Y-90333500D02*
X129690000Y-90333500D01*
X129593500Y-90333500D02*
X129570000Y-90310000D01*
X136320000Y-94620000D02*
X141740000Y-100040000D01*
X129690000Y-90333500D02*
X129593500Y-90333500D01*
X149600000Y-100040000D02*
X151560000Y-102000000D01*
%TO.N,/RESET*%
X145350000Y-104580000D02*
X151410000Y-104580000D01*
X136050000Y-95280000D02*
X136080000Y-95310000D01*
X129560000Y-94160000D02*
X129560000Y-92880000D01*
X130680000Y-95280000D02*
X136050000Y-95280000D01*
X130680000Y-95280000D02*
X129560000Y-94160000D01*
X136080000Y-95310000D02*
X140120000Y-99350000D01*
X140120000Y-99350000D02*
X145350000Y-104580000D01*
%TO.N,/TXD*%
X147585200Y-83621800D02*
X143287900Y-83621800D01*
X162579000Y-87629000D02*
X163609000Y-88659000D01*
X163609000Y-88659000D02*
X163609000Y-88720000D01*
X162579000Y-87629000D02*
X151592400Y-87629000D01*
X151592400Y-87629000D02*
X147585200Y-83621800D01*
%TO.N,/SCK*%
X151384880Y-88130000D02*
X154210000Y-88130000D01*
X155530000Y-89450000D02*
X159680000Y-89450000D01*
X148127600Y-85283800D02*
X148538680Y-85283800D01*
X159680000Y-89450000D02*
X159910000Y-89450000D01*
X154210000Y-88130000D02*
X155100000Y-89020000D01*
X148538680Y-85283800D02*
X151384880Y-88130000D01*
X155100000Y-89020000D02*
X155530000Y-89450000D01*
X159910000Y-89450000D02*
X160230000Y-89770000D01*
%TO.N,/DIO1*%
X152982400Y-93222400D02*
X156140000Y-96380000D01*
X152982400Y-93222400D02*
X138882400Y-93222400D01*
X160270000Y-96380000D02*
X161110000Y-95540000D01*
X137735000Y-92075000D02*
X137670000Y-92010000D01*
X156140000Y-96380000D02*
X160270000Y-96380000D01*
X138882400Y-93222400D02*
X137735000Y-92075000D01*
%TO.N,/NSS*%
X136139000Y-93749000D02*
X136040000Y-93650000D01*
X159060000Y-91260000D02*
X159060000Y-90130000D01*
X152189000Y-93749000D02*
X136139000Y-93749000D01*
X152360000Y-93920000D02*
X152189000Y-93749000D01*
X155960000Y-94360000D02*
X159060000Y-91260000D01*
X155140000Y-94360000D02*
X155960000Y-94360000D01*
%TO.N,/IO5*%
X122800000Y-94870000D02*
X122920000Y-94990000D01*
X154860000Y-120110000D02*
X156000000Y-118970000D01*
X127470000Y-111630000D02*
X131400000Y-111630000D01*
X146495000Y-89500000D02*
X146312500Y-89682500D01*
X122800000Y-91350000D02*
X122800000Y-94870000D01*
X127390000Y-111550000D02*
X127470000Y-111630000D01*
X122840000Y-91350000D02*
X122800000Y-91350000D01*
X146312500Y-89682500D02*
X124507500Y-89682500D01*
X131400000Y-111630000D02*
X131480000Y-111710000D01*
X152720000Y-121980000D02*
X143490000Y-121980000D01*
X146710000Y-89500000D02*
X146495000Y-89500000D01*
X143490000Y-121980000D02*
X134230000Y-112720000D01*
X154560000Y-120110000D02*
X154860000Y-120110000D01*
X124507500Y-89682500D02*
X122840000Y-91350000D01*
%TD*%
%TA.AperFunction,Conductor*%
%TO.N,/GND*%
G36*
X153438343Y-91377268D02*
G01*
X153452823Y-91375712D01*
X153471664Y-91385142D01*
X153492168Y-91389988D01*
X153502279Y-91400467D01*
X153515303Y-91406986D01*
X153526055Y-91425107D01*
X153540683Y-91440267D01*
X153548944Y-91463683D01*
X153550956Y-91467074D01*
X153552425Y-91473550D01*
X153580261Y-91613491D01*
X153580264Y-91613501D01*
X153640602Y-91759172D01*
X153640609Y-91759185D01*
X153728210Y-91890288D01*
X153728213Y-91890292D01*
X153839707Y-92001786D01*
X153839715Y-92001792D01*
X153974390Y-92091779D01*
X154019196Y-92145391D01*
X154029500Y-92194881D01*
X154029500Y-93050191D01*
X154009815Y-93117230D01*
X153957011Y-93162985D01*
X153887853Y-93172929D01*
X153824297Y-93143904D01*
X153817819Y-93137872D01*
X153397073Y-92717126D01*
X153397069Y-92717123D01*
X153290527Y-92645935D01*
X153172144Y-92596899D01*
X153172138Y-92596897D01*
X153046471Y-92571900D01*
X153046469Y-92571900D01*
X139203208Y-92571900D01*
X139136169Y-92552215D01*
X139115527Y-92535581D01*
X138552015Y-91972069D01*
X138518530Y-91910746D01*
X138518093Y-91908652D01*
X138504737Y-91841503D01*
X138470635Y-91759172D01*
X138444397Y-91695827D01*
X138444390Y-91695814D01*
X138395998Y-91623391D01*
X138375120Y-91556714D01*
X138393604Y-91489334D01*
X138445583Y-91442643D01*
X138499100Y-91430500D01*
X153178693Y-91430500D01*
X153178694Y-91430499D01*
X153236682Y-91418964D01*
X153352658Y-91395896D01*
X153352661Y-91395894D01*
X153352666Y-91395894D01*
X153383356Y-91383181D01*
X153404302Y-91380929D01*
X153424171Y-91373920D01*
X153438343Y-91377268D01*
G37*
%TD.AperFunction*%
%TA.AperFunction,Conductor*%
G36*
X165156337Y-76950276D02*
G01*
X165223368Y-76969985D01*
X165269104Y-77022805D01*
X165280291Y-77074119D01*
X165368706Y-146745006D01*
X165349106Y-146812070D01*
X165296361Y-146857892D01*
X165244639Y-146869163D01*
X110613361Y-146839834D01*
X110546333Y-146820113D01*
X110500606Y-146767285D01*
X110489428Y-146716047D01*
X110482376Y-142610499D01*
X110472604Y-136921304D01*
X125029500Y-136921304D01*
X125029500Y-137098695D01*
X125064103Y-137272658D01*
X125064106Y-137272667D01*
X125131983Y-137436540D01*
X125131990Y-137436553D01*
X125230535Y-137584034D01*
X125230538Y-137584038D01*
X125355961Y-137709461D01*
X125355965Y-137709464D01*
X125503446Y-137808009D01*
X125503459Y-137808016D01*
X125626363Y-137858923D01*
X125667334Y-137875894D01*
X125667336Y-137875894D01*
X125667341Y-137875896D01*
X125841304Y-137910499D01*
X125841307Y-137910500D01*
X125841309Y-137910500D01*
X133471309Y-137910500D01*
X133805500Y-137910500D01*
X133872539Y-137930185D01*
X133918294Y-137982989D01*
X133929500Y-138034500D01*
X133929500Y-138368696D01*
X133964103Y-138542658D01*
X133964105Y-138542666D01*
X133995526Y-138618524D01*
X133995529Y-138618529D01*
X133998046Y-138624606D01*
X134031987Y-138706547D01*
X134091063Y-138794959D01*
X134094169Y-138799607D01*
X134094172Y-138799613D01*
X134130534Y-138854034D01*
X134130535Y-138854035D01*
X134130536Y-138854036D01*
X137560536Y-142284035D01*
X137685965Y-142409464D01*
X137833453Y-142508013D01*
X137881452Y-142527895D01*
X137997334Y-142575895D01*
X138171304Y-142610499D01*
X138171308Y-142610500D01*
X138171309Y-142610500D01*
X153748693Y-142610500D01*
X153748694Y-142610499D01*
X153806682Y-142598964D01*
X153922658Y-142575896D01*
X153922661Y-142575894D01*
X153922666Y-142575894D01*
X154086547Y-142508013D01*
X154234035Y-142409464D01*
X154359464Y-142284035D01*
X154458013Y-142136547D01*
X154525894Y-141972666D01*
X154560500Y-141798691D01*
X154560500Y-141621309D01*
X154560500Y-141621306D01*
X154560499Y-141621304D01*
X154525896Y-141447341D01*
X154525893Y-141447332D01*
X154458016Y-141283459D01*
X154458009Y-141283446D01*
X154359464Y-141135965D01*
X154359461Y-141135961D01*
X154234038Y-141010538D01*
X154234034Y-141010535D01*
X154086553Y-140911990D01*
X154086540Y-140911983D01*
X153922667Y-140844106D01*
X153922658Y-140844103D01*
X153748694Y-140809500D01*
X153748691Y-140809500D01*
X138684361Y-140809500D01*
X138617322Y-140789815D01*
X138596680Y-140773181D01*
X135945681Y-138122181D01*
X135912196Y-138060858D01*
X135917180Y-137991166D01*
X135959052Y-137935233D01*
X136024516Y-137910816D01*
X136033362Y-137910500D01*
X136458693Y-137910500D01*
X136458694Y-137910499D01*
X136516682Y-137898964D01*
X136632658Y-137875896D01*
X136632661Y-137875894D01*
X136632666Y-137875894D01*
X136796547Y-137808013D01*
X136944035Y-137709464D01*
X137069464Y-137584035D01*
X137168013Y-137436547D01*
X137176955Y-137414958D01*
X137176957Y-137414953D01*
X138248700Y-137414953D01*
X138248700Y-137572646D01*
X138279461Y-137727289D01*
X138279464Y-137727301D01*
X138339802Y-137872972D01*
X138339809Y-137872985D01*
X138427410Y-138004088D01*
X138427413Y-138004092D01*
X138538907Y-138115586D01*
X138538911Y-138115589D01*
X138670014Y-138203190D01*
X138670027Y-138203197D01*
X138810749Y-138261485D01*
X138815703Y-138263537D01*
X138970353Y-138294299D01*
X138970356Y-138294300D01*
X138970358Y-138294300D01*
X139128043Y-138294300D01*
X139158491Y-138288243D01*
X139261038Y-138267845D01*
X139330627Y-138274072D01*
X139385805Y-138316934D01*
X139409050Y-138382824D01*
X139392983Y-138450821D01*
X139372909Y-138477143D01*
X139027068Y-138822984D01*
X138965745Y-138856469D01*
X138963579Y-138856920D01*
X138896508Y-138870261D01*
X138896498Y-138870264D01*
X138750827Y-138930602D01*
X138750814Y-138930609D01*
X138619711Y-139018210D01*
X138619707Y-139018213D01*
X138508213Y-139129707D01*
X138508210Y-139129711D01*
X138420609Y-139260814D01*
X138420602Y-139260827D01*
X138360264Y-139406498D01*
X138360261Y-139406510D01*
X138329500Y-139561153D01*
X138329500Y-139718846D01*
X138360261Y-139873489D01*
X138360264Y-139873501D01*
X138420602Y-140019172D01*
X138420609Y-140019185D01*
X138508210Y-140150288D01*
X138508213Y-140150292D01*
X138619707Y-140261786D01*
X138619711Y-140261789D01*
X138750814Y-140349390D01*
X138750827Y-140349397D01*
X138896498Y-140409735D01*
X138896503Y-140409737D01*
X139051153Y-140440499D01*
X139051156Y-140440500D01*
X139051158Y-140440500D01*
X139208844Y-140440500D01*
X139208845Y-140440499D01*
X139363497Y-140409737D01*
X139509179Y-140349394D01*
X139640289Y-140261789D01*
X139751789Y-140150289D01*
X139839394Y-140019179D01*
X139899737Y-139873497D01*
X139913079Y-139806416D01*
X139945463Y-139744509D01*
X139946957Y-139742987D01*
X140604127Y-139085819D01*
X140665450Y-139052334D01*
X140691808Y-139049500D01*
X158881771Y-139049500D01*
X158966315Y-139032682D01*
X159007444Y-139024501D01*
X159125827Y-138975465D01*
X159232369Y-138904277D01*
X159437330Y-138699313D01*
X159498651Y-138665830D01*
X159500730Y-138665396D01*
X159567897Y-138652037D01*
X159713579Y-138591694D01*
X159844689Y-138504089D01*
X159956189Y-138392589D01*
X160043794Y-138261479D01*
X160104137Y-138115797D01*
X160134900Y-137961142D01*
X160134900Y-137803458D01*
X160134900Y-137803455D01*
X160134899Y-137803453D01*
X160119751Y-137727301D01*
X160104137Y-137648803D01*
X160077311Y-137584038D01*
X160043797Y-137503127D01*
X160043790Y-137503114D01*
X159956189Y-137372011D01*
X159956186Y-137372007D01*
X159844692Y-137260513D01*
X159844688Y-137260510D01*
X159713585Y-137172909D01*
X159713572Y-137172902D01*
X159567901Y-137112564D01*
X159567889Y-137112561D01*
X159413245Y-137081800D01*
X159413242Y-137081800D01*
X159255558Y-137081800D01*
X159255555Y-137081800D01*
X159100910Y-137112561D01*
X159100898Y-137112564D01*
X158955227Y-137172902D01*
X158955214Y-137172909D01*
X158824111Y-137260510D01*
X158824107Y-137260513D01*
X158712613Y-137372007D01*
X158712610Y-137372011D01*
X158625009Y-137503114D01*
X158625002Y-137503127D01*
X158564663Y-137648801D01*
X158562893Y-137654638D01*
X158561754Y-137654292D01*
X158532303Y-137710599D01*
X158471589Y-137745175D01*
X158443068Y-137748500D01*
X157867508Y-137748500D01*
X157800469Y-137728815D01*
X157754714Y-137676011D01*
X157744770Y-137606853D01*
X157773795Y-137543297D01*
X157779827Y-137536819D01*
X158234846Y-137081800D01*
X159759431Y-135557213D01*
X159820752Y-135523730D01*
X159822817Y-135523299D01*
X159889997Y-135509937D01*
X160035679Y-135449594D01*
X160166789Y-135361989D01*
X160278289Y-135250489D01*
X160365894Y-135119379D01*
X160367792Y-135114798D01*
X160426235Y-134973701D01*
X160426237Y-134973697D01*
X160457000Y-134819042D01*
X160457000Y-134661358D01*
X160457000Y-134661355D01*
X160456999Y-134661353D01*
X160451660Y-134634511D01*
X160426237Y-134506703D01*
X160398954Y-134440835D01*
X160365897Y-134361027D01*
X160365890Y-134361014D01*
X160278289Y-134229911D01*
X160278286Y-134229907D01*
X160166792Y-134118413D01*
X160166788Y-134118410D01*
X160035685Y-134030809D01*
X160035672Y-134030802D01*
X159890001Y-133970464D01*
X159889989Y-133970461D01*
X159735345Y-133939700D01*
X159735342Y-133939700D01*
X159577658Y-133939700D01*
X159577655Y-133939700D01*
X159423010Y-133970461D01*
X159422998Y-133970464D01*
X159277327Y-134030802D01*
X159277314Y-134030809D01*
X159146211Y-134118410D01*
X159146207Y-134118413D01*
X159034713Y-134229907D01*
X159034710Y-134229911D01*
X158947109Y-134361014D01*
X158947102Y-134361027D01*
X158886764Y-134506698D01*
X158886761Y-134506708D01*
X158873420Y-134573779D01*
X158841035Y-134635690D01*
X158839484Y-134637268D01*
X156669773Y-136806981D01*
X156608450Y-136840466D01*
X156582092Y-136843300D01*
X139554135Y-136843300D01*
X139487096Y-136823615D01*
X139485290Y-136822433D01*
X139428379Y-136784406D01*
X139428372Y-136784402D01*
X139282701Y-136724064D01*
X139282689Y-136724061D01*
X139128045Y-136693300D01*
X139128042Y-136693300D01*
X138970358Y-136693300D01*
X138970355Y-136693300D01*
X138815710Y-136724061D01*
X138815698Y-136724064D01*
X138670027Y-136784402D01*
X138670014Y-136784409D01*
X138538911Y-136872010D01*
X138538907Y-136872013D01*
X138427413Y-136983507D01*
X138427410Y-136983511D01*
X138339809Y-137114614D01*
X138339802Y-137114627D01*
X138279464Y-137260298D01*
X138279461Y-137260310D01*
X138248700Y-137414953D01*
X137176957Y-137414953D01*
X137199134Y-137361414D01*
X137209445Y-137336519D01*
X137235894Y-137272666D01*
X137238312Y-137260513D01*
X137270499Y-137098695D01*
X137270500Y-137098693D01*
X137270500Y-136921306D01*
X137270499Y-136921304D01*
X137235896Y-136747341D01*
X137235893Y-136747332D01*
X137168016Y-136583459D01*
X137168009Y-136583446D01*
X137069464Y-136435965D01*
X137069461Y-136435961D01*
X136944038Y-136310538D01*
X136944034Y-136310535D01*
X136796553Y-136211990D01*
X136796540Y-136211983D01*
X136632667Y-136144106D01*
X136632658Y-136144103D01*
X136458694Y-136109500D01*
X136458691Y-136109500D01*
X134918691Y-136109500D01*
X133648691Y-136109500D01*
X125841309Y-136109500D01*
X125841306Y-136109500D01*
X125667341Y-136144103D01*
X125667332Y-136144106D01*
X125503459Y-136211983D01*
X125503446Y-136211990D01*
X125355965Y-136310535D01*
X125355961Y-136310538D01*
X125230538Y-136435961D01*
X125230535Y-136435965D01*
X125131990Y-136583446D01*
X125131983Y-136583459D01*
X125064106Y-136747332D01*
X125064103Y-136747341D01*
X125029500Y-136921304D01*
X110472604Y-136921304D01*
X110468212Y-134364553D01*
X132446700Y-134364553D01*
X132446700Y-134522246D01*
X132477461Y-134676889D01*
X132477464Y-134676901D01*
X132537802Y-134822572D01*
X132537809Y-134822585D01*
X132625410Y-134953688D01*
X132625413Y-134953692D01*
X132736907Y-135065186D01*
X132736911Y-135065189D01*
X132868014Y-135152790D01*
X132868027Y-135152797D01*
X133013698Y-135213135D01*
X133013703Y-135213137D01*
X133168353Y-135243899D01*
X133168356Y-135243900D01*
X133168358Y-135243900D01*
X133326044Y-135243900D01*
X133326045Y-135243899D01*
X133480697Y-135213137D01*
X133626379Y-135152794D01*
X133683244Y-135114797D01*
X133749921Y-135093920D01*
X133752135Y-135093900D01*
X140208392Y-135093900D01*
X140275431Y-135113585D01*
X140296073Y-135130219D01*
X140525084Y-135359229D01*
X140558569Y-135420552D01*
X140559020Y-135422719D01*
X140572361Y-135489789D01*
X140572364Y-135489801D01*
X140632702Y-135635472D01*
X140632709Y-135635485D01*
X140720310Y-135766588D01*
X140720313Y-135766592D01*
X140831807Y-135878086D01*
X140831811Y-135878089D01*
X140962914Y-135965690D01*
X140962927Y-135965697D01*
X141108598Y-136026035D01*
X141108603Y-136026037D01*
X141263253Y-136056799D01*
X141263256Y-136056800D01*
X141263258Y-136056800D01*
X141420944Y-136056800D01*
X141420945Y-136056799D01*
X141575597Y-136026037D01*
X141721279Y-135965694D01*
X141852389Y-135878089D01*
X141963889Y-135766589D01*
X142051494Y-135635479D01*
X142111837Y-135489797D01*
X142142600Y-135335142D01*
X142142600Y-135177458D01*
X142142600Y-135177455D01*
X142142599Y-135177453D01*
X142137693Y-135152790D01*
X142111837Y-135022803D01*
X142111835Y-135022798D01*
X142051497Y-134877127D01*
X142051490Y-134877114D01*
X141963889Y-134746011D01*
X141963886Y-134746007D01*
X141852392Y-134634513D01*
X141852388Y-134634510D01*
X141721285Y-134546909D01*
X141721272Y-134546902D01*
X141575601Y-134486564D01*
X141575589Y-134486561D01*
X141508519Y-134473220D01*
X141446608Y-134440835D01*
X141445029Y-134439284D01*
X140943874Y-133938127D01*
X140943873Y-133938126D01*
X140943869Y-133938123D01*
X140837327Y-133866935D01*
X140718944Y-133817899D01*
X140718938Y-133817897D01*
X140593271Y-133792900D01*
X140593269Y-133792900D01*
X133752135Y-133792900D01*
X133685096Y-133773215D01*
X133683290Y-133772033D01*
X133626379Y-133734006D01*
X133626372Y-133734002D01*
X133480701Y-133673664D01*
X133480689Y-133673661D01*
X133326045Y-133642900D01*
X133326042Y-133642900D01*
X133168358Y-133642900D01*
X133168355Y-133642900D01*
X133013710Y-133673661D01*
X133013698Y-133673664D01*
X132868027Y-133734002D01*
X132868014Y-133734009D01*
X132736911Y-133821610D01*
X132736907Y-133821613D01*
X132625413Y-133933107D01*
X132625410Y-133933111D01*
X132537809Y-134064214D01*
X132537802Y-134064227D01*
X132477464Y-134209898D01*
X132477461Y-134209910D01*
X132446700Y-134364553D01*
X110468212Y-134364553D01*
X110465555Y-132817682D01*
X111270000Y-132817682D01*
X111270000Y-133022317D01*
X111302009Y-133224417D01*
X111365244Y-133419031D01*
X111458141Y-133601350D01*
X111458147Y-133601359D01*
X111490523Y-133645921D01*
X111490524Y-133645922D01*
X112170000Y-132966446D01*
X112170000Y-132972661D01*
X112197259Y-133074394D01*
X112249920Y-133165606D01*
X112324394Y-133240080D01*
X112415606Y-133292741D01*
X112517339Y-133320000D01*
X112523552Y-133320000D01*
X111844076Y-133999474D01*
X111888650Y-134031859D01*
X112070968Y-134124755D01*
X112265582Y-134187990D01*
X112467683Y-134220000D01*
X112672317Y-134220000D01*
X112874417Y-134187990D01*
X113069031Y-134124755D01*
X113251341Y-134031863D01*
X113251349Y-134031858D01*
X113321552Y-133980852D01*
X113387358Y-133957371D01*
X113455412Y-133973196D01*
X113482120Y-133993488D01*
X113551344Y-134062712D01*
X113700666Y-134154814D01*
X113867203Y-134209999D01*
X113969991Y-134220500D01*
X115170008Y-134220499D01*
X115272797Y-134209999D01*
X115439334Y-134154814D01*
X115588656Y-134062712D01*
X115712712Y-133938656D01*
X115804814Y-133789334D01*
X115859999Y-133622797D01*
X115870500Y-133520009D01*
X115870499Y-132399983D01*
X121879500Y-132399983D01*
X121879500Y-133600001D01*
X121879501Y-133600018D01*
X121890000Y-133702796D01*
X121890001Y-133702799D01*
X121918677Y-133789336D01*
X121945186Y-133869334D01*
X122037288Y-134018656D01*
X122161344Y-134142712D01*
X122310666Y-134234814D01*
X122477203Y-134289999D01*
X122579991Y-134300500D01*
X123780008Y-134300499D01*
X123882797Y-134289999D01*
X124049334Y-134234814D01*
X124198656Y-134142712D01*
X124267879Y-134073489D01*
X124329202Y-134040004D01*
X124398894Y-134044988D01*
X124428446Y-134060853D01*
X124498646Y-134111857D01*
X124680968Y-134204755D01*
X124875582Y-134267990D01*
X125077683Y-134300000D01*
X125282317Y-134300000D01*
X125484417Y-134267990D01*
X125568914Y-134240535D01*
X125679031Y-134204755D01*
X125861349Y-134111859D01*
X125905921Y-134079474D01*
X125226447Y-133400000D01*
X125232661Y-133400000D01*
X125334394Y-133372741D01*
X125425606Y-133320080D01*
X125500080Y-133245606D01*
X125552741Y-133154394D01*
X125580000Y-133052661D01*
X125580000Y-133046448D01*
X126259474Y-133725922D01*
X126259474Y-133725921D01*
X126291859Y-133681349D01*
X126384755Y-133499031D01*
X126447990Y-133304417D01*
X126480000Y-133102317D01*
X126480000Y-132897682D01*
X126447990Y-132695582D01*
X126384755Y-132500968D01*
X126291859Y-132318650D01*
X126259474Y-132274077D01*
X126259474Y-132274076D01*
X125580000Y-132953551D01*
X125580000Y-132947339D01*
X125552741Y-132845606D01*
X125500080Y-132754394D01*
X125425606Y-132679920D01*
X125334394Y-132627259D01*
X125232661Y-132600000D01*
X125226446Y-132600000D01*
X125905922Y-131920524D01*
X125905921Y-131920523D01*
X125861359Y-131888147D01*
X125861350Y-131888141D01*
X125679031Y-131795244D01*
X125484417Y-131732009D01*
X125282317Y-131700000D01*
X125077683Y-131700000D01*
X124875582Y-131732009D01*
X124680968Y-131795244D01*
X124498651Y-131888139D01*
X124428444Y-131939148D01*
X124362637Y-131962627D01*
X124294583Y-131946801D01*
X124267878Y-131926510D01*
X124198657Y-131857289D01*
X124198656Y-131857288D01*
X124049334Y-131765186D01*
X123882797Y-131710001D01*
X123882795Y-131710000D01*
X123780010Y-131699500D01*
X122579998Y-131699500D01*
X122579981Y-131699501D01*
X122477203Y-131710000D01*
X122477200Y-131710001D01*
X122310668Y-131765185D01*
X122310663Y-131765187D01*
X122161342Y-131857289D01*
X122037289Y-131981342D01*
X121945187Y-132130663D01*
X121945186Y-132130666D01*
X121890001Y-132297203D01*
X121890001Y-132297204D01*
X121890000Y-132297204D01*
X121879500Y-132399983D01*
X115870499Y-132399983D01*
X115870499Y-132319992D01*
X115859999Y-132217203D01*
X115804814Y-132050666D01*
X115712712Y-131901344D01*
X115588656Y-131777288D01*
X115588655Y-131777287D01*
X115529402Y-131740739D01*
X115482678Y-131688791D01*
X115470500Y-131635201D01*
X115470500Y-124138872D01*
X123769500Y-124138872D01*
X123769500Y-124401127D01*
X123796123Y-124603339D01*
X123803730Y-124661116D01*
X123808924Y-124680500D01*
X123871602Y-124914418D01*
X123871605Y-124914428D01*
X123971953Y-125156690D01*
X123971958Y-125156700D01*
X124103075Y-125383803D01*
X124262718Y-125591851D01*
X124262726Y-125591860D01*
X124448140Y-125777274D01*
X124448148Y-125777281D01*
X124656196Y-125936924D01*
X124883299Y-126068041D01*
X124883309Y-126068046D01*
X125125571Y-126168394D01*
X125125581Y-126168398D01*
X125378884Y-126236270D01*
X125638880Y-126270500D01*
X125638887Y-126270500D01*
X125901113Y-126270500D01*
X125901120Y-126270500D01*
X126161116Y-126236270D01*
X126414419Y-126168398D01*
X126656697Y-126068043D01*
X126883803Y-125936924D01*
X127091851Y-125777282D01*
X127091855Y-125777277D01*
X127091860Y-125777274D01*
X127277274Y-125591860D01*
X127277277Y-125591855D01*
X127277282Y-125591851D01*
X127436924Y-125383803D01*
X127568043Y-125156697D01*
X127668398Y-124914419D01*
X127736270Y-124661116D01*
X127770500Y-124401120D01*
X127770500Y-124138880D01*
X127736270Y-123878884D01*
X127668398Y-123625581D01*
X127668394Y-123625571D01*
X127568046Y-123383309D01*
X127568041Y-123383299D01*
X127436924Y-123156196D01*
X127277281Y-122948148D01*
X127277274Y-122948140D01*
X127091860Y-122762726D01*
X127091851Y-122762718D01*
X126883803Y-122603075D01*
X126656700Y-122471958D01*
X126656690Y-122471953D01*
X126414428Y-122371605D01*
X126414421Y-122371603D01*
X126414419Y-122371602D01*
X126161116Y-122303730D01*
X126103339Y-122296123D01*
X125901127Y-122269500D01*
X125901120Y-122269500D01*
X125638880Y-122269500D01*
X125638872Y-122269500D01*
X125408051Y-122299890D01*
X125378884Y-122303730D01*
X125171922Y-122359185D01*
X125125581Y-122371602D01*
X125125571Y-122371605D01*
X124883309Y-122471953D01*
X124883299Y-122471958D01*
X124656196Y-122603075D01*
X124448148Y-122762718D01*
X124262718Y-122948148D01*
X124103075Y-123156196D01*
X123971958Y-123383299D01*
X123971953Y-123383309D01*
X123871605Y-123625571D01*
X123871602Y-123625581D01*
X123811895Y-123848414D01*
X123803730Y-123878885D01*
X123769500Y-124138872D01*
X115470500Y-124138872D01*
X115470500Y-123704362D01*
X115490185Y-123637323D01*
X115506819Y-123616681D01*
X118842197Y-120281303D01*
X135169500Y-120281303D01*
X135169500Y-120458696D01*
X135204103Y-120632658D01*
X135204105Y-120632666D01*
X135271988Y-120796548D01*
X135370534Y-120944034D01*
X135370540Y-120944041D01*
X143235964Y-128809464D01*
X143235966Y-128809466D01*
X143270326Y-128832423D01*
X143295040Y-128848936D01*
X143383453Y-128908013D01*
X143465393Y-128941953D01*
X143471480Y-128944474D01*
X143471485Y-128944477D01*
X143507940Y-128959577D01*
X143547334Y-128975895D01*
X143721303Y-129010499D01*
X143721307Y-129010500D01*
X143721308Y-129010500D01*
X158918693Y-129010500D01*
X158918694Y-129010499D01*
X159092666Y-128975895D01*
X159174606Y-128941953D01*
X159256547Y-128908013D01*
X159344959Y-128848936D01*
X159404036Y-128809464D01*
X164059463Y-124154036D01*
X164110261Y-124078012D01*
X164158013Y-124006547D01*
X164225894Y-123842666D01*
X164260500Y-123668691D01*
X164260500Y-105101309D01*
X164260291Y-105100256D01*
X164225895Y-104927334D01*
X164173045Y-104799744D01*
X164158013Y-104763453D01*
X164075190Y-104639500D01*
X164059464Y-104615964D01*
X164059462Y-104615961D01*
X159274038Y-99830537D01*
X159194280Y-99777245D01*
X159126544Y-99731985D01*
X159126542Y-99731984D01*
X159044607Y-99698046D01*
X159044606Y-99698046D01*
X158962666Y-99664105D01*
X158962658Y-99664103D01*
X158788696Y-99629500D01*
X158788692Y-99629500D01*
X158788691Y-99629500D01*
X154351309Y-99629500D01*
X154351306Y-99629500D01*
X154177341Y-99664103D01*
X154177332Y-99664106D01*
X154013459Y-99731983D01*
X154013446Y-99731990D01*
X153865965Y-99830535D01*
X153865961Y-99830538D01*
X153740538Y-99955961D01*
X153740535Y-99955965D01*
X153641990Y-100103446D01*
X153641983Y-100103459D01*
X153574106Y-100267332D01*
X153574103Y-100267341D01*
X153539500Y-100441304D01*
X153539500Y-100618695D01*
X153574103Y-100792658D01*
X153574106Y-100792667D01*
X153641983Y-100956540D01*
X153641990Y-100956553D01*
X153740535Y-101104034D01*
X153740538Y-101104038D01*
X153865961Y-101229461D01*
X153865965Y-101229464D01*
X154013446Y-101328009D01*
X154013459Y-101328016D01*
X154136363Y-101378923D01*
X154177334Y-101395894D01*
X154177336Y-101395894D01*
X154177341Y-101395896D01*
X154351304Y-101430499D01*
X154351307Y-101430500D01*
X154351309Y-101430500D01*
X158275638Y-101430500D01*
X158342677Y-101450185D01*
X158363319Y-101466819D01*
X162423181Y-105526681D01*
X162456666Y-105588004D01*
X162459500Y-105614362D01*
X162459500Y-123155638D01*
X162439815Y-123222677D01*
X162423181Y-123243319D01*
X158493319Y-127173181D01*
X158431996Y-127206666D01*
X158405638Y-127209500D01*
X144234362Y-127209500D01*
X144167323Y-127189815D01*
X144146681Y-127173181D01*
X136644041Y-119670540D01*
X136644034Y-119670534D01*
X136496548Y-119571988D01*
X136332666Y-119504105D01*
X136332658Y-119504103D01*
X136158696Y-119469500D01*
X136158692Y-119469500D01*
X135981308Y-119469500D01*
X135981303Y-119469500D01*
X135807341Y-119504103D01*
X135807333Y-119504105D01*
X135643451Y-119571988D01*
X135495965Y-119670534D01*
X135495958Y-119670540D01*
X135370540Y-119795958D01*
X135370534Y-119795965D01*
X135271988Y-119943451D01*
X135204105Y-120107333D01*
X135204103Y-120107341D01*
X135169500Y-120281303D01*
X118842197Y-120281303D01*
X120726681Y-118396819D01*
X120788004Y-118363334D01*
X120814362Y-118360500D01*
X131638693Y-118360500D01*
X131638694Y-118360499D01*
X131696682Y-118348964D01*
X131812658Y-118325896D01*
X131812661Y-118325894D01*
X131812666Y-118325894D01*
X131976547Y-118258013D01*
X132124035Y-118159464D01*
X132249464Y-118034035D01*
X132348013Y-117886547D01*
X132415894Y-117722666D01*
X132450500Y-117548691D01*
X132450500Y-117371309D01*
X132450500Y-117371306D01*
X132450499Y-117371304D01*
X132415896Y-117197341D01*
X132415893Y-117197332D01*
X132348016Y-117033459D01*
X132348009Y-117033446D01*
X132249464Y-116885965D01*
X132249461Y-116885961D01*
X132124038Y-116760538D01*
X132124034Y-116760535D01*
X131976553Y-116661990D01*
X131976540Y-116661983D01*
X131812667Y-116594106D01*
X131812658Y-116594103D01*
X131638694Y-116559500D01*
X131638691Y-116559500D01*
X120478692Y-116559500D01*
X120301308Y-116559500D01*
X120301303Y-116559500D01*
X120127341Y-116594103D01*
X120127329Y-116594106D01*
X120045392Y-116628045D01*
X120045393Y-116628046D01*
X119963455Y-116661985D01*
X119890850Y-116710499D01*
X119815961Y-116760537D01*
X119815958Y-116760540D01*
X113870537Y-122705962D01*
X113870533Y-122705966D01*
X113866366Y-122712203D01*
X113866348Y-122712231D01*
X113865096Y-122714106D01*
X113771987Y-122853453D01*
X113760769Y-122880537D01*
X113756974Y-122889697D01*
X113756973Y-122889700D01*
X113704106Y-123017331D01*
X113704103Y-123017341D01*
X113677029Y-123153455D01*
X113669500Y-123191304D01*
X113669500Y-131635201D01*
X113668989Y-131636938D01*
X113669451Y-131638689D01*
X113659183Y-131670335D01*
X113649815Y-131702240D01*
X113648269Y-131703974D01*
X113647888Y-131705149D01*
X113643423Y-131709410D01*
X113624034Y-131731161D01*
X113617627Y-131736404D01*
X113551344Y-131777288D01*
X113477759Y-131850872D01*
X113472974Y-131854789D01*
X113446257Y-131866092D01*
X113420797Y-131879995D01*
X113414470Y-131879542D01*
X113408627Y-131882015D01*
X113380033Y-131877079D01*
X113351106Y-131875010D01*
X113343076Y-131870699D01*
X113339776Y-131870130D01*
X113336614Y-131867231D01*
X113321555Y-131859147D01*
X113251352Y-131808142D01*
X113069031Y-131715244D01*
X112874417Y-131652009D01*
X112672317Y-131620000D01*
X112467683Y-131620000D01*
X112265582Y-131652009D01*
X112070968Y-131715244D01*
X111888644Y-131808143D01*
X111844077Y-131840523D01*
X111844077Y-131840524D01*
X112523553Y-132520000D01*
X112517339Y-132520000D01*
X112415606Y-132547259D01*
X112324394Y-132599920D01*
X112249920Y-132674394D01*
X112197259Y-132765606D01*
X112170000Y-132867339D01*
X112170000Y-132873553D01*
X111490524Y-132194077D01*
X111490523Y-132194077D01*
X111458143Y-132238644D01*
X111365244Y-132420968D01*
X111302009Y-132615582D01*
X111270000Y-132817682D01*
X110465555Y-132817682D01*
X110428887Y-111471153D01*
X126589500Y-111471153D01*
X126589500Y-111628846D01*
X126620261Y-111783489D01*
X126620264Y-111783501D01*
X126680602Y-111929172D01*
X126680609Y-111929185D01*
X126768210Y-112060288D01*
X126768213Y-112060292D01*
X126879707Y-112171786D01*
X126879711Y-112171789D01*
X127010814Y-112259390D01*
X127010827Y-112259397D01*
X127149458Y-112316819D01*
X127156503Y-112319737D01*
X127311153Y-112350499D01*
X127311156Y-112350500D01*
X127311158Y-112350500D01*
X127468844Y-112350500D01*
X127468845Y-112350499D01*
X127623497Y-112319737D01*
X127694775Y-112290213D01*
X127695437Y-112289939D01*
X127742889Y-112280500D01*
X130867059Y-112280500D01*
X130934098Y-112300185D01*
X130954740Y-112316819D01*
X130969707Y-112331786D01*
X130969711Y-112331789D01*
X131100814Y-112419390D01*
X131100827Y-112419397D01*
X131204126Y-112462184D01*
X131246503Y-112479737D01*
X131401153Y-112510499D01*
X131401156Y-112510500D01*
X131401158Y-112510500D01*
X131558844Y-112510500D01*
X131558845Y-112510499D01*
X131713497Y-112479737D01*
X131859179Y-112419394D01*
X131990289Y-112331789D01*
X132101789Y-112220289D01*
X132189394Y-112089179D01*
X132249737Y-111943497D01*
X132280500Y-111788842D01*
X132280500Y-111631158D01*
X132280500Y-111631155D01*
X132280499Y-111631153D01*
X132280039Y-111628842D01*
X132249737Y-111476503D01*
X132245088Y-111465279D01*
X132189397Y-111330827D01*
X132189390Y-111330814D01*
X132101789Y-111199711D01*
X132101786Y-111199707D01*
X131990292Y-111088213D01*
X131990288Y-111088210D01*
X131859185Y-111000609D01*
X131859172Y-111000602D01*
X131713501Y-110940264D01*
X131713489Y-110940261D01*
X131558845Y-110909500D01*
X131558842Y-110909500D01*
X131401158Y-110909500D01*
X131401155Y-110909500D01*
X131246510Y-110940261D01*
X131246498Y-110940264D01*
X131174563Y-110970061D01*
X131127111Y-110979500D01*
X128002941Y-110979500D01*
X127935902Y-110959815D01*
X127915260Y-110943181D01*
X127900292Y-110928213D01*
X127900288Y-110928210D01*
X127769185Y-110840609D01*
X127769172Y-110840602D01*
X127623501Y-110780264D01*
X127623489Y-110780261D01*
X127468845Y-110749500D01*
X127468842Y-110749500D01*
X127311158Y-110749500D01*
X127311155Y-110749500D01*
X127156510Y-110780261D01*
X127156498Y-110780264D01*
X127010827Y-110840602D01*
X127010814Y-110840609D01*
X126879711Y-110928210D01*
X126879707Y-110928213D01*
X126768213Y-111039707D01*
X126768210Y-111039711D01*
X126680609Y-111170814D01*
X126680602Y-111170827D01*
X126620264Y-111316498D01*
X126620261Y-111316510D01*
X126589500Y-111471153D01*
X110428887Y-111471153D01*
X110412857Y-102138872D01*
X123769500Y-102138872D01*
X123769500Y-102401127D01*
X123791977Y-102571844D01*
X123803730Y-102661116D01*
X123871602Y-102914418D01*
X123871605Y-102914428D01*
X123971953Y-103156690D01*
X123971958Y-103156700D01*
X124103075Y-103383803D01*
X124262718Y-103591851D01*
X124262726Y-103591860D01*
X124448140Y-103777274D01*
X124448148Y-103777281D01*
X124448149Y-103777282D01*
X124490136Y-103809500D01*
X124656196Y-103936924D01*
X124883299Y-104068041D01*
X124883309Y-104068046D01*
X125125571Y-104168394D01*
X125125581Y-104168398D01*
X125378884Y-104236270D01*
X125638880Y-104270500D01*
X125638887Y-104270500D01*
X125901113Y-104270500D01*
X125901120Y-104270500D01*
X126161116Y-104236270D01*
X126414419Y-104168398D01*
X126656697Y-104068043D01*
X126883803Y-103936924D01*
X127091851Y-103777282D01*
X127091855Y-103777277D01*
X127091860Y-103777274D01*
X127277274Y-103591860D01*
X127277277Y-103591855D01*
X127277282Y-103591851D01*
X127436924Y-103383803D01*
X127568043Y-103156697D01*
X127668398Y-102914419D01*
X127736270Y-102661116D01*
X127770500Y-102401120D01*
X127770500Y-102138880D01*
X127754849Y-102020000D01*
X127750218Y-101984823D01*
X127745892Y-101951973D01*
X127736270Y-101878884D01*
X127668398Y-101625581D01*
X127606538Y-101476237D01*
X127568046Y-101383309D01*
X127568041Y-101383299D01*
X127436927Y-101156201D01*
X127403393Y-101112499D01*
X127277282Y-100948149D01*
X127277281Y-100948148D01*
X127277274Y-100948140D01*
X127091860Y-100762726D01*
X127091851Y-100762718D01*
X126883803Y-100603075D01*
X126656700Y-100471958D01*
X126656690Y-100471953D01*
X126414428Y-100371605D01*
X126414421Y-100371603D01*
X126414419Y-100371602D01*
X126161116Y-100303730D01*
X126103339Y-100296123D01*
X125901127Y-100269500D01*
X125901120Y-100269500D01*
X125638880Y-100269500D01*
X125638872Y-100269500D01*
X125407772Y-100299926D01*
X125378884Y-100303730D01*
X125149690Y-100365142D01*
X125125581Y-100371602D01*
X125125571Y-100371605D01*
X124883309Y-100471953D01*
X124883299Y-100471958D01*
X124656196Y-100603075D01*
X124448148Y-100762718D01*
X124262718Y-100948148D01*
X124103075Y-101156196D01*
X123971958Y-101383299D01*
X123971953Y-101383309D01*
X123871605Y-101625571D01*
X123871602Y-101625581D01*
X123806451Y-101868731D01*
X123803730Y-101878885D01*
X123769500Y-102138872D01*
X110412857Y-102138872D01*
X110399457Y-94338139D01*
X110397629Y-93273713D01*
X111834500Y-93273713D01*
X111834500Y-93486287D01*
X111836801Y-93500814D01*
X111862264Y-93661585D01*
X111867754Y-93696243D01*
X111922765Y-93865550D01*
X111933444Y-93898414D01*
X112029951Y-94087820D01*
X112154890Y-94259786D01*
X112305213Y-94410109D01*
X112477182Y-94535050D01*
X112485946Y-94539516D01*
X112536742Y-94587491D01*
X112553536Y-94655312D01*
X112530998Y-94721447D01*
X112485946Y-94760484D01*
X112477182Y-94764949D01*
X112305213Y-94889890D01*
X112154890Y-95040213D01*
X112029951Y-95212179D01*
X111933444Y-95401585D01*
X111867753Y-95603760D01*
X111845095Y-95746819D01*
X111834500Y-95813713D01*
X111834500Y-96026287D01*
X111838302Y-96050289D01*
X111855961Y-96161789D01*
X111867754Y-96236243D01*
X111906995Y-96357015D01*
X111933444Y-96438414D01*
X112029951Y-96627820D01*
X112154890Y-96799786D01*
X112305213Y-96950109D01*
X112477182Y-97075050D01*
X112485946Y-97079516D01*
X112536742Y-97127491D01*
X112553536Y-97195312D01*
X112530998Y-97261447D01*
X112485946Y-97300484D01*
X112477182Y-97304949D01*
X112305213Y-97429890D01*
X112154890Y-97580213D01*
X112029951Y-97752179D01*
X111933444Y-97941585D01*
X111933443Y-97941587D01*
X111933443Y-97941588D01*
X111903243Y-98034535D01*
X111867753Y-98143760D01*
X111854377Y-98228213D01*
X111834500Y-98353713D01*
X111834500Y-98566287D01*
X111842455Y-98616510D01*
X111866948Y-98771158D01*
X111867754Y-98776243D01*
X111917337Y-98928844D01*
X111933444Y-98978414D01*
X112029951Y-99167820D01*
X112154890Y-99339786D01*
X112305213Y-99490109D01*
X112477179Y-99615048D01*
X112477181Y-99615049D01*
X112477184Y-99615051D01*
X112666588Y-99711557D01*
X112868757Y-99777246D01*
X113078713Y-99810500D01*
X113078714Y-99810500D01*
X113291286Y-99810500D01*
X113291287Y-99810500D01*
X113501243Y-99777246D01*
X113703412Y-99711557D01*
X113892816Y-99615051D01*
X113969422Y-99559394D01*
X114064786Y-99490109D01*
X114064788Y-99490106D01*
X114064792Y-99490104D01*
X114215104Y-99339792D01*
X114215106Y-99339788D01*
X114215109Y-99339786D01*
X114342915Y-99163875D01*
X114344259Y-99164851D01*
X114390705Y-99122834D01*
X114444618Y-99110500D01*
X120889465Y-99110500D01*
X120956504Y-99130185D01*
X120958309Y-99131366D01*
X121015221Y-99169394D01*
X121015223Y-99169395D01*
X121015227Y-99169397D01*
X121159539Y-99229172D01*
X121160903Y-99229737D01*
X121273565Y-99252147D01*
X121315553Y-99260499D01*
X121315556Y-99260500D01*
X121315558Y-99260500D01*
X121473244Y-99260500D01*
X121473245Y-99260499D01*
X121627897Y-99229737D01*
X121740758Y-99182989D01*
X121773572Y-99169397D01*
X121773572Y-99169396D01*
X121773579Y-99169394D01*
X121830444Y-99131397D01*
X121897121Y-99110520D01*
X121899335Y-99110500D01*
X128711163Y-99110500D01*
X128778202Y-99130185D01*
X128823957Y-99182989D01*
X128833901Y-99252147D01*
X128832780Y-99258691D01*
X128819500Y-99325453D01*
X128819500Y-99483146D01*
X128850261Y-99637789D01*
X128850264Y-99637801D01*
X128910602Y-99783472D01*
X128910609Y-99783485D01*
X128998210Y-99914588D01*
X128998213Y-99914592D01*
X129109707Y-100026086D01*
X129109711Y-100026089D01*
X129240814Y-100113690D01*
X129240827Y-100113697D01*
X129386498Y-100174035D01*
X129386503Y-100174037D01*
X129541153Y-100204799D01*
X129541156Y-100204800D01*
X129541158Y-100204800D01*
X129698844Y-100204800D01*
X129698845Y-100204799D01*
X129853497Y-100174037D01*
X129999179Y-100113694D01*
X130056044Y-100075697D01*
X130122721Y-100054820D01*
X130124935Y-100054800D01*
X134388992Y-100054800D01*
X134456031Y-100074485D01*
X134476673Y-100091119D01*
X134880879Y-100495325D01*
X134914364Y-100556648D01*
X134909380Y-100626340D01*
X134867508Y-100682273D01*
X134849505Y-100693485D01*
X134842497Y-100697056D01*
X134682753Y-100813115D01*
X134543115Y-100952753D01*
X134438318Y-101096997D01*
X134382989Y-101139663D01*
X134313375Y-101145642D01*
X134251580Y-101113037D01*
X134217223Y-101052198D01*
X134214000Y-101024112D01*
X134214000Y-100968172D01*
X134213999Y-100968155D01*
X134207598Y-100908627D01*
X134207596Y-100908620D01*
X134157354Y-100773913D01*
X134157350Y-100773906D01*
X134071190Y-100658812D01*
X134071187Y-100658809D01*
X133956093Y-100572649D01*
X133956086Y-100572645D01*
X133821379Y-100522403D01*
X133821372Y-100522401D01*
X133761844Y-100516000D01*
X133210000Y-100516000D01*
X133210000Y-101336988D01*
X133152993Y-101304075D01*
X133025826Y-101270000D01*
X132894174Y-101270000D01*
X132767007Y-101304075D01*
X132710000Y-101336988D01*
X132710000Y-100516000D01*
X132158155Y-100516000D01*
X132098627Y-100522401D01*
X132098620Y-100522403D01*
X131963913Y-100572645D01*
X131963906Y-100572649D01*
X131848812Y-100658809D01*
X131848809Y-100658812D01*
X131762649Y-100773906D01*
X131762645Y-100773913D01*
X131712403Y-100908620D01*
X131712401Y-100908627D01*
X131706000Y-100968155D01*
X131706000Y-101520000D01*
X132526988Y-101520000D01*
X132494075Y-101577007D01*
X132460000Y-101704174D01*
X132460000Y-101835826D01*
X132494075Y-101962993D01*
X132526988Y-102020000D01*
X131706000Y-102020000D01*
X131706000Y-102571844D01*
X131712401Y-102631372D01*
X131712403Y-102631379D01*
X131762645Y-102766086D01*
X131762649Y-102766093D01*
X131848809Y-102881187D01*
X131848812Y-102881190D01*
X131963906Y-102967350D01*
X131963913Y-102967354D01*
X132098620Y-103017596D01*
X132098627Y-103017598D01*
X132158155Y-103023999D01*
X132158172Y-103024000D01*
X132710000Y-103024000D01*
X132710000Y-102203012D01*
X132767007Y-102235925D01*
X132894174Y-102270000D01*
X133025826Y-102270000D01*
X133152993Y-102235925D01*
X133210000Y-102203012D01*
X133210000Y-103024000D01*
X133761828Y-103024000D01*
X133761844Y-103023999D01*
X133821372Y-103017598D01*
X133821379Y-103017596D01*
X133956086Y-102967354D01*
X133956093Y-102967350D01*
X134071187Y-102881190D01*
X134071190Y-102881187D01*
X134157350Y-102766093D01*
X134157354Y-102766086D01*
X134207596Y-102631379D01*
X134207598Y-102631372D01*
X134213999Y-102571844D01*
X134214000Y-102571827D01*
X134214000Y-102515887D01*
X134233685Y-102448848D01*
X134286489Y-102403093D01*
X134355647Y-102393149D01*
X134419203Y-102422174D01*
X134438314Y-102442997D01*
X134487204Y-102510288D01*
X134543121Y-102587252D01*
X134682753Y-102726884D01*
X134784079Y-102800500D01*
X134842499Y-102842944D01*
X135018439Y-102932591D01*
X135125417Y-102967350D01*
X135206236Y-102993610D01*
X135401264Y-103024500D01*
X135401269Y-103024500D01*
X135598736Y-103024500D01*
X135793763Y-102993610D01*
X135981561Y-102932591D01*
X136157501Y-102842944D01*
X136316761Y-102727236D01*
X136382567Y-102703756D01*
X136450621Y-102719582D01*
X136477327Y-102739873D01*
X149952725Y-116215272D01*
X149952728Y-116215275D01*
X149952731Y-116215277D01*
X150020048Y-116260256D01*
X150059273Y-116286465D01*
X150177656Y-116335501D01*
X150177660Y-116335501D01*
X150177661Y-116335502D01*
X150303328Y-116360500D01*
X150303331Y-116360500D01*
X157760382Y-116360500D01*
X157827421Y-116380185D01*
X157861099Y-116414591D01*
X157862085Y-116413875D01*
X157989890Y-116589786D01*
X158140213Y-116740109D01*
X158312182Y-116865050D01*
X158320946Y-116869516D01*
X158371742Y-116917491D01*
X158388536Y-116985312D01*
X158365998Y-117051447D01*
X158320946Y-117090484D01*
X158312182Y-117094949D01*
X158140213Y-117219890D01*
X157989890Y-117370213D01*
X157862085Y-117546125D01*
X157860740Y-117545148D01*
X157814295Y-117587166D01*
X157760382Y-117599500D01*
X143030808Y-117599500D01*
X142963769Y-117579815D01*
X142943127Y-117563181D01*
X134916819Y-109536873D01*
X134883334Y-109475550D01*
X134880500Y-109449192D01*
X134880500Y-105794935D01*
X134900185Y-105727896D01*
X134901366Y-105726090D01*
X134939394Y-105669179D01*
X134999737Y-105523497D01*
X135030500Y-105368842D01*
X135030500Y-105211158D01*
X135030500Y-105211155D01*
X135030499Y-105211153D01*
X135018315Y-105149901D01*
X134999737Y-105056503D01*
X134986435Y-105024388D01*
X134939397Y-104910827D01*
X134939390Y-104910814D01*
X134851789Y-104779711D01*
X134851786Y-104779707D01*
X134740292Y-104668213D01*
X134740288Y-104668210D01*
X134609185Y-104580609D01*
X134609172Y-104580602D01*
X134463501Y-104520264D01*
X134463489Y-104520261D01*
X134308845Y-104489500D01*
X134308842Y-104489500D01*
X134151158Y-104489500D01*
X134151155Y-104489500D01*
X133996510Y-104520261D01*
X133996498Y-104520264D01*
X133850827Y-104580602D01*
X133850814Y-104580609D01*
X133719711Y-104668210D01*
X133719707Y-104668213D01*
X133608213Y-104779707D01*
X133608210Y-104779711D01*
X133520609Y-104910814D01*
X133520602Y-104910827D01*
X133460264Y-105056498D01*
X133460261Y-105056510D01*
X133429500Y-105211153D01*
X133429500Y-105368846D01*
X133460261Y-105523489D01*
X133460264Y-105523501D01*
X133520602Y-105669172D01*
X133520606Y-105669179D01*
X133558602Y-105726044D01*
X133579480Y-105792721D01*
X133579500Y-105794935D01*
X133579500Y-109834069D01*
X133597028Y-109922184D01*
X133604499Y-109959744D01*
X133653534Y-110078125D01*
X133724726Y-110184673D01*
X133724727Y-110184674D01*
X139089770Y-115549716D01*
X139123255Y-115611039D01*
X139118271Y-115680731D01*
X139076399Y-115736664D01*
X139070980Y-115740499D01*
X138939711Y-115828210D01*
X138939707Y-115828213D01*
X138828213Y-115939707D01*
X138828210Y-115939711D01*
X138740609Y-116070814D01*
X138737736Y-116076191D01*
X138736210Y-116075375D01*
X138697520Y-116123374D01*
X138631222Y-116145429D01*
X138563526Y-116128139D01*
X138539134Y-116109188D01*
X135047015Y-112617069D01*
X135013530Y-112555746D01*
X135013093Y-112553652D01*
X134999737Y-112486503D01*
X134971938Y-112419390D01*
X134939397Y-112340827D01*
X134939390Y-112340814D01*
X134851789Y-112209711D01*
X134851786Y-112209707D01*
X134740292Y-112098213D01*
X134740288Y-112098210D01*
X134609185Y-112010609D01*
X134609172Y-112010602D01*
X134463501Y-111950264D01*
X134463489Y-111950261D01*
X134308845Y-111919500D01*
X134308842Y-111919500D01*
X134151158Y-111919500D01*
X134151155Y-111919500D01*
X133996510Y-111950261D01*
X133996498Y-111950264D01*
X133850827Y-112010602D01*
X133850814Y-112010609D01*
X133719711Y-112098210D01*
X133719707Y-112098213D01*
X133608213Y-112209707D01*
X133608210Y-112209711D01*
X133520609Y-112340814D01*
X133520602Y-112340827D01*
X133460264Y-112486498D01*
X133460261Y-112486510D01*
X133429500Y-112641153D01*
X133429500Y-112798846D01*
X133460261Y-112953489D01*
X133460264Y-112953501D01*
X133520602Y-113099172D01*
X133520609Y-113099185D01*
X133608210Y-113230288D01*
X133608213Y-113230292D01*
X133719707Y-113341786D01*
X133719711Y-113341789D01*
X133850814Y-113429390D01*
X133850827Y-113429397D01*
X133938230Y-113465599D01*
X133996503Y-113489737D01*
X134035125Y-113497419D01*
X134063578Y-113503079D01*
X134125489Y-113535463D01*
X134127068Y-113537015D01*
X143075325Y-122485272D01*
X143075332Y-122485278D01*
X143181863Y-122556459D01*
X143181867Y-122556461D01*
X143181874Y-122556466D01*
X143239985Y-122580536D01*
X143239986Y-122580536D01*
X143239987Y-122580537D01*
X143300251Y-122605499D01*
X143300256Y-122605501D01*
X143300260Y-122605501D01*
X143300261Y-122605502D01*
X143425928Y-122630500D01*
X143425931Y-122630500D01*
X143554069Y-122630500D01*
X146281004Y-122630500D01*
X146348043Y-122650185D01*
X146393798Y-122702989D01*
X146403742Y-122772147D01*
X146374717Y-122835703D01*
X146368685Y-122842181D01*
X146262718Y-122948148D01*
X146103075Y-123156196D01*
X145971958Y-123383299D01*
X145971953Y-123383309D01*
X145871605Y-123625571D01*
X145871602Y-123625581D01*
X145811895Y-123848414D01*
X145803730Y-123878885D01*
X145769500Y-124138872D01*
X145769500Y-124401127D01*
X145796123Y-124603339D01*
X145803730Y-124661116D01*
X145808924Y-124680500D01*
X145871602Y-124914418D01*
X145871605Y-124914428D01*
X145971953Y-125156690D01*
X145971958Y-125156700D01*
X146103075Y-125383803D01*
X146262718Y-125591851D01*
X146262726Y-125591860D01*
X146448140Y-125777274D01*
X146448148Y-125777281D01*
X146656196Y-125936924D01*
X146883299Y-126068041D01*
X146883309Y-126068046D01*
X147125571Y-126168394D01*
X147125581Y-126168398D01*
X147378884Y-126236270D01*
X147638880Y-126270500D01*
X147638887Y-126270500D01*
X147901113Y-126270500D01*
X147901120Y-126270500D01*
X148161116Y-126236270D01*
X148414419Y-126168398D01*
X148656697Y-126068043D01*
X148883803Y-125936924D01*
X149091851Y-125777282D01*
X149091855Y-125777277D01*
X149091860Y-125777274D01*
X149277274Y-125591860D01*
X149277277Y-125591855D01*
X149277282Y-125591851D01*
X149436924Y-125383803D01*
X149568043Y-125156697D01*
X149668398Y-124914419D01*
X149736270Y-124661116D01*
X149770500Y-124401120D01*
X149770500Y-124138880D01*
X149736270Y-123878884D01*
X149668398Y-123625581D01*
X149668394Y-123625571D01*
X149568046Y-123383309D01*
X149568041Y-123383299D01*
X149436924Y-123156196D01*
X149277281Y-122948148D01*
X149277274Y-122948140D01*
X149171315Y-122842181D01*
X149137830Y-122780858D01*
X149142814Y-122711166D01*
X149184686Y-122655233D01*
X149250150Y-122630816D01*
X149258996Y-122630500D01*
X152215065Y-122630500D01*
X152282104Y-122650185D01*
X152283909Y-122651366D01*
X152340821Y-122689394D01*
X152340823Y-122689395D01*
X152340827Y-122689397D01*
X152486498Y-122749735D01*
X152486503Y-122749737D01*
X152599165Y-122772147D01*
X152641153Y-122780499D01*
X152641156Y-122780500D01*
X152641158Y-122780500D01*
X152798844Y-122780500D01*
X152798845Y-122780499D01*
X152953497Y-122749737D01*
X153099179Y-122689394D01*
X153230289Y-122601789D01*
X153341789Y-122490289D01*
X153429394Y-122359179D01*
X153489737Y-122213497D01*
X153520500Y-122058842D01*
X153520500Y-121901158D01*
X153520500Y-121901155D01*
X153520499Y-121901153D01*
X153489738Y-121746510D01*
X153489737Y-121746503D01*
X153434005Y-121611952D01*
X153426536Y-121542483D01*
X153457811Y-121480004D01*
X153517900Y-121444352D01*
X153548566Y-121440500D01*
X157760382Y-121440500D01*
X157827421Y-121460185D01*
X157861099Y-121494591D01*
X157862085Y-121493875D01*
X157989890Y-121669786D01*
X158140213Y-121820109D01*
X158312182Y-121945050D01*
X158320946Y-121949516D01*
X158371742Y-121997491D01*
X158388536Y-122065312D01*
X158365998Y-122131447D01*
X158320946Y-122170484D01*
X158312182Y-122174949D01*
X158140213Y-122299890D01*
X157989890Y-122450213D01*
X157864951Y-122622179D01*
X157768444Y-122811585D01*
X157702753Y-123013760D01*
X157674633Y-123191304D01*
X157669500Y-123223713D01*
X157669500Y-123436287D01*
X157702754Y-123646243D01*
X157766576Y-123842667D01*
X157768444Y-123848414D01*
X157864951Y-124037820D01*
X157989890Y-124209786D01*
X158140213Y-124360109D01*
X158312179Y-124485048D01*
X158312181Y-124485049D01*
X158312184Y-124485051D01*
X158501588Y-124581557D01*
X158703757Y-124647246D01*
X158913713Y-124680500D01*
X158913714Y-124680500D01*
X159126286Y-124680500D01*
X159126287Y-124680500D01*
X159336243Y-124647246D01*
X159538412Y-124581557D01*
X159727816Y-124485051D01*
X159749789Y-124469086D01*
X159899786Y-124360109D01*
X159899788Y-124360106D01*
X159899792Y-124360104D01*
X160050104Y-124209792D01*
X160050106Y-124209788D01*
X160050109Y-124209786D01*
X160175048Y-124037820D01*
X160175047Y-124037820D01*
X160175051Y-124037816D01*
X160271557Y-123848412D01*
X160337246Y-123646243D01*
X160370500Y-123436287D01*
X160370500Y-123223713D01*
X160337246Y-123013757D01*
X160271557Y-122811588D01*
X160175051Y-122622184D01*
X160175049Y-122622181D01*
X160175048Y-122622179D01*
X160050109Y-122450213D01*
X159899786Y-122299890D01*
X159727820Y-122174951D01*
X159727115Y-122174591D01*
X159719054Y-122170485D01*
X159668259Y-122122512D01*
X159651463Y-122054692D01*
X159673999Y-121988556D01*
X159719054Y-121949515D01*
X159727816Y-121945051D01*
X159788237Y-121901153D01*
X159899786Y-121820109D01*
X159899788Y-121820106D01*
X159899792Y-121820104D01*
X160050104Y-121669792D01*
X160050106Y-121669788D01*
X160050109Y-121669786D01*
X160175048Y-121497820D01*
X160175047Y-121497820D01*
X160175051Y-121497816D01*
X160271557Y-121308412D01*
X160337246Y-121106243D01*
X160370500Y-120896287D01*
X160370500Y-120683713D01*
X160337246Y-120473757D01*
X160271557Y-120271588D01*
X160175051Y-120082184D01*
X160175049Y-120082181D01*
X160175048Y-120082179D01*
X160050109Y-119910213D01*
X159899786Y-119759890D01*
X159727820Y-119634951D01*
X159727115Y-119634591D01*
X159719054Y-119630485D01*
X159668259Y-119582512D01*
X159651463Y-119514692D01*
X159673999Y-119448556D01*
X159719054Y-119409515D01*
X159727816Y-119405051D01*
X159749789Y-119389086D01*
X159899786Y-119280109D01*
X159899788Y-119280106D01*
X159899792Y-119280104D01*
X160050104Y-119129792D01*
X160050106Y-119129788D01*
X160050109Y-119129786D01*
X160175048Y-118957820D01*
X160175047Y-118957820D01*
X160175051Y-118957816D01*
X160271557Y-118768412D01*
X160337246Y-118566243D01*
X160370500Y-118356287D01*
X160370500Y-118143713D01*
X160337246Y-117933757D01*
X160271557Y-117731588D01*
X160175051Y-117542184D01*
X160175049Y-117542181D01*
X160175048Y-117542179D01*
X160050109Y-117370213D01*
X159899786Y-117219890D01*
X159727820Y-117094951D01*
X159727115Y-117094591D01*
X159719054Y-117090485D01*
X159668259Y-117042512D01*
X159651463Y-116974692D01*
X159673999Y-116908556D01*
X159719054Y-116869515D01*
X159727816Y-116865051D01*
X159749789Y-116849086D01*
X159899786Y-116740109D01*
X159899788Y-116740106D01*
X159899792Y-116740104D01*
X160050104Y-116589792D01*
X160050106Y-116589788D01*
X160050109Y-116589786D01*
X160175048Y-116417820D01*
X160175047Y-116417820D01*
X160175051Y-116417816D01*
X160271557Y-116228412D01*
X160337246Y-116026243D01*
X160370500Y-115816287D01*
X160370500Y-115603713D01*
X160337246Y-115393757D01*
X160271557Y-115191588D01*
X160175051Y-115002184D01*
X160175049Y-115002181D01*
X160175048Y-115002179D01*
X160050109Y-114830213D01*
X159899786Y-114679890D01*
X159727820Y-114554951D01*
X159727115Y-114554591D01*
X159719054Y-114550485D01*
X159668259Y-114502512D01*
X159651463Y-114434692D01*
X159673999Y-114368556D01*
X159719054Y-114329515D01*
X159727816Y-114325051D01*
X159749789Y-114309086D01*
X159899786Y-114200109D01*
X159899788Y-114200106D01*
X159899792Y-114200104D01*
X160050104Y-114049792D01*
X160050106Y-114049788D01*
X160050109Y-114049786D01*
X160175048Y-113877820D01*
X160175047Y-113877820D01*
X160175051Y-113877816D01*
X160271557Y-113688412D01*
X160337246Y-113486243D01*
X160370500Y-113276287D01*
X160370500Y-113063713D01*
X160337246Y-112853757D01*
X160271557Y-112651588D01*
X160175051Y-112462184D01*
X160175049Y-112462181D01*
X160175048Y-112462179D01*
X160050109Y-112290213D01*
X159899786Y-112139890D01*
X159727820Y-112014951D01*
X159727115Y-112014591D01*
X159719054Y-112010485D01*
X159668259Y-111962512D01*
X159651463Y-111894692D01*
X159673999Y-111828556D01*
X159719054Y-111789515D01*
X159727816Y-111785051D01*
X159749789Y-111769086D01*
X159899786Y-111660109D01*
X159899788Y-111660106D01*
X159899792Y-111660104D01*
X160050104Y-111509792D01*
X160050106Y-111509788D01*
X160050109Y-111509786D01*
X160175048Y-111337820D01*
X160175047Y-111337820D01*
X160175051Y-111337816D01*
X160271557Y-111148412D01*
X160337246Y-110946243D01*
X160370500Y-110736287D01*
X160370500Y-110523713D01*
X160337246Y-110313757D01*
X160271557Y-110111588D01*
X160175051Y-109922184D01*
X160175049Y-109922181D01*
X160175048Y-109922179D01*
X160050109Y-109750213D01*
X159899786Y-109599890D01*
X159727820Y-109474951D01*
X159727115Y-109474591D01*
X159719054Y-109470485D01*
X159668259Y-109422512D01*
X159651463Y-109354692D01*
X159673999Y-109288556D01*
X159719054Y-109249515D01*
X159727816Y-109245051D01*
X159749789Y-109229086D01*
X159899786Y-109120109D01*
X159899788Y-109120106D01*
X159899792Y-109120104D01*
X160050104Y-108969792D01*
X160050106Y-108969788D01*
X160050109Y-108969786D01*
X160175048Y-108797820D01*
X160175047Y-108797820D01*
X160175051Y-108797816D01*
X160271557Y-108608412D01*
X160337246Y-108406243D01*
X160370500Y-108196287D01*
X160370500Y-107983713D01*
X160337246Y-107773757D01*
X160271557Y-107571588D01*
X160175051Y-107382184D01*
X160175049Y-107382181D01*
X160175048Y-107382179D01*
X160050109Y-107210213D01*
X159936181Y-107096285D01*
X159902696Y-107034962D01*
X159907680Y-106965270D01*
X159949552Y-106909337D01*
X159980529Y-106892422D01*
X160112086Y-106843354D01*
X160112093Y-106843350D01*
X160227187Y-106757190D01*
X160227190Y-106757187D01*
X160313350Y-106642093D01*
X160313354Y-106642086D01*
X160363596Y-106507379D01*
X160363598Y-106507372D01*
X160369999Y-106447844D01*
X160370000Y-106447827D01*
X160370000Y-105800000D01*
X159453012Y-105800000D01*
X159485925Y-105742993D01*
X159520000Y-105615826D01*
X159520000Y-105484174D01*
X159485925Y-105357007D01*
X159453012Y-105300000D01*
X160370000Y-105300000D01*
X160370000Y-104652172D01*
X160369999Y-104652155D01*
X160363598Y-104592627D01*
X160363596Y-104592620D01*
X160313354Y-104457913D01*
X160313350Y-104457906D01*
X160227190Y-104342812D01*
X160227187Y-104342809D01*
X160112093Y-104256649D01*
X160112086Y-104256645D01*
X159977379Y-104206403D01*
X159977372Y-104206401D01*
X159917844Y-104200000D01*
X159270000Y-104200000D01*
X159270000Y-105116988D01*
X159212993Y-105084075D01*
X159085826Y-105050000D01*
X158954174Y-105050000D01*
X158827007Y-105084075D01*
X158770000Y-105116988D01*
X158770000Y-104200000D01*
X158122155Y-104200000D01*
X158062627Y-104206401D01*
X158062620Y-104206403D01*
X157927913Y-104256645D01*
X157927906Y-104256649D01*
X157812812Y-104342809D01*
X157812809Y-104342812D01*
X157726649Y-104457906D01*
X157726645Y-104457913D01*
X157676403Y-104592620D01*
X157676401Y-104592627D01*
X157670000Y-104652155D01*
X157670000Y-105300000D01*
X158586988Y-105300000D01*
X158554075Y-105357007D01*
X158520000Y-105484174D01*
X158520000Y-105615826D01*
X158554075Y-105742993D01*
X158586988Y-105800000D01*
X157701308Y-105800000D01*
X157634269Y-105780315D01*
X157613627Y-105763681D01*
X150706027Y-98856081D01*
X150672542Y-98794758D01*
X150677526Y-98725066D01*
X150719398Y-98669133D01*
X150784862Y-98644716D01*
X150793708Y-98644400D01*
X161493092Y-98644400D01*
X161560131Y-98664085D01*
X161580773Y-98680719D01*
X161852984Y-98952929D01*
X161886469Y-99014252D01*
X161886920Y-99016419D01*
X161900261Y-99083489D01*
X161900264Y-99083501D01*
X161960602Y-99229172D01*
X161960609Y-99229185D01*
X162048210Y-99360288D01*
X162048213Y-99360292D01*
X162159707Y-99471786D01*
X162159711Y-99471789D01*
X162290814Y-99559390D01*
X162290827Y-99559397D01*
X162425190Y-99615051D01*
X162436503Y-99619737D01*
X162591153Y-99650499D01*
X162591156Y-99650500D01*
X162591158Y-99650500D01*
X162748844Y-99650500D01*
X162748845Y-99650499D01*
X162903497Y-99619737D01*
X163049179Y-99559394D01*
X163180289Y-99471789D01*
X163291789Y-99360289D01*
X163379394Y-99229179D01*
X163439737Y-99083497D01*
X163470500Y-98928842D01*
X163470500Y-98771158D01*
X163470500Y-98771155D01*
X163470499Y-98771153D01*
X163450206Y-98669133D01*
X163439737Y-98616503D01*
X163418937Y-98566286D01*
X163379397Y-98470827D01*
X163379390Y-98470814D01*
X163291789Y-98339711D01*
X163291786Y-98339707D01*
X163180292Y-98228213D01*
X163180288Y-98228210D01*
X163049185Y-98140609D01*
X163049172Y-98140602D01*
X162903501Y-98080264D01*
X162903489Y-98080261D01*
X162836419Y-98066920D01*
X162774508Y-98034535D01*
X162772929Y-98032984D01*
X162228574Y-97488627D01*
X162228573Y-97488626D01*
X162140676Y-97429896D01*
X162122027Y-97417435D01*
X162003644Y-97368399D01*
X162003638Y-97368397D01*
X161877971Y-97343400D01*
X161877969Y-97343400D01*
X145714707Y-97343400D01*
X145647668Y-97323715D01*
X145627026Y-97307081D01*
X142931128Y-94611181D01*
X142897643Y-94549858D01*
X142902627Y-94480166D01*
X142944499Y-94424233D01*
X143009963Y-94399816D01*
X143018809Y-94399500D01*
X151656059Y-94399500D01*
X151723098Y-94419185D01*
X151743740Y-94435819D01*
X151849707Y-94541786D01*
X151849711Y-94541789D01*
X151980814Y-94629390D01*
X151980827Y-94629397D01*
X152126498Y-94689735D01*
X152126503Y-94689737D01*
X152241000Y-94712512D01*
X152281153Y-94720499D01*
X152281156Y-94720500D01*
X152281158Y-94720500D01*
X152438844Y-94720500D01*
X152438845Y-94720499D01*
X152593497Y-94689737D01*
X152729264Y-94633501D01*
X152739172Y-94629397D01*
X152739172Y-94629396D01*
X152739179Y-94629394D01*
X152870289Y-94541789D01*
X152981789Y-94430289D01*
X153013423Y-94382944D01*
X153067035Y-94338139D01*
X153136360Y-94329430D01*
X153199387Y-94359584D01*
X153204207Y-94364153D01*
X155725325Y-96885272D01*
X155725332Y-96885278D01*
X155822352Y-96950104D01*
X155831871Y-96956464D01*
X155831872Y-96956464D01*
X155831873Y-96956465D01*
X155950256Y-97005501D01*
X155950260Y-97005501D01*
X155950261Y-97005502D01*
X156075928Y-97030500D01*
X156075931Y-97030500D01*
X160334071Y-97030500D01*
X160418615Y-97013682D01*
X160459744Y-97005501D01*
X160578127Y-96956465D01*
X160581287Y-96954353D01*
X160587648Y-96950104D01*
X160652182Y-96906983D01*
X160684669Y-96885277D01*
X161212931Y-96357013D01*
X161274252Y-96323530D01*
X161276317Y-96323099D01*
X161343497Y-96309737D01*
X161489179Y-96249394D01*
X161620289Y-96161789D01*
X161731789Y-96050289D01*
X161819394Y-95919179D01*
X161879737Y-95773497D01*
X161910500Y-95618842D01*
X161910500Y-95461158D01*
X161910500Y-95461155D01*
X161910499Y-95461153D01*
X161879738Y-95306510D01*
X161879738Y-95306508D01*
X161879737Y-95306503D01*
X161854708Y-95246077D01*
X161819397Y-95160827D01*
X161819390Y-95160814D01*
X161731789Y-95029711D01*
X161731786Y-95029707D01*
X161620291Y-94918212D01*
X161620288Y-94918210D01*
X161489185Y-94830609D01*
X161489172Y-94830602D01*
X161343501Y-94770264D01*
X161343489Y-94770261D01*
X161188845Y-94739500D01*
X161188842Y-94739500D01*
X161031158Y-94739500D01*
X161031155Y-94739500D01*
X160876510Y-94770261D01*
X160876498Y-94770264D01*
X160730827Y-94830602D01*
X160730814Y-94830609D01*
X160599711Y-94918210D01*
X160599709Y-94918212D01*
X160488213Y-95029707D01*
X160488210Y-95029711D01*
X160400609Y-95160814D01*
X160400602Y-95160827D01*
X160340264Y-95306498D01*
X160340261Y-95306508D01*
X160326920Y-95373579D01*
X160294535Y-95435490D01*
X160292985Y-95437068D01*
X160036871Y-95693182D01*
X159975551Y-95726666D01*
X159949192Y-95729500D01*
X156460808Y-95729500D01*
X156393769Y-95709815D01*
X156373127Y-95693181D01*
X155902127Y-95222181D01*
X155868642Y-95160858D01*
X155873626Y-95091166D01*
X155915498Y-95035233D01*
X155980962Y-95010816D01*
X155989808Y-95010500D01*
X156024071Y-95010500D01*
X156108615Y-94993682D01*
X156149744Y-94985501D01*
X156268127Y-94936465D01*
X156295445Y-94918212D01*
X156295446Y-94918212D01*
X156354728Y-94878600D01*
X156374669Y-94865277D01*
X159565277Y-91674669D01*
X159636465Y-91568127D01*
X159685501Y-91449744D01*
X159695023Y-91401873D01*
X159707331Y-91340000D01*
X159710500Y-91324070D01*
X159710500Y-90634934D01*
X159715827Y-90616789D01*
X159716165Y-90597882D01*
X159729666Y-90569661D01*
X159730185Y-90567895D01*
X159731349Y-90566117D01*
X159746096Y-90544045D01*
X159799706Y-90499243D01*
X159869031Y-90490535D01*
X159896649Y-90498377D01*
X159980221Y-90532993D01*
X159996503Y-90539737D01*
X160138062Y-90567895D01*
X160151153Y-90570499D01*
X160151156Y-90570500D01*
X160151158Y-90570500D01*
X160308844Y-90570500D01*
X160308845Y-90570499D01*
X160463497Y-90539737D01*
X160584037Y-90489808D01*
X160609172Y-90479397D01*
X160609172Y-90479396D01*
X160609179Y-90479394D01*
X160740289Y-90391789D01*
X160851789Y-90280289D01*
X160939394Y-90149179D01*
X160999737Y-90003497D01*
X161030500Y-89848842D01*
X161030500Y-89691158D01*
X161030500Y-89691155D01*
X161030499Y-89691153D01*
X161018894Y-89632812D01*
X160999737Y-89536503D01*
X160983127Y-89496403D01*
X160939397Y-89390827D01*
X160939390Y-89390814D01*
X160848405Y-89254646D01*
X160850431Y-89253291D01*
X160827311Y-89198858D01*
X160839101Y-89129990D01*
X160886252Y-89078429D01*
X160950477Y-89060500D01*
X161315931Y-89060500D01*
X161529192Y-89060500D01*
X161596231Y-89080185D01*
X161616873Y-89096819D01*
X162922181Y-90402127D01*
X162955666Y-90463450D01*
X162958500Y-90489808D01*
X162958500Y-92830191D01*
X162949855Y-92859631D01*
X162943332Y-92889618D01*
X162939577Y-92894633D01*
X162938815Y-92897230D01*
X162922181Y-92917873D01*
X162777068Y-93062985D01*
X162715745Y-93096469D01*
X162713579Y-93096920D01*
X162646508Y-93110261D01*
X162646498Y-93110264D01*
X162500827Y-93170602D01*
X162500814Y-93170609D01*
X162369711Y-93258210D01*
X162369707Y-93258213D01*
X162258213Y-93369707D01*
X162258210Y-93369711D01*
X162170609Y-93500814D01*
X162170602Y-93500827D01*
X162110264Y-93646498D01*
X162110261Y-93646510D01*
X162079500Y-93801153D01*
X162079500Y-93958846D01*
X162110261Y-94113489D01*
X162110264Y-94113501D01*
X162170602Y-94259172D01*
X162170609Y-94259185D01*
X162258210Y-94390288D01*
X162258213Y-94390292D01*
X162369707Y-94501786D01*
X162369711Y-94501789D01*
X162500814Y-94589390D01*
X162500827Y-94589397D01*
X162634323Y-94644692D01*
X162646503Y-94649737D01*
X162801153Y-94680499D01*
X162801156Y-94680500D01*
X162801158Y-94680500D01*
X162958844Y-94680500D01*
X162958845Y-94680499D01*
X163113497Y-94649737D01*
X163259179Y-94589394D01*
X163390289Y-94501789D01*
X163501789Y-94390289D01*
X163589394Y-94259179D01*
X163649737Y-94113497D01*
X163663079Y-94046416D01*
X163695463Y-93984509D01*
X163696904Y-93983040D01*
X164114277Y-93565669D01*
X164185465Y-93459127D01*
X164205934Y-93409711D01*
X164234501Y-93340744D01*
X164248411Y-93270814D01*
X164259500Y-93215071D01*
X164259500Y-90104928D01*
X164234502Y-89979261D01*
X164234501Y-89979260D01*
X164234501Y-89979256D01*
X164185465Y-89860873D01*
X164167555Y-89834069D01*
X164114277Y-89754331D01*
X164114275Y-89754329D01*
X164114273Y-89754326D01*
X164114272Y-89754325D01*
X163935669Y-89575723D01*
X163902184Y-89514400D01*
X163907168Y-89444709D01*
X163949039Y-89388775D01*
X163975900Y-89373480D01*
X163988179Y-89368394D01*
X164119289Y-89280789D01*
X164230789Y-89169289D01*
X164318394Y-89038179D01*
X164378737Y-88892497D01*
X164409500Y-88737842D01*
X164409500Y-88580158D01*
X164409500Y-88580155D01*
X164409499Y-88580153D01*
X164398820Y-88526465D01*
X164378737Y-88425503D01*
X164348287Y-88351989D01*
X164318397Y-88279827D01*
X164318390Y-88279814D01*
X164230789Y-88148711D01*
X164230786Y-88148707D01*
X164119292Y-88037213D01*
X164119288Y-88037210D01*
X163988185Y-87949609D01*
X163988172Y-87949602D01*
X163842501Y-87889264D01*
X163842489Y-87889261D01*
X163775420Y-87875920D01*
X163713509Y-87843535D01*
X163711930Y-87841984D01*
X162993674Y-87123727D01*
X162993673Y-87123726D01*
X162958597Y-87100289D01*
X162887127Y-87052535D01*
X162768744Y-87003499D01*
X162768738Y-87003497D01*
X162643071Y-86978500D01*
X162643069Y-86978500D01*
X161909186Y-86978500D01*
X161842147Y-86958815D01*
X161796392Y-86906011D01*
X161786448Y-86836853D01*
X161798701Y-86798206D01*
X161823032Y-86750453D01*
X161894049Y-86531884D01*
X161930000Y-86304904D01*
X161930000Y-86075095D01*
X161894049Y-85848115D01*
X161823033Y-85629549D01*
X161718703Y-85424792D01*
X161664021Y-85349530D01*
X161664021Y-85349529D01*
X161063387Y-85950163D01*
X161037161Y-85886846D01*
X160967121Y-85782024D01*
X160877976Y-85692879D01*
X160773154Y-85622839D01*
X160709833Y-85596611D01*
X161310469Y-84995977D01*
X161310468Y-84995975D01*
X161235210Y-84941298D01*
X161030450Y-84836966D01*
X160811884Y-84765950D01*
X160584904Y-84730000D01*
X160355096Y-84730000D01*
X160128115Y-84765950D01*
X159909549Y-84836966D01*
X159704796Y-84941294D01*
X159629530Y-84995977D01*
X159629530Y-84995978D01*
X160230164Y-85596611D01*
X160166846Y-85622839D01*
X160062024Y-85692879D01*
X159972879Y-85782024D01*
X159902839Y-85886846D01*
X159876611Y-85950164D01*
X159275978Y-85349530D01*
X159275977Y-85349530D01*
X159221294Y-85424796D01*
X159116966Y-85629549D01*
X159045950Y-85848115D01*
X159010000Y-86075095D01*
X159010000Y-86304904D01*
X159045950Y-86531884D01*
X159116967Y-86750453D01*
X159141299Y-86798206D01*
X159154195Y-86866875D01*
X159127918Y-86931615D01*
X159070812Y-86971872D01*
X159030814Y-86978500D01*
X157109186Y-86978500D01*
X157042147Y-86958815D01*
X156996392Y-86906011D01*
X156986448Y-86836853D01*
X156998701Y-86798206D01*
X157023032Y-86750453D01*
X157094049Y-86531884D01*
X157130000Y-86304904D01*
X157130000Y-86075095D01*
X157094049Y-85848115D01*
X157023033Y-85629549D01*
X156918703Y-85424792D01*
X156864021Y-85349530D01*
X156864021Y-85349529D01*
X156263387Y-85950163D01*
X156237161Y-85886846D01*
X156167121Y-85782024D01*
X156077976Y-85692879D01*
X155973154Y-85622839D01*
X155909833Y-85596611D01*
X156510469Y-84995977D01*
X156510468Y-84995975D01*
X156435210Y-84941298D01*
X156230450Y-84836966D01*
X156011884Y-84765950D01*
X155784904Y-84730000D01*
X155555096Y-84730000D01*
X155328115Y-84765950D01*
X155109549Y-84836966D01*
X154904796Y-84941294D01*
X154829530Y-84995977D01*
X154829530Y-84995978D01*
X155430164Y-85596611D01*
X155366846Y-85622839D01*
X155262024Y-85692879D01*
X155172879Y-85782024D01*
X155102839Y-85886846D01*
X155076611Y-85950164D01*
X154475978Y-85349530D01*
X154475977Y-85349530D01*
X154421294Y-85424796D01*
X154316966Y-85629549D01*
X154245950Y-85848115D01*
X154210000Y-86075095D01*
X154210000Y-86304904D01*
X154245950Y-86531884D01*
X154316967Y-86750453D01*
X154341299Y-86798206D01*
X154354195Y-86866875D01*
X154327918Y-86931615D01*
X154270812Y-86971872D01*
X154230814Y-86978500D01*
X151913208Y-86978500D01*
X151846169Y-86958815D01*
X151825527Y-86942181D01*
X150014264Y-85130918D01*
X148657425Y-83774078D01*
X148574610Y-83691263D01*
X156815500Y-83691263D01*
X156815500Y-83888736D01*
X156846389Y-84083763D01*
X156907408Y-84271558D01*
X156907409Y-84271561D01*
X156997056Y-84447501D01*
X156997058Y-84447504D01*
X157113115Y-84607246D01*
X157252753Y-84746884D01*
X157376743Y-84836966D01*
X157412499Y-84862944D01*
X157588439Y-84952591D01*
X157713637Y-84993270D01*
X157776236Y-85013610D01*
X157971264Y-85044500D01*
X157971269Y-85044500D01*
X158168736Y-85044500D01*
X158363763Y-85013610D01*
X158551561Y-84952591D01*
X158727501Y-84862944D01*
X158776984Y-84826993D01*
X158887246Y-84746884D01*
X158887248Y-84746881D01*
X158887252Y-84746879D01*
X159026879Y-84607252D01*
X159026881Y-84607248D01*
X159026884Y-84607246D01*
X159082822Y-84530252D01*
X159142944Y-84447501D01*
X159232591Y-84271561D01*
X159293610Y-84083763D01*
X159311588Y-83970255D01*
X159324500Y-83888736D01*
X159324500Y-83691263D01*
X159293610Y-83496236D01*
X159249373Y-83360090D01*
X159232591Y-83308439D01*
X159142944Y-83132499D01*
X159112228Y-83090222D01*
X159026884Y-82972753D01*
X158887246Y-82833115D01*
X158727505Y-82717058D01*
X158722015Y-82714260D01*
X158590491Y-82647245D01*
X158590490Y-82647244D01*
X158551565Y-82627411D01*
X158551564Y-82627410D01*
X158551561Y-82627409D01*
X158505505Y-82612444D01*
X158363763Y-82566389D01*
X158168736Y-82535500D01*
X158168731Y-82535500D01*
X157971269Y-82535500D01*
X157971264Y-82535500D01*
X157776236Y-82566389D01*
X157588441Y-82627408D01*
X157412495Y-82717058D01*
X157252753Y-82833115D01*
X157113115Y-82972753D01*
X156997058Y-83132495D01*
X156907408Y-83308441D01*
X156846389Y-83496236D01*
X156815500Y-83691263D01*
X148574610Y-83691263D01*
X147999873Y-83116526D01*
X147960506Y-83090222D01*
X147893327Y-83045335D01*
X147774944Y-82996299D01*
X147774938Y-82996297D01*
X147649271Y-82971300D01*
X147649269Y-82971300D01*
X144256238Y-82971300D01*
X144189199Y-82951615D01*
X144143444Y-82898811D01*
X144133500Y-82829653D01*
X144153136Y-82778409D01*
X144194129Y-82717058D01*
X144199394Y-82709179D01*
X144259737Y-82563497D01*
X144290500Y-82408842D01*
X144290500Y-82356250D01*
X144291592Y-82348078D01*
X144302572Y-82323384D01*
X144310185Y-82297461D01*
X144316555Y-82291940D01*
X144319982Y-82284236D01*
X144342571Y-82269398D01*
X144362989Y-82251706D01*
X144372733Y-82249586D01*
X144378380Y-82245877D01*
X144390331Y-82245757D01*
X144414500Y-82240500D01*
X146494071Y-82240500D01*
X146578615Y-82223682D01*
X146619744Y-82215501D01*
X146738127Y-82166465D01*
X146781210Y-82137678D01*
X146781210Y-82137677D01*
X146781212Y-82137677D01*
X146812939Y-82116477D01*
X146844669Y-82095277D01*
X147152932Y-81787012D01*
X147214251Y-81753530D01*
X147216316Y-81753099D01*
X147283497Y-81739737D01*
X147422634Y-81682105D01*
X147429172Y-81679397D01*
X147429172Y-81679396D01*
X147429179Y-81679394D01*
X147560289Y-81591789D01*
X147671789Y-81480289D01*
X147759394Y-81349179D01*
X147790080Y-81275095D01*
X154210000Y-81275095D01*
X154210000Y-81504904D01*
X154245950Y-81731884D01*
X154316966Y-81950450D01*
X154421298Y-82155210D01*
X154475975Y-82230468D01*
X154475977Y-82230469D01*
X155076611Y-81629834D01*
X155102839Y-81693154D01*
X155172879Y-81797976D01*
X155262024Y-81887121D01*
X155366846Y-81957161D01*
X155430164Y-81983387D01*
X154829529Y-82584021D01*
X154904792Y-82638703D01*
X155109549Y-82743033D01*
X155328115Y-82814049D01*
X155555096Y-82850000D01*
X155784904Y-82850000D01*
X156011884Y-82814049D01*
X156230450Y-82743033D01*
X156435206Y-82638704D01*
X156510468Y-82584021D01*
X156510469Y-82584021D01*
X155909835Y-81983388D01*
X155973154Y-81957161D01*
X156077976Y-81887121D01*
X156167121Y-81797976D01*
X156237161Y-81693154D01*
X156263387Y-81629835D01*
X156864021Y-82230469D01*
X156864021Y-82230468D01*
X156918704Y-82155206D01*
X157023033Y-81950450D01*
X157094049Y-81731884D01*
X157130000Y-81504904D01*
X157130000Y-81275095D01*
X159010000Y-81275095D01*
X159010000Y-81504904D01*
X159045950Y-81731884D01*
X159116966Y-81950450D01*
X159221298Y-82155210D01*
X159275975Y-82230468D01*
X159275977Y-82230469D01*
X159876611Y-81629834D01*
X159902839Y-81693154D01*
X159972879Y-81797976D01*
X160062024Y-81887121D01*
X160166846Y-81957161D01*
X160230164Y-81983387D01*
X159629529Y-82584021D01*
X159704792Y-82638703D01*
X159909549Y-82743033D01*
X160128115Y-82814049D01*
X160355096Y-82850000D01*
X160584904Y-82850000D01*
X160811884Y-82814049D01*
X161030450Y-82743033D01*
X161235206Y-82638704D01*
X161310468Y-82584021D01*
X161310469Y-82584021D01*
X160709835Y-81983388D01*
X160773154Y-81957161D01*
X160877976Y-81887121D01*
X160967121Y-81797976D01*
X161037161Y-81693154D01*
X161063388Y-81629835D01*
X161664021Y-82230469D01*
X161664021Y-82230468D01*
X161718704Y-82155206D01*
X161823033Y-81950450D01*
X161894049Y-81731884D01*
X161930000Y-81504904D01*
X161930000Y-81275095D01*
X161894049Y-81048115D01*
X161823033Y-80829549D01*
X161718703Y-80624792D01*
X161664021Y-80549530D01*
X161664021Y-80549529D01*
X161063387Y-81150163D01*
X161037161Y-81086846D01*
X160967121Y-80982024D01*
X160877976Y-80892879D01*
X160773154Y-80822839D01*
X160709833Y-80796611D01*
X161310469Y-80195977D01*
X161310468Y-80195975D01*
X161235210Y-80141298D01*
X161030450Y-80036966D01*
X160811884Y-79965950D01*
X160584904Y-79930000D01*
X160355096Y-79930000D01*
X160128115Y-79965950D01*
X159909549Y-80036966D01*
X159704796Y-80141294D01*
X159629530Y-80195977D01*
X159629530Y-80195978D01*
X160230164Y-80796611D01*
X160166846Y-80822839D01*
X160062024Y-80892879D01*
X159972879Y-80982024D01*
X159902839Y-81086846D01*
X159876611Y-81150164D01*
X159275978Y-80549530D01*
X159275977Y-80549530D01*
X159221294Y-80624796D01*
X159116966Y-80829549D01*
X159045950Y-81048115D01*
X159010000Y-81275095D01*
X157130000Y-81275095D01*
X157094049Y-81048115D01*
X157023033Y-80829549D01*
X156918703Y-80624792D01*
X156864021Y-80549530D01*
X156864021Y-80549529D01*
X156263387Y-81150163D01*
X156237161Y-81086846D01*
X156167121Y-80982024D01*
X156077976Y-80892879D01*
X155973154Y-80822839D01*
X155909833Y-80796611D01*
X156510469Y-80195977D01*
X156510468Y-80195975D01*
X156435210Y-80141298D01*
X156230450Y-80036966D01*
X156011884Y-79965950D01*
X155784904Y-79930000D01*
X155555096Y-79930000D01*
X155328115Y-79965950D01*
X155109549Y-80036966D01*
X154904796Y-80141294D01*
X154829530Y-80195977D01*
X154829530Y-80195978D01*
X155430164Y-80796611D01*
X155366846Y-80822839D01*
X155262024Y-80892879D01*
X155172879Y-80982024D01*
X155102839Y-81086846D01*
X155076611Y-81150164D01*
X154475978Y-80549530D01*
X154475977Y-80549530D01*
X154421294Y-80624796D01*
X154316966Y-80829549D01*
X154245950Y-81048115D01*
X154210000Y-81275095D01*
X147790080Y-81275095D01*
X147819737Y-81203497D01*
X147833769Y-81132949D01*
X147834655Y-81129529D01*
X147850842Y-81102460D01*
X147865463Y-81074510D01*
X147867016Y-81072929D01*
X147903500Y-81036446D01*
X147955276Y-80984670D01*
X148026465Y-80878127D01*
X148075501Y-80759744D01*
X148080124Y-80736503D01*
X148100500Y-80634069D01*
X148100500Y-79464935D01*
X148120185Y-79397896D01*
X148121366Y-79396090D01*
X148159394Y-79339179D01*
X148219737Y-79193497D01*
X148250500Y-79038842D01*
X148250500Y-78881158D01*
X148250500Y-78881155D01*
X148250499Y-78881153D01*
X148219738Y-78726510D01*
X148219737Y-78726503D01*
X148219735Y-78726498D01*
X148159397Y-78580827D01*
X148159390Y-78580814D01*
X148071789Y-78449711D01*
X148071786Y-78449707D01*
X147960292Y-78338213D01*
X147960288Y-78338210D01*
X147829185Y-78250609D01*
X147829172Y-78250602D01*
X147683501Y-78190264D01*
X147683489Y-78190261D01*
X147528845Y-78159500D01*
X147528842Y-78159500D01*
X147371158Y-78159500D01*
X147371155Y-78159500D01*
X147216510Y-78190261D01*
X147216498Y-78190264D01*
X147070827Y-78250602D01*
X147070814Y-78250609D01*
X146939711Y-78338210D01*
X146939707Y-78338213D01*
X146828213Y-78449707D01*
X146828210Y-78449711D01*
X146740609Y-78580814D01*
X146740602Y-78580827D01*
X146680264Y-78726498D01*
X146680261Y-78726510D01*
X146649500Y-78881153D01*
X146649500Y-79038846D01*
X146680261Y-79193489D01*
X146680264Y-79193501D01*
X146740602Y-79339172D01*
X146740606Y-79339179D01*
X146778602Y-79396044D01*
X146799480Y-79462721D01*
X146799500Y-79464935D01*
X146799500Y-80124450D01*
X146779815Y-80191489D01*
X146727011Y-80237244D01*
X146722954Y-80239010D01*
X146670829Y-80260601D01*
X146670814Y-80260609D01*
X146539711Y-80348210D01*
X146539707Y-80348213D01*
X146428213Y-80459707D01*
X146428210Y-80459711D01*
X146340609Y-80590814D01*
X146340602Y-80590827D01*
X146280264Y-80736498D01*
X146280261Y-80736508D01*
X146266920Y-80803578D01*
X146258156Y-80820332D01*
X146254137Y-80838810D01*
X146235389Y-80863855D01*
X146234535Y-80865489D01*
X146232987Y-80867065D01*
X146196875Y-80903179D01*
X146135552Y-80936665D01*
X146109191Y-80939500D01*
X136214837Y-80939500D01*
X136196034Y-80938066D01*
X135086220Y-80767803D01*
X135038584Y-80762518D01*
X135038614Y-80762247D01*
X135025616Y-80760847D01*
X135018846Y-80759500D01*
X135018842Y-80759500D01*
X134861158Y-80759500D01*
X134861155Y-80759500D01*
X134706510Y-80790261D01*
X134706498Y-80790264D01*
X134560827Y-80850602D01*
X134560814Y-80850609D01*
X134429711Y-80938210D01*
X134429707Y-80938213D01*
X134318213Y-81049707D01*
X134318210Y-81049711D01*
X134230609Y-81180814D01*
X134230602Y-81180827D01*
X134170264Y-81326498D01*
X134170261Y-81326510D01*
X134139500Y-81481153D01*
X134139500Y-81638846D01*
X134170261Y-81793489D01*
X134170264Y-81793501D01*
X134230602Y-81939172D01*
X134230609Y-81939185D01*
X134318210Y-82070288D01*
X134318213Y-82070292D01*
X134429707Y-82181786D01*
X134429711Y-82181789D01*
X134560814Y-82269390D01*
X134560827Y-82269397D01*
X134628581Y-82297461D01*
X134706503Y-82329737D01*
X134840526Y-82356396D01*
X134861153Y-82360499D01*
X134861156Y-82360500D01*
X134861158Y-82360500D01*
X135018837Y-82360500D01*
X135018842Y-82360500D01*
X135029506Y-82358378D01*
X135055234Y-82356396D01*
X135055231Y-82356264D01*
X135057994Y-82356184D01*
X135058982Y-82356108D01*
X135059655Y-82356137D01*
X135059665Y-82356136D01*
X135059668Y-82356136D01*
X136174270Y-82244024D01*
X136174279Y-82244022D01*
X136174297Y-82244021D01*
X136193571Y-82241525D01*
X136209490Y-82240500D01*
X141610192Y-82240500D01*
X141677231Y-82260185D01*
X141722986Y-82312989D01*
X141732930Y-82382147D01*
X141703905Y-82445703D01*
X141697873Y-82452181D01*
X140404722Y-83745331D01*
X140404718Y-83745336D01*
X140360483Y-83811542D01*
X140360481Y-83811545D01*
X140333539Y-83851864D01*
X140333533Y-83851875D01*
X140284499Y-83970255D01*
X140284497Y-83970261D01*
X140259500Y-84095928D01*
X140259500Y-84095931D01*
X140259500Y-86274069D01*
X140275898Y-86356503D01*
X140284499Y-86399744D01*
X140333535Y-86518127D01*
X140404723Y-86624669D01*
X140467176Y-86687121D01*
X140472984Y-86692929D01*
X140506469Y-86754252D01*
X140506920Y-86756420D01*
X140520261Y-86823489D01*
X140520264Y-86823501D01*
X140580602Y-86969172D01*
X140580609Y-86969185D01*
X140668210Y-87100288D01*
X140668213Y-87100292D01*
X140779707Y-87211786D01*
X140779711Y-87211789D01*
X140910814Y-87299390D01*
X140910827Y-87299397D01*
X141056498Y-87359735D01*
X141056503Y-87359737D01*
X141211153Y-87390499D01*
X141211156Y-87390500D01*
X141211158Y-87390500D01*
X141368844Y-87390500D01*
X141368845Y-87390499D01*
X141523497Y-87359737D01*
X141669179Y-87299394D01*
X141800289Y-87211789D01*
X141911789Y-87100289D01*
X141999394Y-86969179D01*
X142059737Y-86823497D01*
X142090500Y-86668842D01*
X142090500Y-86511158D01*
X142090500Y-86511155D01*
X142090499Y-86511153D01*
X142068338Y-86399744D01*
X142059737Y-86356503D01*
X142032404Y-86290514D01*
X141999397Y-86210827D01*
X141999390Y-86210814D01*
X141911789Y-86079711D01*
X141911786Y-86079707D01*
X141800292Y-85968213D01*
X141800288Y-85968210D01*
X141669185Y-85880609D01*
X141669179Y-85880606D01*
X141637046Y-85867296D01*
X141582643Y-85823454D01*
X141560579Y-85757160D01*
X141560500Y-85752735D01*
X141560500Y-84480807D01*
X141580185Y-84413768D01*
X141596815Y-84393130D01*
X142290495Y-83699449D01*
X142351816Y-83665966D01*
X142421507Y-83670950D01*
X142477441Y-83712821D01*
X142499791Y-83762940D01*
X142518161Y-83855291D01*
X142518164Y-83855301D01*
X142578502Y-84000972D01*
X142578509Y-84000985D01*
X142666110Y-84132088D01*
X142666113Y-84132092D01*
X142777607Y-84243586D01*
X142777611Y-84243589D01*
X142908714Y-84331190D01*
X142908727Y-84331197D01*
X143027757Y-84380500D01*
X143054403Y-84391537D01*
X143209053Y-84422299D01*
X143209056Y-84422300D01*
X143209058Y-84422300D01*
X143366744Y-84422300D01*
X143366745Y-84422299D01*
X143521397Y-84391537D01*
X143667079Y-84331194D01*
X143723944Y-84293197D01*
X143790621Y-84272320D01*
X143792835Y-84272300D01*
X147264392Y-84272300D01*
X147331431Y-84291985D01*
X147352073Y-84308619D01*
X147573706Y-84530252D01*
X147576366Y-84535124D01*
X147580989Y-84538198D01*
X147592927Y-84565453D01*
X147607191Y-84591575D01*
X147606794Y-84597112D01*
X147609022Y-84602197D01*
X147604329Y-84631581D01*
X147602207Y-84661267D01*
X147598649Y-84667158D01*
X147598005Y-84671192D01*
X147585603Y-84688760D01*
X147578464Y-84700583D01*
X147576141Y-84703180D01*
X147505811Y-84773511D01*
X147483785Y-84806474D01*
X147477967Y-84812982D01*
X147455401Y-84826993D01*
X147435017Y-84844028D01*
X147426177Y-84845138D01*
X147418608Y-84849838D01*
X147392048Y-84849424D01*
X147365692Y-84852735D01*
X147355847Y-84848861D01*
X147348747Y-84848751D01*
X147338861Y-84842178D01*
X147316637Y-84833434D01*
X147212885Y-84764109D01*
X147212872Y-84764102D01*
X147067201Y-84703764D01*
X147067189Y-84703761D01*
X146912545Y-84673000D01*
X146912542Y-84673000D01*
X146754858Y-84673000D01*
X146754855Y-84673000D01*
X146600210Y-84703761D01*
X146600198Y-84703764D01*
X146454527Y-84764102D01*
X146454514Y-84764109D01*
X146323411Y-84851710D01*
X146323407Y-84851713D01*
X146211913Y-84963207D01*
X146211910Y-84963211D01*
X146124309Y-85094314D01*
X146124302Y-85094327D01*
X146063964Y-85239998D01*
X146063961Y-85240010D01*
X146033200Y-85394653D01*
X146033200Y-85552346D01*
X146063961Y-85706989D01*
X146063964Y-85707001D01*
X146124302Y-85852672D01*
X146124309Y-85852685D01*
X146211910Y-85983788D01*
X146211913Y-85983792D01*
X146323407Y-86095286D01*
X146323411Y-86095289D01*
X146454514Y-86182890D01*
X146454527Y-86182897D01*
X146541930Y-86219099D01*
X146600203Y-86243237D01*
X146667280Y-86256579D01*
X146729188Y-86288961D01*
X146730768Y-86290514D01*
X148895525Y-88455272D01*
X148895532Y-88455278D01*
X148984499Y-88514723D01*
X148996241Y-88522568D01*
X149002073Y-88526465D01*
X149120456Y-88575501D01*
X149120460Y-88575501D01*
X149120461Y-88575502D01*
X149246128Y-88600500D01*
X149246131Y-88600500D01*
X149632025Y-88600500D01*
X149699064Y-88620185D01*
X149744819Y-88672989D01*
X149746586Y-88677048D01*
X149780602Y-88759172D01*
X149780609Y-88759185D01*
X149868210Y-88890288D01*
X149868213Y-88890292D01*
X149979707Y-89001786D01*
X149979711Y-89001789D01*
X150110814Y-89089390D01*
X150110827Y-89089397D01*
X150208829Y-89129990D01*
X150256503Y-89149737D01*
X150394684Y-89177223D01*
X150411153Y-89180499D01*
X150411156Y-89180500D01*
X150411158Y-89180500D01*
X150568844Y-89180500D01*
X150568845Y-89180499D01*
X150723497Y-89149737D01*
X150869179Y-89089394D01*
X151000289Y-89001789D01*
X151111789Y-88890289D01*
X151155033Y-88825568D01*
X151208643Y-88780766D01*
X151277968Y-88772057D01*
X151282268Y-88772833D01*
X151320811Y-88780500D01*
X151448949Y-88780500D01*
X153889192Y-88780500D01*
X153956231Y-88800185D01*
X153976873Y-88816819D01*
X154594723Y-89434669D01*
X155115325Y-89955272D01*
X155115328Y-89955275D01*
X155115331Y-89955277D01*
X155190161Y-90005276D01*
X155221873Y-90026465D01*
X155340256Y-90075501D01*
X155340260Y-90075501D01*
X155340261Y-90075502D01*
X155465928Y-90100500D01*
X155465931Y-90100500D01*
X158136442Y-90100500D01*
X158203481Y-90120185D01*
X158249236Y-90172989D01*
X158257341Y-90203060D01*
X158258311Y-90202868D01*
X158290261Y-90363489D01*
X158290264Y-90363501D01*
X158350602Y-90509172D01*
X158350606Y-90509179D01*
X158388602Y-90566044D01*
X158409480Y-90632721D01*
X158409500Y-90634935D01*
X158409500Y-90939192D01*
X158389815Y-91006231D01*
X158373181Y-91026873D01*
X155729173Y-93670880D01*
X155701314Y-93686091D01*
X155674298Y-93702781D01*
X155670863Y-93702719D01*
X155667850Y-93704365D01*
X155636188Y-93702100D01*
X155604440Y-93701534D01*
X155600252Y-93699530D01*
X155598158Y-93699381D01*
X155572602Y-93686302D01*
X155535610Y-93661585D01*
X155490804Y-93607973D01*
X155480500Y-93558482D01*
X155480500Y-93491155D01*
X155480499Y-93491153D01*
X155458930Y-93382721D01*
X155449737Y-93336503D01*
X155417706Y-93259172D01*
X155389397Y-93190828D01*
X155389396Y-93190827D01*
X155389394Y-93190821D01*
X155351396Y-93133953D01*
X155330520Y-93067276D01*
X155330500Y-93065064D01*
X155330500Y-91645928D01*
X155305502Y-91520261D01*
X155305501Y-91520260D01*
X155305501Y-91520256D01*
X155256465Y-91401873D01*
X155228153Y-91359501D01*
X155185276Y-91295330D01*
X155160959Y-91271013D01*
X155155797Y-91264188D01*
X155146335Y-91239198D01*
X155133529Y-91215748D01*
X155133106Y-91213718D01*
X155119737Y-91146503D01*
X155092469Y-91080672D01*
X155059397Y-91000827D01*
X155059390Y-91000814D01*
X154971789Y-90869711D01*
X154971786Y-90869707D01*
X154860292Y-90758213D01*
X154860288Y-90758210D01*
X154729185Y-90670609D01*
X154729172Y-90670602D01*
X154583501Y-90610264D01*
X154583489Y-90610261D01*
X154428845Y-90579500D01*
X154428842Y-90579500D01*
X154271158Y-90579500D01*
X154271153Y-90579500D01*
X154138691Y-90605848D01*
X154069099Y-90599621D01*
X154013922Y-90556757D01*
X153990678Y-90490867D01*
X153990500Y-90484231D01*
X153990500Y-90441306D01*
X153990499Y-90441304D01*
X153955896Y-90267341D01*
X153955893Y-90267332D01*
X153888016Y-90103459D01*
X153888009Y-90103446D01*
X153789464Y-89955965D01*
X153789461Y-89955961D01*
X153664038Y-89830538D01*
X153664034Y-89830535D01*
X153516553Y-89731990D01*
X153516540Y-89731983D01*
X153352667Y-89664106D01*
X153352658Y-89664103D01*
X153178694Y-89629500D01*
X153178691Y-89629500D01*
X147634500Y-89629500D01*
X147567461Y-89609815D01*
X147521706Y-89557011D01*
X147510500Y-89505500D01*
X147510500Y-89421155D01*
X147510499Y-89421153D01*
X147504467Y-89390827D01*
X147479737Y-89266503D01*
X147474826Y-89254646D01*
X147419397Y-89120827D01*
X147419390Y-89120814D01*
X147331789Y-88989711D01*
X147331786Y-88989707D01*
X147220292Y-88878213D01*
X147220288Y-88878210D01*
X147089185Y-88790609D01*
X147089172Y-88790602D01*
X146943501Y-88730264D01*
X146943489Y-88730261D01*
X146788845Y-88699500D01*
X146788842Y-88699500D01*
X146631158Y-88699500D01*
X146631155Y-88699500D01*
X146476510Y-88730261D01*
X146476498Y-88730264D01*
X146330827Y-88790602D01*
X146330814Y-88790609D01*
X146199714Y-88878208D01*
X146199709Y-88878212D01*
X146097603Y-88980316D01*
X146089835Y-88987450D01*
X146084553Y-88991901D01*
X146080331Y-88994723D01*
X146075642Y-88999411D01*
X146071603Y-89002816D01*
X146044263Y-89014851D01*
X146018049Y-89029166D01*
X146009712Y-89030062D01*
X146007655Y-89030968D01*
X146005075Y-89030560D01*
X145991691Y-89032000D01*
X124443429Y-89032000D01*
X124317761Y-89056997D01*
X124317755Y-89056999D01*
X124199374Y-89106034D01*
X124092826Y-89177226D01*
X122514508Y-90755544D01*
X122495718Y-90770965D01*
X122385331Y-90844723D01*
X122385327Y-90844726D01*
X122294726Y-90935327D01*
X122294723Y-90935331D01*
X122223538Y-91041866D01*
X122223533Y-91041875D01*
X122174499Y-91160255D01*
X122174497Y-91160261D01*
X122149500Y-91285928D01*
X122149500Y-94748126D01*
X122147117Y-94772318D01*
X122119500Y-94911155D01*
X122119500Y-94911158D01*
X122119500Y-95068842D01*
X122119500Y-95068844D01*
X122119499Y-95068844D01*
X122129936Y-95121308D01*
X122123709Y-95190900D01*
X122080846Y-95246077D01*
X122014957Y-95269322D01*
X122008319Y-95269500D01*
X114444618Y-95269500D01*
X114377579Y-95249815D01*
X114343900Y-95215408D01*
X114342915Y-95216125D01*
X114215109Y-95040213D01*
X114064786Y-94889890D01*
X113892820Y-94764951D01*
X113892115Y-94764591D01*
X113884054Y-94760485D01*
X113833259Y-94712512D01*
X113816463Y-94644692D01*
X113838999Y-94578556D01*
X113884054Y-94539515D01*
X113892816Y-94535051D01*
X113963722Y-94483535D01*
X114064786Y-94410109D01*
X114064788Y-94410106D01*
X114064792Y-94410104D01*
X114215104Y-94259792D01*
X114215106Y-94259788D01*
X114215109Y-94259786D01*
X114340048Y-94087820D01*
X114340047Y-94087820D01*
X114340051Y-94087816D01*
X114436557Y-93898412D01*
X114502246Y-93696243D01*
X114535500Y-93486287D01*
X114535500Y-93273713D01*
X114502246Y-93063757D01*
X114436557Y-92861588D01*
X114340051Y-92672184D01*
X114340049Y-92672181D01*
X114340048Y-92672179D01*
X114215109Y-92500213D01*
X114101181Y-92386285D01*
X114067696Y-92324962D01*
X114072680Y-92255270D01*
X114114552Y-92199337D01*
X114145529Y-92182422D01*
X114277086Y-92133354D01*
X114277093Y-92133350D01*
X114392187Y-92047190D01*
X114392190Y-92047187D01*
X114478350Y-91932093D01*
X114478354Y-91932086D01*
X114528596Y-91797379D01*
X114528598Y-91797372D01*
X114534999Y-91737844D01*
X114535000Y-91737827D01*
X114535000Y-91090000D01*
X113618012Y-91090000D01*
X113650925Y-91032993D01*
X113685000Y-90905826D01*
X113685000Y-90774174D01*
X113650925Y-90647007D01*
X113618012Y-90590000D01*
X114535000Y-90590000D01*
X114535000Y-89942172D01*
X114534999Y-89942155D01*
X114528598Y-89882627D01*
X114528596Y-89882620D01*
X114478354Y-89747913D01*
X114478350Y-89747906D01*
X114392190Y-89632812D01*
X114392187Y-89632809D01*
X114277093Y-89546649D01*
X114277086Y-89546645D01*
X114142379Y-89496403D01*
X114142372Y-89496401D01*
X114082844Y-89490000D01*
X113435000Y-89490000D01*
X113435000Y-90406988D01*
X113377993Y-90374075D01*
X113250826Y-90340000D01*
X113119174Y-90340000D01*
X112992007Y-90374075D01*
X112935000Y-90406988D01*
X112935000Y-89490000D01*
X112287155Y-89490000D01*
X112227627Y-89496401D01*
X112227620Y-89496403D01*
X112092913Y-89546645D01*
X112092906Y-89546649D01*
X111977812Y-89632809D01*
X111977809Y-89632812D01*
X111891649Y-89747906D01*
X111891645Y-89747913D01*
X111841403Y-89882620D01*
X111841401Y-89882627D01*
X111835000Y-89942155D01*
X111835000Y-90590000D01*
X112751988Y-90590000D01*
X112719075Y-90647007D01*
X112685000Y-90774174D01*
X112685000Y-90905826D01*
X112719075Y-91032993D01*
X112751988Y-91090000D01*
X111835000Y-91090000D01*
X111835000Y-91737844D01*
X111841401Y-91797372D01*
X111841403Y-91797379D01*
X111891645Y-91932086D01*
X111891649Y-91932093D01*
X111977809Y-92047187D01*
X111977812Y-92047190D01*
X112092906Y-92133350D01*
X112092913Y-92133354D01*
X112224470Y-92182422D01*
X112280404Y-92224293D01*
X112304821Y-92289758D01*
X112289969Y-92358031D01*
X112268819Y-92386285D01*
X112154889Y-92500215D01*
X112029951Y-92672179D01*
X111933444Y-92861585D01*
X111867753Y-93063760D01*
X111835238Y-93269054D01*
X111834500Y-93273713D01*
X110397629Y-93273713D01*
X110397621Y-93269054D01*
X110391901Y-89939064D01*
X110380323Y-83198851D01*
X110379375Y-82647244D01*
X110378353Y-82052155D01*
X111250000Y-82052155D01*
X111250000Y-82750000D01*
X112274722Y-82750000D01*
X112230667Y-82826306D01*
X112200000Y-82940756D01*
X112200000Y-83059244D01*
X112230667Y-83173694D01*
X112274722Y-83250000D01*
X111250000Y-83250000D01*
X111250000Y-83947844D01*
X111256401Y-84007372D01*
X111256403Y-84007379D01*
X111306645Y-84142086D01*
X111306649Y-84142093D01*
X111392809Y-84257187D01*
X111392812Y-84257190D01*
X111507906Y-84343350D01*
X111507913Y-84343354D01*
X111642620Y-84393596D01*
X111642627Y-84393598D01*
X111702155Y-84399999D01*
X111702172Y-84400000D01*
X112400000Y-84400000D01*
X112400000Y-83375277D01*
X112476306Y-83419333D01*
X112590756Y-83450000D01*
X112709244Y-83450000D01*
X112823694Y-83419333D01*
X112900000Y-83375277D01*
X112900000Y-84400000D01*
X113597828Y-84400000D01*
X113597844Y-84399999D01*
X113657372Y-84393598D01*
X113657379Y-84393596D01*
X113792086Y-84343354D01*
X113792093Y-84343350D01*
X113907187Y-84257190D01*
X113907190Y-84257187D01*
X113993350Y-84142093D01*
X113993351Y-84142090D01*
X113994617Y-84138698D01*
X113996790Y-84135794D01*
X113997604Y-84134304D01*
X113997818Y-84134420D01*
X114036483Y-84082760D01*
X114101944Y-84058337D01*
X114170219Y-84073182D01*
X114183688Y-84081702D01*
X114301029Y-84166953D01*
X114315978Y-84177815D01*
X114444375Y-84243237D01*
X114512393Y-84277895D01*
X114512396Y-84277896D01*
X114606954Y-84308619D01*
X114722049Y-84346015D01*
X114939778Y-84380500D01*
X114939779Y-84380500D01*
X115160221Y-84380500D01*
X115160222Y-84380500D01*
X115377951Y-84346015D01*
X115587606Y-84277895D01*
X115784022Y-84177815D01*
X115962365Y-84048242D01*
X116118242Y-83892365D01*
X116247815Y-83714022D01*
X116347895Y-83517606D01*
X116416015Y-83307951D01*
X116450500Y-83090222D01*
X116450500Y-82869778D01*
X116416015Y-82652049D01*
X116347895Y-82442394D01*
X116347895Y-82442393D01*
X116303944Y-82356136D01*
X116247815Y-82245978D01*
X116169131Y-82137678D01*
X116118247Y-82067641D01*
X116118243Y-82067636D01*
X115962363Y-81911756D01*
X115962358Y-81911752D01*
X115784025Y-81782187D01*
X115784024Y-81782186D01*
X115784022Y-81782185D01*
X115685302Y-81731884D01*
X115587606Y-81682104D01*
X115587603Y-81682103D01*
X115377952Y-81613985D01*
X115237792Y-81591786D01*
X115160222Y-81579500D01*
X114939778Y-81579500D01*
X114867201Y-81590995D01*
X114722047Y-81613985D01*
X114512396Y-81682103D01*
X114512393Y-81682104D01*
X114315978Y-81782184D01*
X114169185Y-81888835D01*
X114103378Y-81912314D01*
X114035324Y-81896488D01*
X113997034Y-81862827D01*
X113907190Y-81742812D01*
X113907187Y-81742809D01*
X113792093Y-81656649D01*
X113792086Y-81656645D01*
X113657379Y-81606403D01*
X113657372Y-81606401D01*
X113597844Y-81600000D01*
X112900000Y-81600000D01*
X112900000Y-82624722D01*
X112823694Y-82580667D01*
X112709244Y-82550000D01*
X112590756Y-82550000D01*
X112476306Y-82580667D01*
X112400000Y-82624722D01*
X112400000Y-81600000D01*
X111702155Y-81600000D01*
X111642627Y-81606401D01*
X111642620Y-81606403D01*
X111507913Y-81656645D01*
X111507906Y-81656649D01*
X111392812Y-81742809D01*
X111392809Y-81742812D01*
X111306649Y-81857906D01*
X111306645Y-81857913D01*
X111256403Y-81992620D01*
X111256401Y-81992627D01*
X111250000Y-82052155D01*
X110378353Y-82052155D01*
X110369769Y-77054933D01*
X110389339Y-76987862D01*
X110442064Y-76942016D01*
X110493810Y-76930722D01*
X165156337Y-76950276D01*
G37*
%TD.AperFunction*%
%TD*%
%TA.AperFunction,Conductor*%
%TO.N,/3.3V*%
G36*
X136124310Y-81438477D02*
G01*
X136131968Y-81443119D01*
X136134236Y-81450042D01*
X136134236Y-81729418D01*
X136130809Y-81737691D01*
X136123707Y-81741059D01*
X135009065Y-81853175D01*
X135000490Y-81850594D01*
X134996426Y-81843855D01*
X134939469Y-81562318D01*
X134939469Y-81557680D01*
X134961246Y-81450042D01*
X134996314Y-81276700D01*
X135001314Y-81269272D01*
X135009556Y-81267456D01*
X136124310Y-81438477D01*
G37*
%TD.AperFunction*%
%TD*%
M02*
