%TF.GenerationSoftware,KiCad,Pcbnew,9.0.3*%
%TF.CreationDate,2025-07-13T04:30:15+05:30*%
%TF.ProjectId,Smart_Env_Monitoring_Node,536d6172-745f-4456-9e76-5f4d6f6e6974,rev?*%
%TF.SameCoordinates,Original*%
%TF.FileFunction,Plated,1,2,PTH,Drill*%
%TF.FilePolarity,Positive*%
%FSLAX46Y46*%
G04 Gerber Fmt 4.6, Leading zero omitted, Abs format (unit mm)*
G04 Created by KiCad (PCBNEW 9.0.3) date 2025-07-13 04:30:15*
%MOMM*%
%LPD*%
G01*
G04 APERTURE LIST*
%TA.AperFunction,ViaDrill*%
%ADD10C,0.300000*%
%TD*%
%TA.AperFunction,ComponentDrill*%
%ADD11C,0.354000*%
%TD*%
%TA.AperFunction,ComponentDrill*%
%ADD12C,0.800000*%
%TD*%
%TA.AperFunction,ComponentDrill*%
%ADD13C,0.900000*%
%TD*%
%TA.AperFunction,ComponentDrill*%
%ADD14C,1.000000*%
%TD*%
%TA.AperFunction,ComponentDrill*%
%ADD15C,1.280000*%
%TD*%
%TA.AperFunction,ComponentDrill*%
%ADD16C,2.000000*%
%TD*%
G04 APERTURE END LIST*
D10*
X121394400Y-98460000D03*
X121420000Y-80940000D03*
X122920000Y-94990000D03*
X125930000Y-137010000D03*
X127390000Y-111550000D03*
X127391200Y-134443400D03*
X129560000Y-92880000D03*
X129620000Y-99404300D03*
X129690000Y-90333500D03*
X131480000Y-111710000D03*
X131550000Y-117460000D03*
X132690000Y-90530000D03*
X133247200Y-134443400D03*
X134230000Y-105290000D03*
X134230000Y-112720000D03*
X134940000Y-81560000D03*
X136040000Y-93650000D03*
X136070000Y-120370000D03*
X136370000Y-137010000D03*
X137735000Y-92075000D03*
X139049200Y-137493800D03*
X139130000Y-139640000D03*
X139450000Y-116450000D03*
X141280400Y-98494900D03*
X141290000Y-86590000D03*
X141342100Y-135256300D03*
X141530000Y-94400000D03*
X143287900Y-83621800D03*
X143490000Y-82330000D03*
X144333500Y-105795200D03*
X146710000Y-89500000D03*
X146833700Y-85473500D03*
X147050000Y-80970000D03*
X147450000Y-78960000D03*
X148127600Y-85283800D03*
X148800000Y-88410000D03*
X148890000Y-81690000D03*
X150490000Y-88380000D03*
X151560000Y-102000000D03*
X151570000Y-104610000D03*
X152134426Y-92086500D03*
X152360000Y-93920000D03*
X152720000Y-121980000D03*
X153090000Y-90530000D03*
X153650000Y-81230000D03*
X153660000Y-141710000D03*
X154320000Y-96450000D03*
X154350000Y-91380000D03*
X154440000Y-100530000D03*
X154560000Y-120110000D03*
X154680000Y-93570000D03*
X155140000Y-94360000D03*
X156000000Y-118970000D03*
X157000000Y-88410000D03*
X159060000Y-90130000D03*
X159334400Y-137882300D03*
X159656500Y-134740200D03*
X160230000Y-89770000D03*
X161110000Y-95540000D03*
X162670000Y-98850000D03*
X162880000Y-93880000D03*
X163609000Y-88659000D03*
D11*
%TO.C,U1*%
X134385000Y-84502500D03*
X134385000Y-86027500D03*
X135147500Y-83740000D03*
X135147500Y-85265000D03*
X135147500Y-86790000D03*
X135910000Y-84502500D03*
X135910000Y-86027500D03*
X136672500Y-83740000D03*
X136672500Y-85265000D03*
X136672500Y-86790000D03*
X137435000Y-84502500D03*
X137435000Y-86027500D03*
D12*
%TO.C,C1*%
X112570000Y-132920000D03*
X114570000Y-132920000D03*
%TO.C,C2*%
X123180000Y-133000000D03*
X125180000Y-133000000D03*
D13*
%TO.C,D1*%
X112650000Y-83000000D03*
X115050000Y-82980000D03*
D14*
%TO.C,J3*%
X113185000Y-90840000D03*
X113185000Y-93380000D03*
X113185000Y-95920000D03*
X113185000Y-98460000D03*
%TO.C,U5*%
X132960000Y-101770000D03*
X135500000Y-101770000D03*
X138040000Y-101770000D03*
X140580000Y-101770000D03*
%TO.C,J4*%
X158070000Y-83790000D03*
%TO.C,J2*%
X159020000Y-105550000D03*
X159020000Y-108090000D03*
X159020000Y-110630000D03*
X159020000Y-113170000D03*
X159020000Y-115710000D03*
X159020000Y-118250000D03*
X159020000Y-120790000D03*
X159020000Y-123330000D03*
D15*
%TO.C,J4*%
X155670000Y-81390000D03*
X155670000Y-86190000D03*
X160470000Y-81390000D03*
X160470000Y-86190000D03*
D16*
%TO.C,U5*%
X125770000Y-102270000D03*
X125770000Y-124270000D03*
X147770000Y-102270000D03*
X147770000Y-124270000D03*
M02*
