%TF.GenerationSoftware,KiCad,Pcbnew,9.0.3*%
%TF.CreationDate,2025-07-13T04:30:13+05:30*%
%TF.ProjectId,Smart_Env_Monitoring_Node,536d6172-745f-4456-9e76-5f4d6f6e6974,rev?*%
%TF.SameCoordinates,Original*%
%TF.FileFunction,Soldermask,Top*%
%TF.FilePolarity,Negative*%
%FSLAX46Y46*%
G04 Gerber Fmt 4.6, Leading zero omitted, Abs format (unit mm)*
G04 Created by KiCad (PCBNEW 9.0.3) date 2025-07-13 04:30:13*
%MOMM*%
%LPD*%
G01*
G04 APERTURE LIST*
G04 Aperture macros list*
%AMRoundRect*
0 Rectangle with rounded corners*
0 $1 Rounding radius*
0 $2 $3 $4 $5 $6 $7 $8 $9 X,Y pos of 4 corners*
0 Add a 4 corners polygon primitive as box body*
4,1,4,$2,$3,$4,$5,$6,$7,$8,$9,$2,$3,0*
0 Add four circle primitives for the rounded corners*
1,1,$1+$1,$2,$3*
1,1,$1+$1,$4,$5*
1,1,$1+$1,$6,$7*
1,1,$1+$1,$8,$9*
0 Add four rect primitives between the rounded corners*
20,1,$1+$1,$2,$3,$4,$5,0*
20,1,$1+$1,$4,$5,$6,$7,0*
20,1,$1+$1,$6,$7,$8,$9,0*
20,1,$1+$1,$8,$9,$2,$3,0*%
G04 Aperture macros list end*
%ADD10R,1.650000X1.300000*%
%ADD11R,1.425000X1.550000*%
%ADD12R,1.000000X1.900000*%
%ADD13R,1.800000X1.900000*%
%ADD14R,0.450000X1.380000*%
%ADD15R,1.000000X1.700000*%
%ADD16R,1.700000X1.700000*%
%ADD17C,1.700000*%
%ADD18R,1.800000X1.800000*%
%ADD19C,1.800000*%
%ADD20RoundRect,0.250000X-0.450000X0.350000X-0.450000X-0.350000X0.450000X-0.350000X0.450000X0.350000X0*%
%ADD21RoundRect,0.375000X0.625000X0.375000X-0.625000X0.375000X-0.625000X-0.375000X0.625000X-0.375000X0*%
%ADD22RoundRect,0.500000X0.500000X1.400000X-0.500000X1.400000X-0.500000X-1.400000X0.500000X-1.400000X0*%
%ADD23RoundRect,0.237500X-0.300000X-0.237500X0.300000X-0.237500X0.300000X0.237500X-0.300000X0.237500X0*%
%ADD24C,1.000000*%
%ADD25C,1.712000*%
%ADD26C,2.124000*%
%ADD27RoundRect,0.237500X0.300000X0.237500X-0.300000X0.237500X-0.300000X-0.237500X0.300000X-0.237500X0*%
%ADD28RoundRect,0.250000X0.450000X-0.350000X0.450000X0.350000X-0.450000X0.350000X-0.450000X-0.350000X0*%
%ADD29RoundRect,0.250000X-0.450000X-0.350000X0.450000X-0.350000X0.450000X0.350000X-0.450000X0.350000X0*%
%ADD30RoundRect,0.102000X-0.754000X-0.754000X0.754000X-0.754000X0.754000X0.754000X-0.754000X0.754000X0*%
%ADD31C,3.204000*%
%ADD32RoundRect,0.250000X0.550000X0.550000X-0.550000X0.550000X-0.550000X-0.550000X0.550000X-0.550000X0*%
%ADD33C,1.600000*%
%ADD34RoundRect,0.056250X-0.188750X-0.168750X0.188750X-0.168750X0.188750X0.168750X-0.188750X0.168750X0*%
%ADD35R,1.500000X0.900000*%
%ADD36R,0.900000X1.500000*%
%ADD37C,0.640000*%
%ADD38R,4.200000X4.200000*%
%ADD39RoundRect,0.150000X-0.587500X-0.150000X0.587500X-0.150000X0.587500X0.150000X-0.587500X0.150000X0*%
%ADD40RoundRect,0.062500X-0.350000X-0.062500X0.350000X-0.062500X0.350000X0.062500X-0.350000X0.062500X0*%
%ADD41RoundRect,0.062500X-0.062500X-0.350000X0.062500X-0.350000X0.062500X0.350000X-0.062500X0.350000X0*%
%ADD42R,2.600000X2.600000*%
%ADD43RoundRect,0.150000X0.825000X0.150000X-0.825000X0.150000X-0.825000X-0.150000X0.825000X-0.150000X0*%
%ADD44RoundRect,0.250000X-0.350000X-0.450000X0.350000X-0.450000X0.350000X0.450000X-0.350000X0.450000X0*%
%ADD45RoundRect,0.250000X-0.550000X-0.550000X0.550000X-0.550000X0.550000X0.550000X-0.550000X0.550000X0*%
G04 APERTURE END LIST*
D10*
%TO.C,J1*%
X143327500Y-145845000D03*
D11*
X142632500Y-143265000D03*
D12*
X141502500Y-145845000D03*
D13*
X138802500Y-145845000D03*
D11*
X137162500Y-143275000D03*
D10*
X136577500Y-145845000D03*
D14*
X141392500Y-143185000D03*
X140642500Y-143185000D03*
X139922500Y-143185000D03*
X139152500Y-143185000D03*
X138392500Y-143185000D03*
%TD*%
D15*
%TO.C,SW2*%
X128160000Y-145210000D03*
X128160000Y-138910000D03*
X131960000Y-145210000D03*
X131960000Y-138910000D03*
%TD*%
D16*
%TO.C,J2*%
X159020000Y-105550000D03*
D17*
X159020000Y-108090000D03*
X159020000Y-110630000D03*
X159020000Y-113170000D03*
X159020000Y-115710000D03*
X159020000Y-118250000D03*
X159020000Y-120790000D03*
X159020000Y-123330000D03*
%TD*%
D18*
%TO.C,D1*%
X112650000Y-83000000D03*
D19*
X115050000Y-82980000D03*
%TD*%
D15*
%TO.C,SW3*%
X147710000Y-145170000D03*
X147710000Y-138870000D03*
X151510000Y-145170000D03*
X151510000Y-138870000D03*
%TD*%
D16*
%TO.C,J3*%
X113185000Y-90840000D03*
D17*
X113185000Y-93380000D03*
X113185000Y-95920000D03*
X113185000Y-98460000D03*
%TD*%
D20*
%TO.C,R6*%
X145240000Y-131810000D03*
X145240000Y-133810000D03*
%TD*%
D21*
%TO.C,U2*%
X122350000Y-143980000D03*
X122350000Y-141680000D03*
D22*
X116050000Y-141680000D03*
D21*
X122350000Y-139380000D03*
%TD*%
D23*
%TO.C,C5*%
X148955000Y-78590000D03*
X150680000Y-78590000D03*
%TD*%
D24*
%TO.C,TP1*%
X118340000Y-78850000D03*
%TD*%
D25*
%TO.C,J4*%
X158070000Y-83790000D03*
D26*
X155670000Y-81390000D03*
X155670000Y-86190000D03*
X160470000Y-86190000D03*
X160470000Y-81390000D03*
%TD*%
D27*
%TO.C,C6*%
X150560000Y-94500000D03*
X148835000Y-94500000D03*
%TD*%
D28*
%TO.C,R3*%
X119970000Y-104420000D03*
X119970000Y-102420000D03*
%TD*%
D29*
%TO.C,Y1*%
X148840000Y-91630000D03*
X151040000Y-91630000D03*
X151040000Y-89930000D03*
X148840000Y-89930000D03*
%TD*%
D30*
%TO.C,U5*%
X132960000Y-101770000D03*
D25*
X135500000Y-101770000D03*
X138040000Y-101770000D03*
X140580000Y-101770000D03*
D31*
X125770000Y-102270000D03*
X147770000Y-102270000D03*
X147770000Y-124270000D03*
X125770000Y-124270000D03*
%TD*%
D32*
%TO.C,C1*%
X114570000Y-132920000D03*
D33*
X112570000Y-132920000D03*
%TD*%
D34*
%TO.C,U4*%
X151930000Y-81040000D03*
X151930000Y-81690000D03*
X151930000Y-82340000D03*
X151930000Y-82990000D03*
X149990000Y-82990000D03*
X149990000Y-82340000D03*
X149990000Y-81690000D03*
X149990000Y-81040000D03*
%TD*%
D27*
%TO.C,C7*%
X150580000Y-86940000D03*
X148855000Y-86940000D03*
%TD*%
D23*
%TO.C,C3*%
X123077500Y-82500000D03*
X124802500Y-82500000D03*
%TD*%
D35*
%TO.C,U1*%
X127840000Y-77925000D03*
X127840000Y-79195000D03*
X127840000Y-80465000D03*
X127840000Y-81735000D03*
X127840000Y-83005000D03*
X127840000Y-84275000D03*
X127840000Y-85545000D03*
X127840000Y-86815000D03*
X127840000Y-88085000D03*
X127840000Y-89355000D03*
X127840000Y-90625000D03*
X127840000Y-91895000D03*
X127840000Y-93165000D03*
X127840000Y-94435000D03*
D36*
X130880000Y-95685000D03*
X132150000Y-95685000D03*
X133420000Y-95685000D03*
X134690000Y-95685000D03*
X135960000Y-95685000D03*
X137230000Y-95685000D03*
X138500000Y-95685000D03*
X139770000Y-95685000D03*
X141040000Y-95685000D03*
X142310000Y-95685000D03*
D35*
X145340000Y-94435000D03*
X145340000Y-93165000D03*
X145340000Y-91895000D03*
X145340000Y-90625000D03*
X145340000Y-89355000D03*
X145340000Y-88085000D03*
X145340000Y-86815000D03*
X145340000Y-85545000D03*
X145340000Y-84275000D03*
X145340000Y-83005000D03*
X145340000Y-81735000D03*
X145340000Y-80465000D03*
X145340000Y-79195000D03*
X145340000Y-77925000D03*
D37*
X134385000Y-84502500D03*
X134385000Y-86027500D03*
X135147500Y-83740000D03*
X135147500Y-85265000D03*
X135147500Y-86790000D03*
X135910000Y-84502500D03*
D38*
X135910000Y-85265000D03*
D37*
X135910000Y-86027500D03*
X136672500Y-83740000D03*
X136672500Y-85265000D03*
X136672500Y-86790000D03*
X137435000Y-84502500D03*
X137435000Y-86027500D03*
%TD*%
D28*
%TO.C,R4*%
X119270000Y-84310000D03*
X119270000Y-82310000D03*
%TD*%
D39*
%TO.C,Q1*%
X131365000Y-130070000D03*
X131365000Y-131970000D03*
X133240000Y-131020000D03*
%TD*%
D24*
%TO.C,TP2*%
X113080000Y-141640000D03*
%TD*%
D40*
%TO.C,U3*%
X156352500Y-91837500D03*
X156352500Y-92337500D03*
X156352500Y-92837500D03*
X156352500Y-93337500D03*
X156352500Y-93837500D03*
X156352500Y-94337500D03*
D41*
X157040000Y-95025000D03*
X157540000Y-95025000D03*
X158040000Y-95025000D03*
X158540000Y-95025000D03*
X159040000Y-95025000D03*
X159540000Y-95025000D03*
D40*
X160227500Y-94337500D03*
X160227500Y-93837500D03*
X160227500Y-93337500D03*
X160227500Y-92837500D03*
X160227500Y-92337500D03*
X160227500Y-91837500D03*
D41*
X159540000Y-91150000D03*
X159040000Y-91150000D03*
X158540000Y-91150000D03*
X158040000Y-91150000D03*
X157540000Y-91150000D03*
X157040000Y-91150000D03*
D42*
X158290000Y-93087500D03*
%TD*%
D27*
%TO.C,C4*%
X124792500Y-80700000D03*
X123067500Y-80700000D03*
%TD*%
D43*
%TO.C,U6*%
X161210000Y-139260000D03*
X161210000Y-137990000D03*
X161210000Y-136720000D03*
X161210000Y-135450000D03*
X161210000Y-134180000D03*
X161210000Y-132910000D03*
X161210000Y-131640000D03*
X161210000Y-130370000D03*
X156260000Y-130370000D03*
X156260000Y-131640000D03*
X156260000Y-132910000D03*
X156260000Y-134180000D03*
X156260000Y-135450000D03*
X156260000Y-136720000D03*
X156260000Y-137990000D03*
X156260000Y-139260000D03*
%TD*%
D44*
%TO.C,R1*%
X148740000Y-96820000D03*
X150740000Y-96820000D03*
%TD*%
D20*
%TO.C,R5*%
X142730000Y-135060000D03*
X142730000Y-137060000D03*
%TD*%
D28*
%TO.C,R7*%
X119930000Y-108680000D03*
X119930000Y-106680000D03*
%TD*%
D39*
%TO.C,Q2*%
X137520000Y-130060000D03*
X137520000Y-131960000D03*
X139395000Y-131010000D03*
%TD*%
D20*
%TO.C,R2*%
X124030000Y-85390000D03*
X124030000Y-87390000D03*
%TD*%
D45*
%TO.C,C2*%
X123180000Y-133000000D03*
D33*
X125180000Y-133000000D03*
%TD*%
M02*
